<?xml version="1.0" encoding="UTF-8" standalone="no"?>
<!-- Created with Inkscape (http://www.inkscape.org/) -->

<svg
   xmlns:dc="http://purl.org/dc/elements/1.1/"
   xmlns:cc="http://creativecommons.org/ns#"
   xmlns:rdf="http://www.w3.org/1999/02/22-rdf-syntax-ns#"
   xmlns:svg="http://www.w3.org/2000/svg"
   xmlns="http://www.w3.org/2000/svg"
   xmlns:sodipodi="http://sodipodi.sourceforge.net/DTD/sodipodi-0.dtd"
   xmlns:inkscape="http://www.inkscape.org/namespaces/inkscape"
   width="207.49257mm"
   height="225.77777mm"
   viewBox="0 0 735.20989 799.99995"
   id="svg2"
   version="1.1"
   inkscape:version="0.91 r13725"
   sodipodi:docname="BullsHead3.svg">
  <defs
     id="defs4">
    <pattern
       y="0"
       x="0"
       height="6"
       width="6"
       patternUnits="userSpaceOnUse"
       id="EMFhbasepattern" />
  </defs>
  <sodipodi:namedview
     id="base"
     pagecolor="#ffffff"
     bordercolor="#666666"
     borderopacity="1.0"
     inkscape:pageopacity="0.0"
     inkscape:pageshadow="2"
     inkscape:zoom="0.83750003"
     inkscape:cx="367.60494"
     inkscape:cy="399.99994"
     inkscape:document-units="px"
     inkscape:current-layer="layer1"
     showgrid="false"
     fit-margin-top="0"
     fit-margin-left="0"
     fit-margin-right="0"
     fit-margin-bottom="0"
     inkscape:window-width="1600"
     inkscape:window-height="837"
     inkscape:window-x="-8"
     inkscape:window-y="-8"
     inkscape:window-maximized="1"
     showguides="false" />
  <metadata
     id="metadata7">
    <rdf:RDF>
      <cc:Work
         rdf:about="">
        <dc:format>image/svg+xml</dc:format>
        <dc:type
           rdf:resource="http://purl.org/dc/dcmitype/StillImage" />
        <dc:title></dc:title>
      </cc:Work>
    </rdf:RDF>
  </metadata>
  <g
     inkscape:label="Layer 1"
     inkscape:groupmode="layer"
     id="layer1"
     transform="translate(-1297.6555,1001.8861)">
    <path
       style="fill:#000000;fill-rule:evenodd"
       inkscape:connector-curvature="0"
       d="m 1631.7394,-234.00023 c -7.324,1.69014 -10.1408,2.25352 -13.5211,2.81689 19.1549,39.43655 84.5069,38.87317 100.8449,-0.56337 -2.8169,0.56337 -9.5775,-2.8169 -12.9578,-2.8169 -23.6619,27.0422 -57.4646,24.22531 -74.366,0.56338 z m 63.6618,-1.12676 c -9.5774,12.95772 -39.9999,17.46476 -54.0844,0 15.2113,-11.26758 37.1831,-11.83096 54.0844,0 z m 64.7886,-114.92936 c 10.1409,-33.80275 19.1549,-73.80268 27.6056,-113.8026 -10.1408,2.81689 -22.5351,3.94365 -33.8027,3.38027 -7.324,33.23938 -14.6479,72.11254 -18.5915,107.60543 7.8873,0.56338 17.4647,1.69014 24.7886,2.8169 z m 65.9154,-213.52072 c 9.5775,-5.07042 14.0845,-24.78869 5.6338,-29.8591 -104.7885,-0.56338 -109.2956,99.71812 -100.2815,219.15451 13.5211,-86.19702 25.9154,-205.63341 94.6477,-189.29541 z m -1.6901,7.32393 c -34.9295,-7.32393 -58.5915,34.36613 -60.2816,61.97171 20.845,0.56338 67.0421,-28.16896 60.2816,-61.97171 z m -218.0278,202.25313 c -4.507,-39.99992 -11.2676,-73.80267 -17.4647,-103.09839 -13.5211,2.25351 -31.5493,0.56338 -45.0704,-3.38028 10.7042,34.92951 27.0422,75.49282 41.6901,110.98571 7.3239,-2.25352 14.0845,-3.38028 20.845,-4.50704 z m -19.1549,-110.9857 c 0,-5.07041 -1.1267,-7.88731 -2.8169,-14.64786 -21.4084,3.94365 -44.5069,-3.94366 -64.7886,-19.15489 -2.2535,15.21123 22.5352,38.87316 67.6055,33.80275 z m 18.5915,45.07034 c -12.3943,-87.32378 -27.0422,-139.15467 -99.7181,-139.71805 -6.1972,-9.57745 -6.7605,-23.09855 -1.1267,-31.54924 95.211,19.1549 118.3096,82.25337 108.7321,172.39404 l -2.8169,44.50696 -5.0704,-45.63371 z m -22.5351,-67.60551 c -45.0704,5.07041 -77.183,-28.16896 -71.5492,-64.22523 36.0563,0.56338 62.5351,26.47882 71.5492,64.22523 z m 33.2393,140.8448 c -83.3801,5.07042 -83.9435,100.28151 -9.5774,107.60544 17.4647,-0.56338 28.7323,-4.50704 45.6337,-10.14083 9.5775,-2.8169 19.7183,-3.38028 32.1126,-0.56338 12.3944,2.8169 10.7042,5.07041 39.4366,11.26758 87.8871,8.45069 87.8871,-87.32377 39.9999,-101.40825 -20.2817,-3.94366 -23.6619,-4.50704 -41.1267,-4.50704 0,-14.64786 -1.1267,-41.69006 -1.1267,-55.21116 -1.6902,-36.61965 -1.1268,-77.18295 -0.5634,-92.39419 5.6338,-104.78854 111.5491,-134.08426 123.38,-94.08433 65.9154,5.07041 134.0843,-5.6338 188.1687,-64.78861 -18.0282,8.45068 -58.0281,9.57744 -75.4928,6.76055 -37.7464,-6.19717 -51.2675,-17.46476 -77.7464,-18.02814 -15.2112,0 -28.7323,11.83097 -23.0985,29.29572 5.6338,16.90138 32.676,16.338 59.1548,13.5211 -14.6479,12.95772 -49.014,9.57745 -57.4647,4.50704 -17.4647,-10.70421 -24.2253,-56.33793 23.662,-56.33793 22.5351,-1.12675 92.3941,35.4929 150.9856,14.08449 -16.338,-1.69014 -32.1126,-4.50704 -46.1971,-7.88731 -95.7745,-24.22531 -189.2954,-63.09848 -182.5349,43.3802 -7.8873,7.32393 -45.0703,-4.50704 -52.9576,-23.09855 -16.338,10.14082 -14.6479,26.47882 -6.1972,41.69006 -27.6056,0 -26.4788,-2.8169 -49.014,-14.64786 -20.845,8.45069 -25.9154,36.61965 -12.9577,57.46468 -39.4366,-4.50703 -59.1548,-20.84503 -60.2816,-47.32385 -12.3943,6.19717 -24.7887,4.50703 -36.6196,2.81689 1.1267,-15.21124 0,-29.8591 -5.6338,-41.69006 -15.2113,20.28165 -36.6197,27.0422 -64.2253,21.40841 20.2817,-49.57737 -16.338,-71.54916 -69.859,-69.29564 -37.7464,0 -83.3801,49.01399 -148.7321,52.95764 36.6196,10.70421 76.0562,2.8169 116.6195,-14.64786 83.9435,-38.87316 102.535,70.42241 2.2535,48.45062 102.535,1.12675 55.7746,-69.29565 3.3803,-43.3802 -34.3661,13.5211 -61.4083,32.11261 -112.1125,21.40841 52.9577,54.64778 119.9998,65.91537 196.6194,30.42247 157.1828,19.1549 115.4927,182.53487 112.1124,252.39389 z m -81.6899,-650.13961 c -63.6619,46.19709 -90.1407,130.1406 -64.2253,196.61934 14.6479,38.30979 55.2112,41.12669 59.7182,67.60551 1.1268,27.60558 -32.1126,37.74641 -51.8309,30.98586 -65.9153,-38.87317 -81.1266,-104.78854 -71.5491,-160.56308 14.0844,-68.16889 72.1125,-124.50681 127.8871,-134.64763 z m 263.6614,251.26713 c -3.3802,24.2253 10.1409,41.69006 33.8028,41.69006 83.3801,-25.91544 107.042,-89.01392 79.9998,-181.40811 -15.7746,-38.87316 -28.1689,-58.02806 -48.4506,-74.36606 -17.4647,-19.71827 -64.2252,-38.87316 -63.0985,-42.25343 114.366,119.43639 29.2958,199.43624 -2.2535,256.33754 z m 24.2253,50.70413 c -21.4084,-2.8169 -32.676,-15.21124 -33.8027,-29.29572 -27.0422,-34.36613 -43.3802,-32.11262 -75.4928,-9.01407 -27.6056,-18.59151 -62.5351,-20.28165 -93.521,0 -39.4365,-18.59151 -70.4224,-14.08448 -77.1829,-1.69014 -5.6338,10.70421 2.2535,34.92951 -38.3098,40.56331 19.1549,9.57744 32.676,27.0422 24.7887,63.66185 12.3943,5.07041 33.8027,-5.07041 56.3379,-29.8591 4.507,13.5211 7.8873,29.29572 9.014,51.26751 14.0845,3.38027 24.7887,-5.63379 37.1831,-23.09855 -2.8169,27.60558 1.1267,54.08441 36.0562,60.84496 -3.3802,-25.35207 6.1972,-45.07034 27.6056,-59.15482 18.0282,15.77462 29.2957,20.84503 33.8028,15.77462 -0.5634,-19.71828 9.014,-35.49289 23.6619,-47.88724 5.0704,17.46476 19.1549,37.74641 43.9436,34.92951 -3.9437,-38.87316 6.1972,-55.77454 25.9154,-67.04212 z m -67.6055,227.04182 c 1.1268,-5.63379 3.3803,-12.95772 5.6338,-18.59151 10.7042,1.12676 32.676,-5.07041 52.3943,-19.71827 -5.0704,26.47882 -24.7887,40.5633 -58.0281,38.30978 z m 9.5775,196.05597 c -12.3944,-0.56338 -20.2817,-4.50703 -20.2817,-13.5211 0,-9.57745 11.2676,-15.21124 20.8451,-13.5211 -10.1409,-7.32393 -29.2958,-4.50704 -29.2958,13.5211 -0.5633,18.02813 18.5915,20.28165 28.7324,13.5211 z m -187.6053,-3.94365 c 9.5774,14.08448 30.9858,8.45068 30.9858,-10.70421 -0.5633,-17.46475 -19.1548,-21.40841 -31.5492,-9.57745 12.3944,-2.25351 21.4084,-0.56337 21.4084,10.14083 -0.5634,13.5211 -11.2676,12.95772 -20.845,10.14083 z"
       class="fil8"
       id="path62" />
  </g>
</svg>
