<?xml version="1.0" encoding="UTF-8" standalone="no"?>
<!-- Created with Inkscape (http://www.inkscape.org/) -->

<svg
   xmlns:dc="http://purl.org/dc/elements/1.1/"
   xmlns:cc="http://creativecommons.org/ns#"
   xmlns:rdf="http://www.w3.org/1999/02/22-rdf-syntax-ns#"
   xmlns:svg="http://www.w3.org/2000/svg"
   xmlns="http://www.w3.org/2000/svg"
   xmlns:sodipodi="http://sodipodi.sourceforge.net/DTD/sodipodi-0.dtd"
   xmlns:inkscape="http://www.inkscape.org/namespaces/inkscape"
   version="1.1"
   width="319.276"
   height="279.61874"
   id="svg2"
   xml:space="preserve"
   inkscape:version="0.48.4 r9939"
   sodipodi:docname="AJAX1.svg"><sodipodi:namedview
     pagecolor="#ffffff"
     bordercolor="#666666"
     borderopacity="1"
     objecttolerance="10"
     gridtolerance="10"
     guidetolerance="10"
     inkscape:pageopacity="0"
     inkscape:pageshadow="2"
     inkscape:window-width="1280"
     inkscape:window-height="1004"
     id="namedview9"
     showgrid="false"
     fit-margin-top="0.2"
     fit-margin-left="0.2"
     fit-margin-right="0.2"
     fit-margin-bottom="0.2"
     inkscape:zoom="1.7566779"
     inkscape:cx="165.87467"
     inkscape:cy="101.33249"
     inkscape:window-x="-8"
     inkscape:window-y="-8"
     inkscape:window-maximized="1"
     inkscape:current-layer="svg2"
     showguides="true"
     inkscape:guide-bbox="true" /><defs
     id="defs52" /><metadata
     id="metadata4"><rdf:RDF><cc:Work
         rdf:about=""><dc:format>image/svg+xml</dc:format><dc:type
           rdf:resource="http://purl.org/dc/dcmitype/StillImage" /><dc:title /></cc:Work></rdf:RDF></metadata><path
     style="fill:#cd1e00;fill-opacity:1;fill-rule:nonzero;stroke:none"
     d="m 159.638,0.2 c 3.75736,1.3e-4 7.51377,1.87636 9.71878,5.65625 l 148.18797,256.81249 c 1.08125,1.71125 1.53125,3.61374 1.53125,5.59375 0,6.12 -4.94627,11.15625 -11.15629,11.15625 l -296.56343,0 C 5.14627,279.41874 0.2,274.38249 0.2,268.26249 c 0,-1.98001 0.45,-3.8825 1.53125,-5.59375 L 149.91922,5.85625 C 152.12423,2.07636 155.88064,0.20013 159.638,0.2 z"
     id="path11"
     inkscape:connector-curvature="0"
     sodipodi:nodetypes="cccssssccc" /><path
     inkscape:connector-curvature="0"
     style="fill:#ffffff;fill-opacity:1;fill-rule:nonzero;stroke:none"
     d="m 159.638,56.12835 109.574,189.71997 -219.1475,0 z"
     id="path13"
     sodipodi:nodetypes="cccc" /><path
     inkscape:connector-curvature="0"
     style="fill:#000000;fill-rule:nonzero;stroke:none"
     d="m 100.86854,234.3915 c 4.17629,-0.48095 7.42936,-3.99458 7.49058,-8.28596 0,-0.0406 1.83713,0.0216 1.83713,0.0216 l 0,4.10919 c 0,0.53679 0.43492,0.97171 0.97171,0.97171 l 9.81111,0 c 0.53679,0 0.97171,-0.43492 0.97171,-0.97171 l 0,-4.75422 3.69435,0 c 0.93498,5.06865 5.37378,8.90944 10.71327,8.90944 5.3395,0 9.7783,-3.84079 10.71328,-8.90944 l 4.93935,0 c 0.93497,5.06865 5.37378,8.90944 10.71278,8.90944 5.33998,0 9.77879,-3.84079 10.71376,-8.90944 l 4.93935,0 c 0.93547,5.06865 5.37378,8.90944 10.71328,8.90944 5.33998,0 9.7783,-3.84079 10.71327,-8.90944 l 37.26822,0 0,-7.20748 -9.00348,0 0,-30.65679 -18.53003,0 0,-11.50964 8.32612,0 0,-5.22391 -43.58971,0 0,13.46873 -11.8804,0 c 0,-0.0137 0.004,-0.0274 0.004,-0.0416 l 0,-7.01844 c 0,-0.76747 -0.62103,-1.3885 -1.38801,-1.3885 l -5.42717,0 c -0.76649,0 -1.3885,0.62103 -1.3885,1.3885 l 0,7.01844 c 0,0.0142 0.004,0.0279 0.004,0.0416 l -8.41233,0 -0.10187,-9.42811 c -1.83664,-5.50994 -11.32598,-5.3875 -13.40751,0 l 0.10187,9.42811 -15.32545,0 0,-20.24424 -10.04033,0 0,20.16294 -6.6609,-0.0103 -0.30904,0.51034 -0.005,2.57425 c -1.761711,2.91561 -2.779457,6.33128 -2.779457,9.98596 0,3.62774 1.001094,7.02137 2.738805,9.92327 l -0.0039,1.91256 -13.550526,0 0,9.10682 -8.9594,0 0,7.20748 13.964384,0 c -0.0098,0.16652 -0.02547,0.33207 -0.02547,0.50153 0,4.34574 3.274615,7.92206 7.489593,8.40791 l -23.325885,0 0,5.14261 167.991802,0 0,-5.14261 -142.70879,0 z"
     id="path15" /><path
     inkscape:connector-curvature="0"
     style="fill:#000000;fill-rule:nonzero;stroke:none;stroke-width:0.10530099000000000;stroke-linecap:butt;stroke-linejoin:miter;stroke-dasharray:none"
     d="m 108.75094,162.31323 6.83036,0 1.34736,-3.95393 c 0.62936,0.26888 1.34785,0.44912 1.97672,0.44912 0.98836,0 1.97721,-0.35949 2.7868,-0.89922 1.34736,-0.98885 2.51547,-2.15647 3.50432,-3.59444 0.98836,-1.34834 1.61821,-2.96557 1.70783,-4.6734 1.25774,-0.26938 2.42585,-1.07799 3.14532,-2.24659 1.70735,0 3.41469,0.62789 4.76254,1.61821 1.16811,1.16762 2.51645,2.15646 3.95442,2.96459 0.98885,0.53973 2.15696,0.89922 3.32555,0.89922 1.97672,0 3.77419,-0.80861 5.12204,-2.15647 3.05618,3.95344 7.90835,6.29015 13.03087,6.29015 1.43797,0 2.87595,-0.17926 4.40354,-0.62838 5.57214,-0.98983 10.24457,-4.7645 12.40152,-10.15542 0.26938,-0.98885 0.45108,-2.06733 0.45108,-3.14581 0,-2.51694 -0.81008,-4.85217 -2.24805,-6.82987 2.96508,-1.97623 5.66176,-4.31342 7.90982,-7.10072 2.15499,-2.51497 3.41371,-5.74992 3.41371,-8.98535 0,-0.359 0,-0.62887 -0.0901,-0.98836 -0.26987,-4.04454 -2.87545,-7.63898 -6.73975,-9.25669 -0.53973,-5.39142 -2.69669,-10.425782 -6.20101,-14.558478 -3.50481,-4.134165 -8.62733,-6.470868 -14.02021,-6.470868 -1.34736,0 -2.78582,0.179747 -4.22281,0.450101 -7.54935,1.706855 -13.21063,7.997487 -14.10985,15.726085 0,0.27036 0,0.53973 0,0.71899 0,3.77467 1.9777,7.3696 5.12253,9.34632 1.5276,0.89873 3.14482,1.34834 4.85266,1.34834 0.35998,0 0.71947,-0.0896 1.07897,-0.0896 -0.89873,1.52564 -1.43846,3.32556 -1.43846,5.12204 0,0.17877 0,0.35802 0,0.62936 0.27035,3.14433 1.88758,6.02027 4.40403,7.81823 1.52711,1.1681 3.41518,2.06733 5.30227,2.42633 -2.87594,0.53875 -5.57214,2.24658 -7.45923,4.58328 -1.70734,-1.88709 -3.77418,-3.50431 -6.11088,-4.76254 -2.24659,-1.16859 -4.67292,-1.79746 -7.18937,-1.79746 -0.53973,0 -1.16859,0 -1.70734,0.0896 -2.24708,0.4501 -4.31391,1.52809 -5.93212,3.14531 -1.52711,0.18024 -3.05471,0.62985 -4.40305,1.43797 -1.25823,0.62887 -2.2461,1.61625 -2.87594,2.96557 -0.26938,0.7185 -0.53924,1.52809 -0.53924,2.33524 0,0.18023 0.0901,0.36096 0.0901,0.54021 -0.71899,-0.0896 -1.43797,-0.17925 -2.15696,-0.17925 -0.0901,0 -0.17975,0 -0.35949,0 -1.34786,0 -2.60608,0.44961 -3.68456,1.34834 -0.80812,0.71948 -1.25822,1.70735 -1.25822,2.87594 0,0.0891 0,0.26889 0,0.44912 -2.06684,1.34785 -3.32506,3.68456 -3.32506,6.19954 0,0.0901 0,0.17925 0.0896,0.26937 -3.14482,2.06782 -5.0324,5.57361 -5.0324,9.25767 0,0.44912 0,0.8091 0.0901,1.1686 z"
     id="path17" /><path
     inkscape:connector-curvature="0"
     style="fill:#ffffff;fill-rule:nonzero;stroke:#ffffff;stroke-width:0.0979544;stroke-linecap:butt;stroke-linejoin:miter;stroke-dasharray:none"
     d="m 109.51645,222.65216 c -1.37969,-3.98773 -5.16808,-6.85142 -9.62598,-6.85142 -4.844335,0 -8.898668,3.38236 -9.929148,7.91471 l 1.73918,0.10383 c 0.956525,-3.62872 4.261017,-6.30434 8.189968,-6.30434 3.5195,0 6.53748,2.14667 7.81578,5.20187 l 1.8102,-0.0647 z"
     id="path19" /><path
     inkscape:connector-curvature="0"
     style="fill:#ffffff;fill-rule:nonzero;stroke:#ffffff;stroke-width:0.0979544;stroke-linecap:butt;stroke-linejoin:miter;stroke-dasharray:none"
     d="m 126.59725,218.64386 c 1.78473,-3.58513 5.48495,-6.04721 9.76115,-6.04721 4.28257,0 7.98819,2.46992 9.76949,6.06387 l 1.90472,0.0539 c -1.88268,-4.59504 -6.40034,-7.83194 -11.67421,-7.83194 -4.56761,0 -8.56758,2.4278 -10.78086,6.06337 l -1.81068,0 0,-5.90028 -6.82596,0 0,1.74457 5.11175,0 0,5.90812 4.5446,-0.0544 z"
     id="path21" /><path
     inkscape:connector-curvature="0"
     style="fill:#ffffff;fill-rule:nonzero;stroke:#ffffff;stroke-width:0.0979544;stroke-linecap:butt;stroke-linejoin:miter;stroke-dasharray:none"
     d="m 152.93033,218.70949 c 1.77199,-3.6199 5.49181,-6.11284 9.79348,-6.11284 4.28551,0 7.99259,2.47286 9.77291,6.06925 l 1.87485,-0.0186 c -1.89983,-4.55978 -6.39936,-7.76484 -11.64727,-7.76484 -5.22391,0 -9.70581,3.17617 -11.62033,7.70215 l 1.82636,0.12489 z"
     id="path23" /><path
     inkscape:connector-curvature="0"
     style="fill:#ffffff;fill-rule:nonzero;stroke:#ffffff;stroke-width:0.48977202;stroke-linecap:butt;stroke-linejoin:miter;stroke-dasharray:none"
     d="m 199.96656,222.80203 c -0.35704,-5.69654 -5.08971,-10.20538 -10.87636,-10.20538 -4.27963,0 -7.98231,2.46649 -9.76557,6.05554 l -1.85427,-0.0676 c 1.91451,-4.52598 6.39593,-7.70215 11.61984,-7.70215 6.73289,0 12.23303,5.27435 12.5935,11.91762 l -1.71714,0.002 z"
     id="path25" /><path
     inkscape:connector-curvature="0"
     style="fill:#ffffff;fill-rule:nonzero;stroke:none;stroke-width:0.09795440000000000;stroke-linecap:butt;stroke-linejoin:miter;stroke-dasharray:none"
     d="m 202.51828,193.90352 -14.20339,0 0,-17.71309 14.20339,0 0,17.71309 z"
     id="path27" /></svg>