<?xml version="1.0" encoding="utf-8"?>
<!-- Generator: Adobe Illustrator 15.1.0, SVG Export Plug-In . SVG Version: 6.00 Build 0)  -->
<!DOCTYPE svg PUBLIC "-//W3C//DTD SVG 1.1//EN" "http://www.w3.org/Graphics/SVG/1.1/DTD/svg11.dtd">
<svg version="1.1" id="Layer_1" xmlns="http://www.w3.org/2000/svg" xmlns:xlink="http://www.w3.org/1999/xlink" x="0px" y="0px"
	 width="612px" height="792px" viewBox="0 0 612 792" enable-background="new 0 0 612 792" xml:space="preserve">
<path fill-rule="evenodd" clip-rule="evenodd" stroke="#000000" stroke-width="2.9999" stroke-linecap="round" stroke-linejoin="round" stroke-miterlimit="22.9256" d="
	M328.847,206.172L441,430.827c45,90.14,90,180.279,135,270.419l0,0c0,26.475-87.341,48.685-205.113,54.754v-60.248
	c0-34.664-29.198-63.026-64.886-63.026H306c-35.688,0-64.887,28.362-64.887,63.026V756C123.34,749.931,36,727.721,36,701.246l0,0
	l135-270.419c25.795-51.531,52.341-102.895,78.288-154.391c1.23-2.441,2.458-4.883,3.686-7.324l0,0l44.682-91.987L236.443,54.156
	l9.216-14.617l56.706,113.588l-1.968-113.995L319.584,36l-5.898,109.014l47.89-95.928l11.824,21.369l-55.855,113.078
	L328.847,206.172L328.847,206.172z M333.19,214.875l-4.344-8.703"/>
</svg>
