<?xml version="1.0" encoding="UTF-8" standalone="no"?>
<svg
   xmlns:dc="http://purl.org/dc/elements/1.1/"
   xmlns:cc="http://creativecommons.org/ns#"
   xmlns:rdf="http://www.w3.org/1999/02/22-rdf-syntax-ns#"
   xmlns:svg="http://www.w3.org/2000/svg"
   xmlns="http://www.w3.org/2000/svg"
   xmlns:sodipodi="http://sodipodi.sourceforge.net/DTD/sodipodi-0.dtd"
   xmlns:inkscape="http://www.inkscape.org/namespaces/inkscape"
   version="1.1"
   id="svg892"
   xml:space="preserve"
   width="391.92212"
   height="661.87146"
   viewBox="0 0 391.92212 661.87146"
   sodipodi:docname="light-bulb.svg"
   inkscape:version="1.0.1 (0767f8302a, 2020-10-17)"
   inkscape:export-filename="/home/tom/projects/gwt-app/src/assets/games/power-grid/icons/light-bulb.png"
   inkscape:export-xdpi="9.2827692"
   inkscape:export-ydpi="9.2827692"><metadata
     id="metadata898"><rdf:RDF><cc:Work
         rdf:about=""><dc:format>image/svg+xml</dc:format><dc:type
           rdf:resource="http://purl.org/dc/dcmitype/StillImage" /><dc:title></dc:title></cc:Work></rdf:RDF></metadata><defs
     id="defs896" /><sodipodi:namedview
     pagecolor="#ffffff"
     bordercolor="#666666"
     borderopacity="1"
     objecttolerance="10"
     gridtolerance="10"
     guidetolerance="10"
     inkscape:pageopacity="0"
     inkscape:pageshadow="2"
     inkscape:window-width="1848"
     inkscape:window-height="1016"
     id="namedview894"
     showgrid="false"
     fit-margin-top="0"
     fit-margin-left="0"
     fit-margin-right="0"
     fit-margin-bottom="0"
     inkscape:zoom="0.77552952"
     inkscape:cx="122.46172"
     inkscape:cy="373.28906"
     inkscape:window-x="72"
     inkscape:window-y="27"
     inkscape:window-maximized="1"
     inkscape:current-layer="g900" /><g
     id="g900"
     inkscape:groupmode="layer"
     inkscape:label="ink_ext_XXXXXX"
     transform="matrix(1.3333333,0,0,-1.3333333,-1.1574031e-4,746.58239)"><path
       d="m 130.486,209.63 1.877,0.057 v -0.132 c 0,0 -0.891,0.05 -1.877,0.075 m 18.503,75.368 c -4.943,0 -8.963,4.018 -8.963,8.96 0,4.941 4.02,8.961 8.963,8.961 4.94,0 8.961,-4.02 8.961,-8.961 0,-4.942 -4.021,-8.96 -8.961,-8.96 m 0,21.256 c -6.781,0 -12.296,-5.516 -12.296,-12.296 0,-6.78 5.515,-12.295 12.296,-12.295 6.779,0 12.296,5.515 12.296,12.295 0,6.78 -5.517,12.296 -12.296,12.296 m 81.553,-59.014 c 0.598,-19.944 -5.472,-28.04 -12.755,-36.706 l -0.02,-0.004 c -0.046,-0.01 -0.095,-0.018 -0.142,-0.03 l -4.881,3.222 -24.529,-0.834 v 5.003 h -9.486 c -0.477,18.87 -1.202,44.702 -1.629,46.621 -0.058,0.263 -0.115,0.567 -0.183,0.911 -0.529,2.743 -1.594,8.268 -6.57,16.438 0.031,0.027 0.066,0.051 0.096,0.078 6.004,5.092 9.057,10.785 9.904,18.461 0.694,6.282 -0.876,14.505 -4.623,16.839 -1.063,0.662 -2.267,0.85 -3.417,0.584 0.478,3.367 1.172,6.63 2,9.584 l 37.097,112.677 -3.167,1.042 -0.603,-1.83 c -5.287,2.351 -12.249,0.623 -18.479,-0.931 -4.238,-1.057 -8.246,-2.054 -11.063,-1.664 -0.701,0.095 -1.431,0.188 -2.174,0.279 0.642,5.858 0.823,12.42 0.835,12.842 l -1.668,0.045 c -0.001,-0.079 -0.108,-3.944 -0.434,-8.357 -0.879,0.932 -1.997,1.544 -3.123,1.601 -1.486,0.072 -2.747,-0.804 -3.457,-2.412 -0.37,-0.839 -0.555,-1.913 -0.561,-3.048 -6.191,0.207 -13.265,-0.246 -20.964,-2.264 -10.179,-2.67 -17.973,-3.059 -27.74,-1.187 -0.295,1.82 -0.893,3.545 -1.624,4.486 -1.303,1.677 -2.531,1.558 -3.14,1.337 -0.771,-0.277 -1.347,-0.963 -1.737,-1.819 l -2.084,5.675 -1.566,-0.575 2.719,-7.406 c -10.03,2.393 -26.0967,5.215 -35.0142,1.524 l -1.5715,-0.65 49.3087,-112.708 0.062,-0.126 c 0.485,-0.894 1.053,-3.949 1.522,-7.964 -3.281,-1.496 -6.353,-4.024 -7.621,-9.475 -2.298,-9.862 2.258,-20.256 10.69,-25.958 -4.341,-5.204 -7.154,-14.618 -7.154,-17.775 0,-3.277 1.102,-47.248 1.344,-56.905 -0.857,0.04 -1.708,0.083 -2.549,0.128 v 11.902 h -3.033 c -1.459,0 -1.597,-4.377 -1.597,-4.377 0,0 -18.827,0.208 -20.286,0 -0.9824,-0.141 -5.5578,-2.171 -8.4398,-3.482 -0.1922,0.052 -0.3848,0.106 -0.5684,0.161 -7.9082,8.483 -14.625,16.178 -15.0281,36.523 -0.5602,28.327 -13.352,51.522 -40.0207,89.787 C 3.59609,376.421 1.81719,435 27.0922,478.957 c 27.7879,48.327 71.9027,73.786 124.2408,71.688 l 0.14,-0.002 c 41.434,0.046 84.285,-26.448 111.811,-69.244 27.428,-42.645 28.567,-101.239 2.763,-142.491 -24.732,-39.544 -36.354,-63.347 -35.505,-91.668 M 211.259,127.729 c -26.037,-7.109 -88.613,-8.507 -114.693,-6.279 -0.068,0.724 -0.2285,1.406 -0.473,2.03 6.349,-0.369 17.11,-0.689 29.952,-0.689 26.091,0 60.748,1.322 84.358,6.248 0.254,-0.461 0.548,-0.894 0.856,-1.31 m -121.236,2.618 c 0.6489,0.993 1.37,1.717 2.1317,2.484 0.4703,0.471 0.9766,0.991 1.4574,1.575 7.5429,-0.765 18.8459,-1.179 31.7359,-1.179 31.324,0 71.933,2.445 90.273,8.211 0.128,-0.219 0.215,-0.426 0.242,-0.613 0.075,-0.513 -0.105,-0.858 -2.226,-2.226 -1.726,-1.111 -4.589,-2.964 -4.256,-6.365 -11.76,-2.428 -26.243,-3.963 -41.012,-4.89 l -0.582,4.116 c 0,0 -13.786,-1.047 -26.045,-1.307 -10.737,-0.226 -20.563,0.277 -20.563,0.277 l 0.587,-4.308 c -13.695,0.079 -24.457,0.517 -29.0254,0.933 -1.2519,1.067 -2.5711,2.522 -2.7176,3.292 m 5.2254,48.465 c 5.7326,-0.328 15.7626,-0.604 27.9126,-0.604 27.387,0 65.519,1.403 89.361,6.752 0.037,-0.511 0.152,-1.045 0.364,-1.604 -30.219,-7.737 -93.867,-8.305 -117.5797,-6.107 0.0328,0.501 0.0121,1.022 -0.0579,1.563 m 119.5756,-2.343 c -1.382,-0.571 -3.276,-1.35 -4.257,-3.413 -0.569,-1.195 -0.864,-2.283 -0.961,-3.278 -11.725,-2.634 -26.887,-4.219 -42.439,-5.114 v 3.418 c 0,0 -13.372,-0.985 -26.572,-1.146 -12.483,-0.151 -24.834,0.522 -24.834,0.522 v -3.68 c -11.724,0.219 -20.5126,0.685 -23.6829,1.085 L 92.066,164.77 c -0.5555,0.449 -1.1015,0.829 -1.5754,1.155 -0.5797,0.403 -1.5519,1.074 -1.6777,1.363 0,10e-4 -0.034,0.2 0.1351,0.7 0.2313,0.269 0.8247,0.778 1.2688,1.16 0.5367,0.461 1.2066,1.041 1.8824,1.732 7.4235,-0.854 20.1658,-1.377 35.0408,-1.377 29.933,0 68.447,2.117 89.348,7.912 -0.153,-0.257 -0.514,-0.473 -1.664,-0.946 M 94.9125,161.25 c 6.6125,-0.497 19.6365,-0.988 35.1895,-0.988 25.662,0 58.171,1.342 79.977,6.205 0.198,-0.481 0.442,-0.926 0.719,-1.336 -26.672,-7.096 -90.007,-8.403 -115.2742,-6.059 -0.1082,0.806 -0.3211,1.53 -0.6113,2.178 M 210.864,146.996 c -26.582,-7.1 -89.814,-8.417 -115.1964,-6.092 -0.05,0.509 -0.1473,0.985 -0.2813,1.432 6.8847,-0.469 19.3787,-0.911 34.1487,-0.911 26.018,0 59.082,1.375 80.885,6.406 0.133,-0.29 0.282,-0.567 0.444,-0.835 m -1.056,4.117 c -11.794,-2.731 -27.232,-4.365 -43.081,-5.28 v 4.134 l -49.856,-1.058 0.294,-4.004 c -10.972,0.174 -19.6236,0.567 -23.9349,0.943 -0.7535,0.77 -1.55,1.38 -2.1988,1.87 -1.3344,1.013 -1.7895,1.448 -1.9192,1.856 0.3668,0.305 1.0145,0.73 1.4781,1.034 0.8391,0.549 1.8106,1.186 2.6739,1.99 7.5399,-0.789 18.9899,-1.216 32.0839,-1.216 31.609,0 72.671,2.489 90.768,8.367 -0.155,-0.797 -0.887,-1.612 -2.583,-3.11 -1.504,-1.329 -3.466,-3.071 -3.725,-5.526 m -20.134,58.442 10.003,1.458 1.397,-3.046 c -3.46,-0.399 -7.07,-0.751 -10.788,-1.059 z m -10.852,4.629 1.682,0.581 v -8.548 c -0.494,-0.029 -0.989,-0.056 -1.485,-0.085 -0.056,2.333 -0.121,5.064 -0.197,8.052 m -12.12,-25.339 c 0.258,2.466 0.133,6.981 0.002,10.038 17.845,0.571 35.25,2 48.765,4.418 0.447,-4.977 0.742,-9.982 0.603,-11.859 -0.197,-0.205 -0.405,-0.411 -0.621,-0.621 -0.512,-0.506 -1.261,-1.251 -1.876,-2.194 -12.557,-3.025 -29.588,-4.85 -46.982,-5.89 -0.061,0.653 -0.079,1.695 0.134,3.199 -15.029,-2.362 -53.191,-1.459 -53.191,-1.459 v -2.892 c -8.615,0.113 -15.4622,0.361 -19.3907,0.631 -1.089,1.97 -3.432,3.568 -5.2644,4.574 0.0832,4.926 -0.2825,11.632 -0.5782,16.076 6.0512,-1.311 14.4823,-2.345 24.3043,-3.069 l 0.213,-11.364 c 0,0 31.79,-2.088 53.882,0.412 m -32.61,88.941 c 0.102,-0.04 0.203,-0.083 0.307,-0.12 1.511,-0.542 2.991,-0.987 4.445,-1.361 l 0.819,-58.414 h -7.3 v -8.204 l 7.41,0.226 0.064,-4.562 c -3.76,0.055 -7.458,0.144 -11.052,0.269 -0.025,0.928 -0.059,2.277 -0.1,3.957 l 1.801,0.053 c -0.634,0.019 -1.303,0.025 -1.802,0.004 -0.351,13.969 -1.253,50.27 -1.253,53.132 0,2.974 3.691,12.561 6.661,15.02 M 113.451,435.39 c -0.022,0.006 -0.046,0.011 -0.069,0.016 0.021,1.555 0.637,2.837 1.223,3.048 0.459,0.163 1.034,-0.499 1.262,-0.793 0.525,-0.673 0.931,-1.842 1.184,-3.105 -1.171,0.25 -2.363,0.522 -3.6,0.834 m 3.281,-6.231 c -0.281,-0.27 -0.896,0.144 -1.269,0.44 l -0.755,2.06 c 0.882,-0.204 1.754,-0.396 2.607,-0.568 -0.059,-0.893 -0.243,-1.611 -0.583,-1.932 m 53.233,2.093 c 0.433,-0.329 1.115,-0.695 2.006,-0.695 0.373,0 0.786,0.069 1.232,0.227 -0.11,-0.394 -0.225,-0.748 -0.348,-1.048 -1.736,-4.245 -12.389,-41.405 -14.329,-48.192 -2.828,0.383 -6.587,0.508 -11.558,0.221 -5.76,-0.334 -9.821,-0.826 -13.454,-1.338 l -17.247,46.984 c 0.088,-0.012 0.173,-0.016 0.254,-0.016 0.631,0 1.081,0.292 1.361,0.558 0.62,0.59 0.955,1.624 1.074,2.831 9.881,-1.78 18.128,-1.326 28.435,1.378 7.579,1.986 14.554,2.382 20.629,2.132 0.408,-1.259 1.057,-2.366 1.945,-3.042 m 4.298,5.916 c -1.611,0.173 -3.308,0.316 -5.087,0.41 -0.002,0.927 0.133,1.798 0.421,2.447 0.433,0.983 1.042,1.464 1.846,1.42 1.172,-0.059 2.454,-1.226 2.981,-2.68 -0.05,-0.536 -0.103,-1.069 -0.161,-1.597 m -0.585,-4.233 c -1.594,-1.191 -2.425,-0.568 -2.706,-0.356 -0.474,0.36 -0.856,0.939 -1.146,1.623 1.39,-0.086 2.724,-0.206 4.007,-0.341 -0.049,-0.319 -0.101,-0.627 -0.155,-0.926 m -28.18,-215.044 -0.801,57.316 c 1.646,-0.194 3.248,-0.294 4.796,-0.294 1.255,0 2.471,0.065 3.655,0.177 l 2.682,-57.199 h -1.375 z m 10.682,-7.479 0.238,-5.06 c -3.6,-0.05 -7.191,-0.068 -10.744,-0.054 l -0.065,4.792 z m 6.679,79.447 c -1.049,-3.604 -3.201,-6.424 -5.942,-8.221 -3.962,-1.002 -9.043,-1.38 -15.161,-0.037 -4.284,2.421 -6.529,6.293 -7.867,9.926 -1.541,-0.814 -3.103,-0.992 -4.581,-0.81 0.812,5.444 0.71,13.468 0.165,20.497 0.724,0.258 1.527,0.507 2.414,0.775 2.478,0.751 5.287,1.601 7.881,3.399 1.241,0.86 2.32,1.714 3.274,2.467 4.074,3.218 5.041,3.981 9.832,0.266 5.613,-4.356 11.074,-6.786 15.457,-7.059 -0.218,-5.522 0.283,-11.487 2.342,-16.767 -2.791,-2.607 -5.869,-4.368 -7.814,-4.436 m 10.207,-78.934 c 0.042,-1.73 0.084,-3.43 0.122,-5.086 -3.615,-0.16 -7.271,-0.285 -10.935,-0.375 l -0.239,5.124 z m -1.541,0.088 v 6.878 h -9.854 l -2.73,58.233 c 2.402,0.639 4.589,1.503 6.533,2.514 4.324,-7.147 5.22,-11.759 5.714,-14.321 0.073,-0.38 0.139,-0.718 0.203,-1.013 0.351,-2.483 1.123,-29.956 1.672,-52.291 z m 0.172,100.326 c 0.453,0.114 0.895,0.252 1.307,0.436 0.888,-1.551 2.087,-5.803 1.543,-10.735 -0.109,-1.001 -0.266,-1.945 -0.463,-2.851 -0.263,-0.376 -0.542,-0.741 -0.83,-1.104 -1.352,4.3 -1.773,9.251 -1.557,14.254 m -0.578,17.04 c -0.612,-2.176 -1.669,-6.417 -2.306,-11.533 -1.941,0.078 -4.946,0.987 -8.763,3.369 l -1.637,52.416 -6.666,-0.208 1.485,-47.551 c -3.423,1.871 -6.062,1.893 -8.366,1.036 l -1.816,46.481 c 7.202,-0.183 20.131,0.086 22.588,2.778 1.308,1.431 1.608,4.707 -5.457,6.103 2.037,7.116 12.551,43.763 14.218,47.835 0.435,1.066 0.794,2.69 1.087,4.567 0.735,-0.089 1.457,-0.18 2.15,-0.276 3.464,-0.476 7.768,0.598 12.325,1.734 6.108,1.524 12.4,3.085 16.623,0.975 z m -44.997,-36.724 c -0.036,0.015 -0.072,0.033 -0.106,0.049 -2.41,4.026 -3.355,8.828 -2.274,13.472 0.501,2.15 1.305,3.469 2.527,4.426 0.439,-6.242 0.536,-13.165 -0.147,-17.947 M 79.248,434.897 c 6.7485,1.921 18.7305,0.956 33.387,-2.74 0.043,-0.012 0.083,-0.02 0.124,-0.031 L 131.858,380.1 c -3.687,-1.314 -7.365,-7.574 7.85,-7.574 l -3.332,-0.129 1.982,-50.799 c -0.604,-0.468 -1.233,-0.941 -1.914,-1.414 -1.839,-1.274 -3.98,-1.924 -6.248,-2.609 -0.431,-0.13 -0.873,-0.266 -1.32,-0.408 -0.498,3.963 -1.123,7.056 -1.748,8.286 z M 94.4758,112.912 c -0.2973,0.37 -0.5711,0.722 -0.8121,1.044 0.3429,0.298 0.6609,0.626 0.9519,0.979 7.5254,-0.703 18.3984,-1.083 30.7324,-1.083 31.274,0 71.801,2.438 90.183,8.184 -0.559,-0.724 -1.684,-1.865 -3.733,-3.315 l -0.022,0.09 c -34.327,-8.615 -99.029,-7.618 -117.3002,-5.899 M 151.388,86.3422 c -1.277,4.8789 0.917,12.084 5.225,22.6578 18.245,0.777 36.925,2.441 51.428,5.528 l 0.327,-1.005 c 1.603,-4.926 -13.36,-19.355 -20.923,-24.9308 -5.925,-1.218 -20.689,-2.1524 -36.057,-2.25 m -30.671,1.248 c -6.952,4.861 -17.094,14.8778 -23.194,21.7368 7.153,-0.497 18.266,-0.879 31.142,-0.891 2.197,-4.559 8.266,-16.129 15.838,-22.0821 -8.605,0.093 -17.017,0.4723 -23.786,1.2363 M 141.085,74.925 c -0.854,0.2391 -3.155,1.4082 -5.601,2.716 1.655,-0.0168 3.296,-0.0258 4.919,-0.0258 10.816,0 20.93,0.3899 30.799,0.9547 l -5.388,-3.6449 z m 152.812,335.484 c -0.653,27.034 -8.787,54.007 -22.901,75.951 -29.143,45.308 -74.867,73.452 -119.329,73.452 h -0.09 C 95.7309,562.018 48.6926,534.917 19.1426,483.527 6.13711,460.91 -0.642188,433.565 0.0480469,406.531 0.7625,378.649 9.00781,352.621 23.8949,331.261 c 25.5914,-36.72 37.8617,-58.763 38.3754,-84.726 0.4699,-23.686 9.3215,-33.806 16.7063,-41.754 0.3015,-4.163 0.9726,-14.393 0.6734,-19.696 l -0.2289,-4.058 3.7266,-1.623 c 1.1105,-0.483 2.2695,-1.196 2.8578,-1.628 -0.2328,-0.28 -0.7258,-0.779 -1.7617,-1.671 -1.4114,-1.21 -3.0075,-2.582 -3.8125,-4.707 -2.9,-7.666 2.7296,-11.554 4.8484,-13.018 0.0766,-0.05 0.1484,-0.101 0.2152,-0.148 -2.0355,-1.333 -5.3523,-3.554 -5.5801,-7.757 -0.3031,-5.604 3.5204,-8.505 5.5739,-10.061 0.3023,-0.23 0.5363,-0.412 0.7148,-0.556 -0.2008,-0.209 -0.4187,-0.43 -0.5488,-0.56 -0.9445,-0.949 -2.2359,-2.247 -3.4383,-4.137 -1.2969,-2.035 -1.6875,-4.393 -1.1348,-6.816 0.7282,-3.191 3.0391,-5.869 5.0282,-7.667 l -1.6043,-0.334 -0.9496,-3.435 C 82.7117,113.851 83.1188,110.856 95.9453,97.5801 98.4398,95 106.809,86.5109 114.032,81.1152 c 0.156,-2.9543 2.537,-5.3742 5.553,-5.5152 1.487,-0.0691 2.954,-0.1301 4.41,-0.1828 0.42,-0.234 0.879,-0.4922 1.333,-0.7473 11.327,-6.3449 13.501,-7.248 15.58,-7.248 h 0.069 c 1.06,-2.3 3.385,-3.8887 6.044,-3.8887 h 14.728 c 2.658,0 4.983,1.5887 6.043,3.8887 h 0.319 l 13.726,9.2851 c 0.019,0.011 0.034,0.0211 0.049,0.034 2.113,0.143 4.223,0.2899 6.33,0.4399 2.583,0.1871 4.68,2.0593 5.249,4.489 5.337,4.1172 22.615,18.2571 24.042,29.8561 4.28,3.098 6.711,6.124 7.422,9.232 0.509,2.227 0.145,4.396 -1.052,6.276 -1.187,1.866 -2.597,3.313 -3.732,4.475 -0.079,0.083 -0.162,0.167 -0.244,0.252 2.422,1.727 5.827,4.92 5.038,10.377 -0.549,3.793 -3.01,6.255 -4.809,8.052 -0.006,0.007 -0.014,0.017 -0.022,0.024 2.523,2.27 7.112,6.954 4.408,14.099 -0.879,2.322 -2.68,3.653 -4.184,4.617 1.988,1.097 4.424,3.084 5.238,6.898 0.718,3.37 -0.206,6.809 -2.496,9.602 2.562,2.31 2.42,6.377 1.928,13.596 -0.11,1.635 -0.253,3.425 -0.426,5.332 7.577,8.995 15.841,19.494 15.132,43.157 -0.779,25.957 10.381,48.585 34.117,86.53 13.803,22.074 20.745,48.478 20.072,76.364"
       style="fill:#100f0d;fill-opacity:1;fill-rule:nonzero;stroke:none;stroke-width:0.1"
       id="path954" /></g></svg>
