<?xml version="1.0"?>
<svg xmlns:rdf="http://www.w3.org/1999/02/22-rdf-syntax-ns#" xmlns="http://www.w3.org/2000/svg" xmlns:cc="http://web.resource.org/cc/" xmlns:xlink="http://www.w3.org/1999/xlink" xmlns:dc="http://purl.org/dc/elements/1.1/" xmlns:svg="http://www.w3.org/2000/svg" id="svg2" viewBox="0 0 200 131.47" version="1.0">
  <defs id="defs4">
    <linearGradient id="linearGradient3133">
      <stop id="stop3135" stop-color="#e6ddc7" offset="0"/>
      <stop id="stop3137" stop-color="#beb08b" offset="1"/>
    </linearGradient>
    <filter id="filter3215" y="-.14327" width="1.1165" height="1.2865" x="-.058241">
      <feGaussianBlur id="feGaussianBlur3217" stdDeviation="25.126375"/>
    </filter>
    <filter id="filter3347" y="-.17316" width="1.2661" height="1.3463" x="-.13306">
      <feGaussianBlur id="feGaussianBlur3349" stdDeviation="9.0990021"/>
    </filter>
    <filter id="filter3437" y="-.11218" width="1.1712" height="1.2244" x="-.085576">
      <feGaussianBlur id="feGaussianBlur3439" stdDeviation="8.1566192"/>
    </filter>
    <linearGradient id="linearGradient2220" y2="640.43" xlink:href="#linearGradient3133" gradientUnits="userSpaceOnUse" x2="762.92" y1="354" x1="186.39"/>
    <linearGradient id="linearGradient2222" y2="276.31" xlink:href="#linearGradient3133" gradientUnits="userSpaceOnUse" x2="616.92" gradientTransform="matrix(1 0 0 -1 5.7798e-8 726.89)" y1="102.5" x1="357.14"/>
    <linearGradient id="linearGradient2224" y2="276.31" xlink:href="#linearGradient3133" gradientUnits="userSpaceOnUse" x2="616.92" y1="102.5" x1="357.14"/>
    <radialGradient id="radialGradient2226" gradientUnits="userSpaceOnUse" cy="387.27" cx="312.98" gradientTransform="matrix(1.2494 .87307 -.61924 .88613 161.76 -221.34)" r="95.314">
      <stop id="stop3253" stop-color="#ff6262" offset="0"/>
      <stop id="stop3351" stop-color="#a00" offset=".26667"/>
      <stop id="stop3255" stop-color="#4c0000" offset="1"/>
    </radialGradient>
  </defs>
  <g id="layer1" transform="translate(77.477 -517.67)">
    <g id="g2199" transform="matrix(.23009 0 0 .23009 -59.65 499.79)">
      <rect id="rect2160" stroke-linejoin="round" style="color:#000000" rx="54.286" ry="54.286" height="565.71" width="862.86" stroke="#947f29" stroke-linecap="round" y="80.934" x="-74.286" stroke-width="5" fill="url(#linearGradient2220)"/>
      <path id="path3221" stroke-linejoin="round" style="color:#000000" d="m-20 645.95c-30.074 0-54.281-24.2-54.281-54.28v-41.78l399.28-244c23.35-14.27 60.93-14.27 84.28 0l379.28 231.78v54c0 30.08-24.2 54.28-54.28 54.28h-754.28z" stroke="#947f29" stroke-linecap="round" stroke-width="3" fill="url(#linearGradient2222)"/>
      <path id="path3169" filter="url(#filter3215)" style="color:#000000" d="m-27.767 157.25l-46.514 19.75 399.28 244c23.35 14.27 60.93 14.27 84.28 0l379.28-231.78-57.53-16.06c-192.51-72.42-564.38-82.43-758.8-15.91z"/>
      <path id="rect3141" stroke-linejoin="round" style="color:#000000" d="m-20 80.938c-30.074 0-54.281 24.202-54.281 54.282v41.78l399.28 244c23.35 14.27 60.93 14.27 84.28 0l379.28-231.78v-54c0-30.08-24.2-54.282-54.28-54.282h-754.28z" stroke="#947f29" stroke-linecap="round" stroke-width="6.3908" fill="url(#linearGradient2224)"/>
      <path id="path3371" filter="url(#filter3437)" d="m308.87 398.1c-2.81-18.24-2.65-37.62 20.12-42.44 14.77-3.13 20.26 8.58 31.26 14.73 14.57 8.14 23.01-14.85 35.52-17.53 17.21-3.68 16.88 22.43 21.26 33.54 4.68 11.89 30.73 9.94 40.26 20.83 14.23 16.26-10.69 32.13-14.25 43.7-7.31 23.76 6.24 33.67-26.26 41.92-17.21 4.37-38.41-10.36-55.53-14.23-22.66-5.11-29.31 19.31-51.77 19.31-31.35 0-8.37-41.13-11.25-54.62-3.22-15.03-39.67-12.67-22.76-33.28 11.12-13.56 28.05-0.61 33.4-11.93z" fill-rule="evenodd"/>
      <path id="path3245" d="m303.87 393.1c-2.81-18.24-2.65-37.62 20.12-42.44 14.77-3.13 20.26 8.58 31.26 14.73 14.57 8.14 23.01-14.85 35.52-17.53 17.21-3.68 16.88 22.43 21.26 33.54 4.68 11.89 30.73 9.94 40.26 20.83 14.23 16.26-10.69 32.13-14.25 43.7-7.31 23.76 6.24 33.67-26.26 41.92-17.21 4.37-38.41-10.36-55.53-14.23-22.66-5.11-29.31 19.31-51.77 19.31-31.35 0-8.37-41.13-11.25-54.62-3.22-15.03-39.67-12.67-22.76-33.28 11.12-13.56 28.05-0.61 33.4-11.93z" fill="url(#radialGradient2226)" fill-rule="evenodd"/>
      <path id="path3249" filter="url(#filter3347)" d="m320.11 400.62c-2.02-13.18-1.91-27.19 14.43-30.67 10.6-2.26 14.53 6.2 22.43 10.65 10.45 5.88 16.5-10.74 25.48-12.67 12.35-2.66 12.11 16.21 15.25 24.23 3.36 8.6 22.05 7.19 28.89 15.06 10.2 11.75-7.68 23.22-10.23 31.58-5.24 17.17 4.48 24.33-18.84 30.3-12.35 3.16-27.55-7.49-39.83-10.28-16.26-3.7-21.03 13.95-37.14 13.95-22.5 0-6.01-29.73-8.08-39.48-2.31-10.86-28.46-9.15-16.33-24.05 7.98-9.8 20.13-0.43 23.97-8.62z" fill="#a00" fill-rule="evenodd"/>
      <path id="path3353" d="m14.285 118.56c-6.3018 6.68-9.2796 15.5-12.045 24.06-1.4298 6.73-1.9385 13.97-0.2088 20.62 9.8398-11.02 17.631-23.7 26.848-35.26 11.932-11.34 9.323 4.29 7.147 12.62-1.412 4.73-5.859 18.02 1.901 16.23 2.522-1.95 4.429-4.49 6.528-6.85h0.193c-1.658 2.49-2.875 5.19-5.549 6.85-9.599 3.4-4.546-10.8-5.039-16.23 0.605-6.92 6.851-23.64-0.786-12.62-9.112 11.53-16.563 24.32-26.356 35.26-16.455 3.51-10.648-8.57-8.3927-20.62 2.8053-8.68 5.7224-17.98 12.924-24.06h2.836z"/>
      <path id="path3355" d="m40.367 151.11c3.291-0.67 4.565 1.67 6.613 3.72-0.386-4.52 5.585-10.86 12.118-10.85 3.368 4.86 2.259 2.74 6.032 0.33 3.572-2.68 7.605-4.48 11.592-6.39 4.079-3.68 8.039-2.84 11.055 1.51 3.19 2.54 5.016 1 11.528 2 2.145 7.31 5.075 6.05 5.615 6.36 5.12-3.17 10.26-2.73 14.81 0.86h-1.28c-8.03-2.17-2.8-4.18-9.67-0.86-8.39 1.21-10.276 1.73-13.417-6.36-3.674-0.12-7.404-0.71-10.847-2-2.696-4.62 0.353-4.87-6.622-1.51-3.881 1.69-7.742 3.18-10.685 6.39-3.919 3.25-9.258 4.98-11.287-0.33-0.011 0.03-4.226 11.34-12.656 10.85-2.537-3.19-2.585-2.91-0.253-3.72h-2.646z"/>
      <path id="path3357" d="m115.44 143.3c3.32 2.38 2.54 1.15 6.41-0.45 2.99 0.41 6.3 0.32 8.86 1.92 6.85-3.37 12.63-2.81 18.03 2.16 1.18-1.36 9.85-3.99 18-3.34 6.84 5.93 0.86 6.26 9.26 0.2 9.5-7.66 11.84-2.59 13.16 6.76 2.03 8.62 6.15-0.12 14.09-6.79 4.53-5.65 10.86-7.35 10.25 1.58 0.76 8.31-0.55 10.95 3.93 8.85 7.62-5.27 11.78-12.69 21.41-11.64 0.99 2.29 1.92 4.68 3.5 6.61 4.08-1.39 8.34-2.33 12.63-2.67 6.48-2.92 12.98-4.17 19.58-0.96 1.09 3.25 1.01 0.18 1.51 0.28h0.61c-14.96 0.7 3.49 0.15-6.4-0.28-5.12-2.19-1.38-2.34-10.18 0.96-12.84 0.88-2.76-0.94-12.71 2.67-8.97 1.02-11.59 2.25-13.13-6.61 7.73-1.33-9.73 8.39-12.39 11.64-9.42 4.64-14.37 0.77-12.91-8.85 0.7-7.46 7.04-8.67-1.6-1.58-5.05 5.77-19.85 19.6-24.71 6.79-0.45-9.36 6.82-13.62-0.81-6.76-6.65 4.75-15.05 7.5-20.5-0.2 7.18-1.35-14.72 5.69-18.08 3.34-5.81-5.98 0.08-4.5-7.88-2.16-9.97 0.64-9.6-0.84-10.07-1.92-3.59 1.24-9.27 3.94-11.44 0.45h1.58z"/>
      <path id="path3359" d="m311.55 130.27c-3.69 5.32-5.49 10.31-4.1 16.16-7.27-3.34 10.2-7.97 15.61-7.16-1.79 7.02 4.59 15.32-1.33 13.67 9.28-5.57 13.55-15.05 24.69-12-3.59 6.54 0.11 18.83-4.65 18.18 12.2-7.1 21.26-18.29 32.28-26.96 15.44 0.99 3.73 17.07 0.67 27.61-3.65 17.96-2.36 9.42 8.29-1.57 13.4-13.96 25.14-29.62 39.23-42.91 14.79 0.45 1 19.03-2.66 28.6-1.25 10.03-9.26 20.11-2.27 16.57 8.05-6.41 11.76-7.75 20.78-5.35 2.66 2.34-1.64 1.23 6.83-1.9 10.35 0.88 11.31 1.37 16.21 0.39 8.96-1.69 18.22-0.39 23.73-1.05 9.5-2.66 18.96-0.45 28.43 0.46 4.15-1.13 15.84-2.91 22.87-3.87 5.5-0.59 11.02-1.01 16.53-1.48h0.72c-3.87 0.72-7.76 1.17-11.69 1.48-11.16 1.41-22.2 4.09-33.51 3.87-8.32-0.76-10.32-2.78-18.46-0.46-12.67 1.62-14.42-0.96-23.28 1.05-3.83 0.81-24.37 1.68-15.76-0.39-5.74 2.03-12.9 5.87-18.19 1.9 8.92-4.77-5.99 1.46-9.61 5.35-17.15 8.87-14.8-5.67-9.85-16.57 3.93-10.42 9.27-28.56 15.73-28.6-14.12 13.19-25.49 29.01-38.88 42.91-7.06 7.41-29.98 23.98-21.9 1.57 3.24-9.9 7.71-27.31 12.56-27.61-11.3 8.27-19.78 19.99-32.05 26.96-16.76 0.82-10.86-5.65-8.16-18.18 14.67-4.02-8.55 7.51-11.73 12-15.01 1.55-12.33-1.24-12.09-13.67 14.1-2.73-10.68 9.62-15.03 7.16-0.51-5.82 1.55-11.39 5.83-16.16h4.21z"/>
    </g>
  </g>
  <metadata>
    <rdf:RDF>
      <cc:Work>
        <dc:format>image/svg+xml</dc:format>
        <dc:type rdf:resource="http://purl.org/dc/dcmitype/StillImage"/>
        <cc:license rdf:resource="http://creativecommons.org/licenses/publicdomain/"/>
        <dc:publisher>
          <cc:Agent rdf:about="http://openclipart.org/">
            <dc:title>Openclipart</dc:title>
          </cc:Agent>
        </dc:publisher>
        <dc:title>Busta - mail</dc:title>
        <dc:date>2007-09-05T15:26:45</dc:date>
        <dc:description>clip art, clipart, how i did it, icon, icon, image, media, png, public domain, svg, tool, tool, </dc:description>
        <dc:source>http://openclipart.org/detail/5251/busta---mail-by-ernes</dc:source>
        <dc:creator>
          <cc:Agent>
            <dc:title>ernes</dc:title>
          </cc:Agent>
        </dc:creator>
        <dc:subject>
          <rdf:Bag>
            <rdf:li>clip art</rdf:li>
            <rdf:li>clipart</rdf:li>
            <rdf:li>how i did it</rdf:li>
            <rdf:li>icon</rdf:li>
            <rdf:li>image</rdf:li>
            <rdf:li>media</rdf:li>
            <rdf:li>png</rdf:li>
            <rdf:li>public domain</rdf:li>
            <rdf:li>svg</rdf:li>
            <rdf:li>tool</rdf:li>
          </rdf:Bag>
        </dc:subject>
      </cc:Work>
      <cc:License rdf:about="http://creativecommons.org/licenses/publicdomain/">
        <cc:permits rdf:resource="http://creativecommons.org/ns#Reproduction"/>
        <cc:permits rdf:resource="http://creativecommons.org/ns#Distribution"/>
        <cc:permits rdf:resource="http://creativecommons.org/ns#DerivativeWorks"/>
      </cc:License>
    </rdf:RDF>
  </metadata>
</svg>
