<?xml version="1.0" encoding="UTF-8" standalone="no"?>
<svg
   xmlns:dc="http://purl.org/dc/elements/1.1/"
   xmlns:cc="http://creativecommons.org/ns#"
   xmlns:rdf="http://www.w3.org/1999/02/22-rdf-syntax-ns#"
   xmlns:svg="http://www.w3.org/2000/svg"
   xmlns="http://www.w3.org/2000/svg"
   xmlns:sodipodi="http://sodipodi.sourceforge.net/DTD/sodipodi-0.dtd"
   xmlns:inkscape="http://www.inkscape.org/namespaces/inkscape"
   id="svg2"
   viewBox="0 0 251 251"
   version="1.0"
   sodipodi:version="0.32"
   inkscape:version="1.0.1 (0767f8302a, 2020-10-17)"
   width="760"
   height="744.09003"
   sodipodi:docname="coin.svg"
   inkscape:output_extension="org.inkscape.output.svg.inkscape"
   inkscape:export-filename="/home/tom/projects/gwt-app/src/assets/games/power-grid/icons/coin.png"
   inkscape:export-xdpi="6.1900001"
   inkscape:export-ydpi="6.1900001">
  <defs
     id="defs2631">
    <inkscape:perspective
       sodipodi:type="inkscape:persp3d"
       inkscape:vp_x="0 : 526.18109 : 1"
       inkscape:vp_y="0 : 1000 : 0"
       inkscape:vp_z="744.09448 : 526.18109 : 1"
       inkscape:persp3d-origin="372.04724 : 350.78739 : 1"
       id="perspective2633" />
    <linearGradient
       id="linearGradient51"
       y2="4.962881"
       y1="4.962881"
       x1="25.462239"
       gradientTransform="scale(0.92079484,1.0860183)"
       x2="419.10476"
       gradientUnits="userSpaceOnUse">
      <stop
         id="stop54"
         style="stop-color:#faff00"
         offset="0" />
      <stop
         id="stop55"
         style="stop-color:#ffff00"
         offset="1" />
    </linearGradient>
  </defs>
  <sodipodi:namedview
     inkscape:window-height="1016"
     inkscape:window-width="1848"
     inkscape:pageshadow="2"
     inkscape:pageopacity="0.0"
     guidetolerance="10.0"
     gridtolerance="10.0"
     objecttolerance="10.0"
     borderopacity="1.0"
     bordercolor="#666666"
     pagecolor="#ffffff"
     id="base"
     showgrid="false"
     inkscape:zoom="0.75211952"
     inkscape:cx="-190.2056"
     inkscape:cy="198.01864"
     inkscape:window-x="72"
     inkscape:window-y="27"
     inkscape:current-layer="g2443"
     inkscape:document-rotation="0"
     inkscape:window-maximized="1" />
  <title
     id="title7506">Coin thumbs up</title>
  <g
     id="layer1"
     transform="translate(2633.0273,-4398.1759)">
    <g
       id="g9050"
       transform="translate(-381.56,2460.3)">
      <g
         id="g9054"
         transform="matrix(0.59541,0,0,0.59541,-743.86,1531)">
        <rect
           id="rect9052"
           style="fill:none"
           height="421.55826"
           width="421.55826"
           y="683.35413"
           x="-2531.9888" />
        <path
           id="path9056"
           style="fill:#d5b04f"
           d="M -2330.2694,692.26646 C -2441.7594,692.26646 -2532.1094,782.62446 -2532.1094,894.10646 C -2532.1094,1005.5965 -2441.7514,1095.9765 -2330.2694,1095.9765 C -2324.8739,1095.9765 -2319.5274,1095.767 -2314.2384,1095.3515 C -2418.2284,1087.1814 -2500.0784,1000.1915 -2500.0784,894.10146 C -2500.0784,788.01146 -2418.2264,701.05146 -2314.2384,692.88146 C -2319.5271,692.46595 -2324.8744,692.25646 -2330.2694,692.25646 L -2330.2694,692.26646 z" />
        <path
           id="path9058"
           d="M -2359.3694,694.35646 C -2372.2644,696.21926 -2384.7594,699.30176 -2396.7444,703.48146 C -2388.1985,703.98653 -2378.0074,704.28922 -2367.0254,704.32521 C -2355.9814,700.32031 -2344.4964,697.23691 -2332.6504,695.20021 C -2340.4016,694.73561 -2349.5194,694.43894 -2359.3694,694.35646 z M -2396.5564,717.48146 C -2408.9234,717.48146 -2420.3314,717.83335 -2429.6814,718.41896 C -2433.6654,720.67796 -2437.5598,723.05896 -2441.3694,725.57516 C -2433.9688,726.39641 -2423.6914,727.00556 -2411.8694,727.29396 C -2406.7363,723.79016 -2401.4524,720.50906 -2395.9944,717.48146 C -2396.1836,717.4813 -2396.3672,717.48146 -2396.5568,717.48146 L -2396.5564,717.48146 z M -2431.8694,740.66946 C -2443.5604,740.77352 -2454.1874,741.19824 -2462.7134,741.82566 C -2465.3095,744.08586 -2467.8616,746.40626 -2470.3384,748.79446 C -2462.7032,749.61682 -2452.1194,750.21416 -2440.0264,750.48196 C -2436.5843,747.08356 -2433.017,743.81516 -2429.3384,740.66946 C -2430.1797,740.67346 -2431.0384,740.66246 -2431.8697,740.66946 L -2431.8694,740.66946 z M -2456.1814,763.79446 C -2467.0774,763.89146 -2477.0614,764.26399 -2485.2754,764.82566 C -2487.3108,767.26376 -2489.2611,769.76076 -2491.1816,772.29446 C -2482.9916,773.02879 -2472.2516,773.54766 -2460.2126,773.73196 C -2457.6901,770.34356 -2455.0942,767.01456 -2452.3689,763.79446 C -2453.6455,763.79046 -2454.9293,763.78336 -2456.1813,763.79446 L -2456.1814,763.79446 z M -2469.2754,786.91946 C -2481.4854,786.94266 -2492.7274,787.29451 -2501.9004,787.88821 C -2503.4748,790.42691 -2504.9997,792.99491 -2506.4629,795.60701 C -2497.9613,796.28631 -2487.1539,796.75711 -2475.1509,796.88821 C -2473.2856,793.50111 -2471.3265,790.18441 -2469.2759,786.91941 L -2469.2754,786.91946 z M -2487.9314,810.07546 C -2497.3646,810.07546 -2506.2464,810.28293 -2514.0874,810.63796 C -2515.3914,813.50536 -2516.603,816.41946 -2517.7749,819.35676 C -2509.0816,819.82555 -2498.8859,820.07551 -2487.9309,820.07551 C -2487.2988,820.07551 -2486.6832,820.07751 -2486.0559,820.07551 C -2484.7271,816.70631 -2483.3081,813.38451 -2481.8059,810.10671 C -2483.8177,810.08791 -2485.8626,810.07551 -2487.9309,810.07551 L -2487.9314,810.07546 z M -2502.6504,833.23146 C -2509.7813,833.23146 -2516.5724,833.3659 -2522.8694,833.57521 C -2523.8221,836.61071 -2524.683,839.69851 -2525.4944,842.79401 C -2518.4915,843.06232 -2510.7784,843.23151 -2502.6504,843.23151 C -2499.5588,843.23151 -2496.5464,843.21051 -2493.5879,843.16901 C -2492.7251,839.85051 -2491.7693,836.57501 -2490.7442,833.32521 C -2494.5882,833.25361 -2498.5634,833.23151 -2502.6502,833.23151 L -2502.6504,833.23146 z M -2520.2754,856.38746 C -2523.1327,856.41286 -2525.8705,856.48226 -2528.5879,856.54371 C -2529.1899,859.74201 -2529.7011,862.95031 -2530.1504,866.19991 C -2525.1583,866.3249 -2519.9124,866.38741 -2514.4624,866.38741 C -2508.7877,866.38741 -2503.3264,866.30381 -2498.1504,866.16866 C -2497.7071,862.96746 -2497.1795,859.78876 -2496.5879,856.63746 C -2502.2197,856.47472 -2508.2119,856.38746 -2514.4629,856.38746 C -2516.4332,856.38746 -2518.3563,856.37036 -2520.2754,856.38746 z M -2514.4629,879.51246 C -2520.4325,879.51246 -2526.1789,879.58226 -2531.5879,879.73121 C -2531.8104,882.89321 -2531.9502,886.06191 -2532.0254,889.26241 C -2526.4869,889.41935 -2520.5974,889.51241 -2514.4634,889.51241 C -2509.4531,889.51241 -2504.6266,889.46241 -2499.9944,889.35616 C -2499.9194,886.10226 -2499.7841,882.88276 -2499.5568,879.66866 C -2504.3195,879.55585 -2509.2953,879.51241 -2514.4628,879.51241 L -2514.4629,879.51246 z M -2514.4629,902.66846 C -2520.55,902.66846 -2526.3989,902.76386 -2531.9009,902.91846 C -2531.7634,906.11606 -2531.5604,909.29236 -2531.2759,912.44966 C -2525.9577,912.59316 -2520.3179,912.66841 -2514.4639,912.66841 C -2509.172,912.66841 -2504.0789,912.59901 -2499.2139,912.48091 C -2499.5023,909.28531 -2499.7324,906.06141 -2499.8702,902.82471 C -2504.5395,902.7166 -2509.4086,902.66846 -2514.4642,902.66846 L -2514.4629,902.66846 z M -2514.4629,925.82446 C -2519.7097,925.82446 -2524.7619,925.89576 -2529.5879,926.01196 C -2529.0712,929.26636 -2528.4769,932.49876 -2527.8066,935.69946 C -2523.5171,935.78966 -2519.0678,935.82446 -2514.4626,935.82446 C -2507.9065,935.82446 -2501.6416,935.72149 -2495.7746,935.54321 C -2496.4299,932.40241 -2497.0484,929.23571 -2497.5558,926.04321 C -2502.9027,925.89812 -2508.5738,925.82446 -2514.4618,925.82446 L -2514.4629,925.82446 z M -2520.2754,948.98046 C -2521.7362,948.99346 -2523.0992,949.02036 -2524.5254,949.04296 C -2523.5852,952.37476 -2522.5675,955.68966 -2521.4629,958.94916 C -2519.1657,958.97386 -2516.836,958.98036 -2514.4629,958.98036 C -2505.5225,958.98036 -2497.0949,958.80143 -2489.5569,958.48036 C -2490.5681,955.47396 -2491.5292,952.45446 -2492.4007,949.38656 C -2499.1931,949.137 -2506.6407,948.98031 -2514.4627,948.98031 C -2516.433,948.98031 -2518.3561,948.96321 -2520.2752,948.98031 L -2520.2754,948.98046 z M -2498.2444,972.10546 C -2504.5892,972.10546 -2510.6674,972.18806 -2516.3694,972.35546 C -2515.0085,975.58886 -2513.5787,978.80416 -2512.0568,981.94926 C -2507.6242,982.04606 -2503.0183,982.10551 -2498.2448,982.10551 C -2491.8765,982.10551 -2485.7798,982.02411 -2480.0568,981.85551 C -2481.5799,978.70511 -2483.0078,975.50081 -2484.3694,972.26171 C -2488.8222,972.16411 -2493.4479,972.10546 -2498.2444,972.10546 z M -2492.3381,995.26146 C -2496.6616,995.26146 -2500.8507,995.30666 -2504.9001,995.38646 C -2502.9587,998.72766 -2500.8992,1002.0142 -2498.7751,1005.2303 C -2496.661,1005.2511 -2494.5147,1005.2615 -2492.3376,1005.2615 C -2483.2492,1005.2615 -2474.6846,1005.0613 -2467.0566,1004.7302 C -2469.0268,1001.7287 -2470.9326,998.68401 -2472.7442,995.57401 C -2478.8649,995.37764 -2485.4422,995.26151 -2492.3382,995.26151 L -2492.3381,995.26146 z M -2465.8071,1018.4175 C -2474.0579,1018.4175 -2481.8771,1018.5789 -2488.9631,1018.855 C -2486.4386,1022.063 -2483.7987,1025.1831 -2481.0881,1028.23 C -2476.214,1028.3485 -2471.1099,1028.4175 -2465.8071,1028.4175 C -2459.9861,1028.4175 -2454.3801,1028.3407 -2449.0881,1028.1987 C -2451.8948,1025.0425 -2454.6061,1021.8087 -2457.2131,1018.4799 C -2460.0229,1018.4426 -2462.8785,1018.4174 -2465.8068,1018.4174 L -2465.8071,1018.4175 z M -2451.0881,1041.5425 C -2456.9316,1041.5425 -2462.5601,1041.6183 -2467.8691,1041.7612 C -2464.2407,1045.1454 -2460.4895,1048.399 -2456.6191,1051.5112 C -2454.7998,1051.5265 -2452.9528,1051.5424 -2451.0878,1051.5424 C -2441.7658,1051.5424 -2432.9898,1051.3584 -2425.2128,1051.0112 C -2428.8796,1048.0388 -2432.4526,1044.9477 -2435.9008,1041.73 C -2440.7472,1041.6128 -2445.8189,1041.5425 -2451.0888,1041.5425 L -2451.0881,1041.5425 z M -2414.2131,1064.6985 C -2422.513,1064.6985 -2430.3751,1064.8568 -2437.4941,1065.136 C -2432.028,1068.5713 -2426.3901,1071.7582 -2420.5881,1074.6672 C -2418.4944,1074.6876 -2416.3685,1074.6984 -2414.2131,1074.6984 C -2405.3342,1074.6984 -2396.9591,1074.5153 -2389.4631,1074.1984 C -2395.1471,1071.3112 -2400.6991,1068.1547 -2406.0571,1064.7609 C -2408.7273,1064.7273 -2411.4375,1064.6984 -2414.2134,1064.6984 L -2414.2131,1064.6985 z M -2364.8691,1087.8545 C -2372.2931,1087.8545 -2379.3621,1088.0035 -2385.8691,1088.2295 C -2368.2051,1093.2812 -2349.5311,1095.9795 -2330.2441,1095.9795 C -2325.7233,1095.9795 -2321.2534,1095.8341 -2316.8061,1095.542 C -2316.1848,1095.457 -2315.5884,1095.3801 -2315.0249,1095.292 C -2328.6829,1094.1639 -2341.9609,1091.6605 -2354.7129,1087.9483 C -2358.0155,1087.8963 -2361.3965,1087.8543 -2364.8689,1087.8543 L -2364.8691,1087.8545 z"
           style="fill:#c89c31;fill-rule:evenodd" />
        <path
           id="path9060"
           style="fill:#eed175"
           d="M -2110.5231,894.12229 C -2110.5231,1005.6076 -2200.9015,1095.986 -2312.3868,1095.986 C -2423.8721,1095.986 -2514.2505,1005.6076 -2514.2505,894.12229 C -2514.2505,782.63695 -2423.8721,692.25862 -2312.3868,692.25862 C -2200.9015,692.25862 -2110.5231,782.63695 -2110.5231,894.12229 L -2110.5231,894.12229 z" />
        <path
           id="path9062"
           style="fill:#c89c31"
           d="M -2115.6217,895.6071 C -2115.6217,1004.2432 -2203.6902,1092.3116 -2312.3263,1092.3116 C -2420.9623,1092.3116 -2509.0308,1004.2432 -2509.0308,895.6071 C -2509.0308,786.97104 -2420.9623,698.90254 -2312.3263,698.90254 C -2203.6902,698.90254 -2115.6217,786.97104 -2115.6217,895.6071 L -2115.6217,895.6071 z" />
        <path
           id="path9064"
           style="fill:#ebc859"
           d="M -2121.9628,896.0619 C -2121.9628,1001.2275 -2207.2179,1086.4826 -2312.3835,1086.4826 C -2417.5491,1086.4826 -2502.8042,1001.2275 -2502.8042,896.0619 C -2502.8042,790.8963 -2417.5491,705.64122 -2312.3835,705.64122 C -2207.2179,705.64122 -2121.9628,790.8963 -2121.9628,896.0619 L -2121.9628,896.0619 z" />
        <path
           id="path9066"
           style="fill:#d2aa48"
           d="M -2450.7694,763.59646 C -2522.9964,840.03746 -2521.6434,960.14646 -2445.2021,1032.3765 C -2424.5571,1051.8835 -2402.3041,1068.2915 -2375.0091,1075.5915 C -2391.7741,1066.9067 -2406.0261,1054.9755 -2420.4371,1041.3585 C -2503.3621,963.00446 -2507.2131,832.42846 -2429.0566,749.71846 C -2421.512,741.73366 -2413.0706,735.92746 -2404.6386,729.42046 C -2421.1966,738.65006 -2437.0596,749.08746 -2450.7696,763.59646 L -2450.7694,763.59646 z" />
        <path
           id="path9068"
           style="fill:#f7e587"
           d="M -2196.8694,1048.0065 C -2113.1374,984.37546 -2096.8194,864.91646 -2160.4514,781.18646 C -2177.6364,758.57246 -2198.9234,740.90146 -2222.4494,728.37146 C -2207.3264,739.67546 -2193.4694,753.23346 -2181.4724,769.01946 C -2112.4434,859.85446 -2129.9494,989.30946 -2220.5554,1058.1595 C -2229.3018,1064.8063 -2238.4084,1070.6325 -2247.7884,1075.6755 C -2229.9464,1069.2714 -2212.7624,1060.0875 -2196.8684,1048.0085 L -2196.8694,1048.0065 z" />
        <path
           id="path9070"
           style="opacity:0.5;fill:#f7e587"
           d="M -2305.5694,706.39646 C -2341.5384,706.39646 -2374.2384,709.92456 -2406.4394,730.83246 C -2456.6724,763.45046 -2485.4824,827.22046 -2485.4824,892.77246 C -2485.4824,908.60046 -2483.538,923.96946 -2479.907,938.63746 C -2445.059,982.35246 -2402.194,987.94046 -2354.557,987.94046 C -2254.753,987.94046 -2175.937,905.42146 -2175.937,802.93046 C -2175.937,787.12446 -2178.4385,772.64146 -2182.0598,757.99146 C -2214.3478,727.03546 -2257.9238,706.39446 -2305.5798,706.39446 L -2305.5694,706.39646 z" />
        <text
           xml:space="preserve"
           style="font-style:normal;font-weight:normal;font-size:22.6617px;line-height:1.25;font-family:sans-serif;fill:#000000;fill-opacity:1;stroke:none;stroke-width:0.566542"
           x="-2391.2649"
           y="946.71637"
           id="text2364"><tspan
             sodipodi:role="line"
             id="tspan2362"
             x="-2391.2649"
             y="946.71637"
             style="stroke-width:0.566542"></tspan></text>
        <g
           id="g2443"
           transform="matrix(0.566542,0,0,0.566542,-2433.784,757.7277)">
          <g
             id="g2449"
             transform="matrix(1.14512,0,0,1.14512,-22.650286,-9.9005865)">
            <path
               id="path630"
               style="fill:#f7e587;fill-opacity:1;fill-rule:evenodd;stroke:#c89c31;stroke-width:17.809;stroke-opacity:1"
               d="m 32.355,422.03 306.58,-188.44 v -60.14 l -44.68,-9.42 82.75,-68.758 V 21.101 l -284.54,170.39 -2.004,66.97 38.074,1.19 -96.185,94.22 v 68.16 z" />
            <path
               id="path631"
               style="fill:#d2aa48;fill-opacity:1;fill-rule:evenodd"
               d="m 40.37,410 0.598,-50.72 289.95,-181.82 v 52.12 L 40.368,410 Z" />
            <path
               id="path632"
               style="fill:#d2aa48;fill-opacity:1;fill-rule:evenodd"
               d="m 98.481,251.63 h 50.099 l 60.11,-54.12 H 100.48 Z" />
            <path
               id="path633"
               style="fill:#ebc859;fill-opacity:1;fill-rule:evenodd"
               d="M 234.74,161.42 368.99,37.14 v 52.119 l -94.17,80.181 z" />
          </g>
        </g>
      </g>
    </g>
  </g>
  <metadata
     id="metadata2628">
    <rdf:RDF>
      <cc:Work>
        <dc:format>image/svg+xml</dc:format>
        <dc:type
           rdf:resource="http://purl.org/dc/dcmitype/StillImage" />
        <cc:license
           rdf:resource="http://creativecommons.org/publicdomain/zero/1.0/" />
        <dc:publisher>
          <cc:Agent
             rdf:about="http://openclipart.org/">
            <dc:title>Openclipart</dc:title>
          </cc:Agent>
        </dc:publisher>
        <dc:title>Coin thumbs up</dc:title>
        <dc:date>2013-08-15T14:44:31</dc:date>
        <dc:description>Coin with thumbs up</dc:description>
        <dc:source>http://openclipart.org/detail/181846/coin-thumbs-up-by-ahninniah-181846</dc:source>
        <dc:creator>
          <cc:Agent>
            <dc:title>AhNinniah</dc:title>
          </cc:Agent>
        </dc:creator>
        <dc:subject>
          <rdf:Bag>
            <rdf:li>clip art</rdf:li>
            <rdf:li>clipart</rdf:li>
            <rdf:li>coin</rdf:li>
            <rdf:li>coin thumbs up</rdf:li>
            <rdf:li>gold coin</rdf:li>
            <rdf:li>image</rdf:li>
            <rdf:li>money</rdf:li>
            <rdf:li>svg</rdf:li>
            <rdf:li>vector</rdf:li>
          </rdf:Bag>
        </dc:subject>
      </cc:Work>
      <cc:License
         rdf:about="http://creativecommons.org/licenses/publicdomain/">
        <cc:permits
           rdf:resource="http://creativecommons.org/ns#Reproduction" />
        <cc:permits
           rdf:resource="http://creativecommons.org/ns#Distribution" />
        <cc:permits
           rdf:resource="http://creativecommons.org/ns#DerivativeWorks" />
      </cc:License>
    </rdf:RDF>
  </metadata>
</svg>
