<?xml version="1.0" encoding="UTF-8"?>
<svg width="301.1mm" height="55.479mm" version="1.1" viewBox="0 0 301.1 55.479" xmlns="http://www.w3.org/2000/svg">
 <g transform="translate(-8.8797 -51.003)">
  <rect transform="rotate(45)" x="66.042" y="3.7945" width="30.795" height="30.795" ry="6.5764" fill="#ff00b0" fill-rule="evenodd" stroke-width=".092128"/>
  <rect x="8.8797" y="75.687" width="30.795" height="30.795" ry="6.5764" fill="#727272" fill-rule="evenodd" stroke-width=".092128"/>
  <g fill="#fff" stroke-width=".092128">
   <circle cx="16.548" cy="82.842" r="3.3708"/>
   <circle cx="32.05" cy="82.931" r="3.3708"/>
   <circle cx="16.298" cy="98.406" r="3.3708"/>
   <circle cx="31.936" cy="98.459" r="3.3708"/>
   <circle cx="24.036" cy="90.795" r="3.3708"/>
   <circle cx="44.692" cy="60.15" r="3.3708"/>
   <circle cx="34.003" cy="70.306" r="3.3708"/>
   <circle cx="44.062" cy="80.257" r="3.3708"/>
   <circle cx="54.669" cy="70.067" r="3.3708"/>
  </g>
  <g transform="scale(.92913 1.0763)" stroke-width=".46366" style="font-variant-caps:normal;font-variant-east-asian:normal;font-variant-ligatures:normal;font-variant-numeric:normal" aria-label="Tom's">
   <path d="m77.391 61.855h2.7449v-11.443h3.8947v-2.2998h-10.497v2.2998h3.8577z" style="font-variant-caps:normal;font-variant-east-asian:normal;font-variant-ligatures:normal;font-variant-numeric:normal"/>
   <path d="m88.852 62.114c2.5965 0 4.989-2.003 4.989-5.4526s-2.3925-5.4526-4.989-5.4526-4.989 2.003-4.989 5.4526 2.3925 5.4526 4.989 5.4526zm0-2.2256c-1.4095 0-2.207-1.2612-2.207-3.2271 0-1.9474 0.7975-3.2271 2.207-3.2271s2.207 1.2797 2.207 3.2271c0 1.9659-0.7975 3.2271-2.207 3.2271z" style="font-variant-caps:normal;font-variant-east-asian:normal;font-variant-ligatures:normal;font-variant-numeric:normal"/>
   <path d="m96.14 61.855h2.7263v-7.1404c0.72331-0.77895 1.391-1.1684 1.9845-1.1684 0.98296 0 1.4652 0.55639 1.4652 2.1699v6.1389h2.7078v-7.1404c0.74186-0.77895 1.4095-1.1684 2.003-1.1684 0.98296 0 1.4466 0.55639 1.4466 2.1699v6.1389h2.7263v-6.4727c0-2.615-1.02-4.1729-3.2271-4.1729-1.3539 0-2.3554 0.81604-3.3013 1.8175-0.50075-1.1499-1.3724-1.8175-2.8561-1.8175-1.3539 0-2.3183 0.74186-3.19 1.6506h-0.05564l-0.20401-1.391h-2.2256z" style="font-variant-caps:normal;font-variant-east-asian:normal;font-variant-ligatures:normal;font-variant-numeric:normal"/>
   <path d="m114.81 53.954h1.5208l0.53784-3.9875 0.0927-2.578h-2.782l0.0927 2.578z" style="font-variant-caps:normal;font-variant-east-asian:normal;font-variant-ligatures:normal;font-variant-numeric:normal"/>
   <path d="m122.58 62.114c2.7078 0 4.1358-1.4652 4.1358-3.2827 0-1.9288-1.5208-2.615-2.8932-3.1343-1.0942-0.40802-2.0586-0.68622-2.0586-1.4466 0-0.59348 0.44511-1.0015 1.391-1.0015 0.7604 0 1.4837 0.35238 2.2256 0.89023l1.2241-1.6506c-0.85314-0.64912-2.0216-1.2797-3.5238-1.2797-2.3739 0-3.8762 1.3168-3.8762 3.1714 0 1.7434 1.4652 2.5409 2.782 3.0416 1.0942 0.42657 2.1699 0.77895 2.1699 1.5579 0 0.64912-0.46366 1.0942-1.5023 1.0942-0.96441 0-1.8546-0.40802-2.782-1.1313l-1.2426 1.7063c1.0386 0.85314 2.5594 1.4652 3.9504 1.4652z" style="font-variant-caps:normal;font-variant-east-asian:normal;font-variant-ligatures:normal;font-variant-numeric:normal"/>
  </g>
  <g transform="scale(1.0089 .99119)" fill="#ff00b0" stroke-width=".65208" style="font-variant-caps:normal;font-variant-east-asian:normal;font-variant-ligatures:normal;font-variant-numeric:normal" aria-label="Board Games">
   <path d="m73.557 105.4q-1.4137 0-2.6491-0.14009-1.401-0.16557-1.4519-0.72596l-0.02547-0.0382q0-0.9552-0.08915-4.3302v-0.33114q-0.28019-10.38-0.28019-16.939 0-3.9354 0.11462-7.0303 0.08915-2.076 0.92973-3.3368 1.5283-2.2797 4.776-2.2797 2.7764 0 5.642 1.5538 2.6109 1.3882 4.1774 3.617 1.2099 1.8085 1.2099 3.6934 0 3.3623-3.9991 6.3043 2.8529 0.86605 5.0944 3.5024 1.0189 1.2481 1.5665 2.7128 0.4585 1.1972 0.4585 2.4198 0 0.28019-0.02547 0.56038-0.21651 1.8849-1.2609 3.7699-1.0444 1.8849-2.8274 3.4514-3.3114 2.9293-8.2147 3.4515-1.0698 0.11462-3.1458 0.11462zm2.3562-21.982q1.5411-0.7769 2.6618-1.8722 1.4519-1.4519 1.5538-2.2415 0-0.66227-0.48397-1.1335-0.47123-0.48397-1.1462-0.72595-0.67501-0.24198-1.2736-0.24198-1.3882 0-1.4264 1.0316 0.05094 1.3628 0.05094 2.6746zm0.36934 14.812q2.2797-0.4585 3.7062-1.6684 1.4392-1.2227 1.9868-2.7382 0.29293-0.82784 0.29293-1.6302 0-1.3245-0.75142-2.2797-0.68774-0.85331-2.025-1.2227-0.68774-0.19104-1.5665-0.19104-0.80237 0-1.7703 0.16557 0.03821 1.5538 0.05094 3.2349l0.01274 1.6302z" style="font-variant-caps:normal;font-variant-east-asian:normal;font-variant-ligatures:normal;font-variant-numeric:normal"/>
   <path d="m98.342 102.77q-0.76416 0-1.4519-0.19104-2.0378-0.54765-3.5406-2.318-1.4901-1.783-2.458-4.3048-0.9552-2.5345-1.4137-5.3491-0.44576-2.6746-0.44576-5.209 0-3.0948 0.58586-5.4001 0.73869-2.7637 2.4071-4.6614t3.9227-2.9802q3.0694-1.4646 6.5718-1.4646 1.783 0 3.5279 0.39482 2.6236 0.57312 4.7123 1.9996 2.4708 1.6684 3.5916 4.4194 0.6368 1.5283 0.6368 3.375 0 4.05-3.0821 9.6921-1.8849 3.4642-4.4066 6.4062-2.1651 2.4963-4.534 4.0373-2.3562 1.5283-4.6232 1.5538zm2.3944-12.252q0.49671 0 1.0444-0.28019 1.3882-0.68774 2.6109-3.0566 0.57312-1.1335 0.57312-2.0378 0-0.08915-0.0509-0.61133-0.0382-0.52218-0.58586-1.1717-1.0571-1.2099-2.7764-1.2099-0.78964 0-1.5411 0.3184-0.85331 0.35661-1.3627 1.1844-0.50944 0.82784-0.50944 2.0887v0.12736q0.12736 2.6873 1.0571 3.8335 0.67501 0.8151 1.5411 0.8151z" style="font-variant-caps:normal;font-variant-east-asian:normal;font-variant-ligatures:normal;font-variant-numeric:normal"/>
   <path d="m115.38 103.13q-1.7576 0-3.2222-0.24199-1.7321-0.29293-1.7321-0.92973 0-0.19103 3.6934-12.621 4.343-14.685 5.5529-17.741 0.21651-0.39482 1.4264-0.66227 2.025-0.40755 4.6359-0.40755 1.8594 0 2.9675 0.39482 0.56038 0.22925 0.67501 0.64954 5.642 26.363 5.642 26.402 0 0.39482-0.75142 1.0698-0.73869 0.67501-1.9359 1.4392-1.1972 0.76416-2.4326 1.3755-1.9104 0.96793-2.751 0.96793-0.48397 0-0.52218-0.39481l-0.28019-2.7637q-0.75142-0.35661-2.5854-1.9996l-0.21651-0.19104q-1.2609-1.159-2.1396-1.6557l-1.9359 6.6991q-0.20378 0.36934-1.9231 0.52217-1.0444 0.0892-2.1651 0.0892zm10.354-9.6666-1.2354-12.341-0.0382 0.15283q-0.96794 4.7887-2.1524 9.5775 0.56038 0.1783 1.7194 1.2609l0.39482 0.34387q0.75142 0.72595 1.3118 1.0061z" style="font-variant-caps:normal;font-variant-east-asian:normal;font-variant-ligatures:normal;font-variant-numeric:normal"/>
   <path d="m141.07 105.94h-0.15283q-1.6429 0-2.9165-0.24199-1.2736-0.22924-1.3882-0.62406-0.42029-3.0057-0.68775-8.4185-0.22924-4.4831-0.22924-9.1826 0-11.017 1.35-14.736 0.85331-2.076 2.8274-2.9038 1.541-0.6368 3.375-0.6368 0.56038 0 1.1462 0.05094 3.7953 0.42029 7.1831 2.6363 1.6429 1.108 2.8019 2.5599 1.1717 1.4519 1.6557 3.184 0.24198 0.86605 0.24198 1.783 0 1.4774-0.84057 3.5788-0.84058 2.1014-4.0755 4.8269 1.8594 2.8656 3.4514 5.0689 1.3118 1.7958 3.2095 4.6741 0.11462 0.20378 0.11462 0.42029 0 0.82784-1.9486 1.8467-2.4835 1.2609-4.9161 1.7066-0.59859 0.11462-0.99341 0.11462-0.48397 0-0.62406-0.1783-1.1208-1.9741-2.3307-3.8972-1.7576-2.8274-2.1396-3.3114 0.21651 1.8849 0.44576 4.6232 0.34387 4.1392 0.53491 5.3746l0.0127 0.10189q0 0.80236-1.4392 1.1844-1.4392 0.39482-3.668 0.39482zm2.3434-20.008q3.0821-0.87878 4.6996-1.9868 2.2543-1.5411 2.2543-3.2604 0-0.58586-0.28019-1.0953-0.53491-0.92973-1.7448-1.3628-0.64953-0.24198-1.4137-0.24198-0.53491 0-1.5283 0.20378-0.98067 0.19104-2.3944 1.3882 0.0764 1.6047 0.1401 2.5981 0.0764 0.99341 0.12736 1.8977 0.0255 0.19104 0.14009 1.8595z" style="font-variant-caps:normal;font-variant-east-asian:normal;font-variant-ligatures:normal;font-variant-numeric:normal"/>
   <path d="m162.81 103.6q-0.78963 0-1.4646-0.10189-2.1906-0.36934-2.3052-1.4646-0.35661-12.634-0.4967-19.435-0.12736-5.0307-0.28019-10.087 0-0.68774 1.7448-1.0061 0.72595-0.11462 1.6557-0.11462 0.61133 0 1.2991 0.05094 4.8906 0.42029 8.7242 3.1713 5.4128 3.9099 5.642 12.048v0.26746q0 4.4831-1.2736 7.6289-1.2736 3.1331-3.3623 5.0689-2.076 1.9359-4.4066 2.8656-2.7892 1.108-5.4765 1.108zm3.7826-9.6921q0.39482-0.06368 1.0698-0.84058 0.72595-0.8151 1.4137-2.1269 0.80236-1.5028 1.1462-3.2477 0.14009-0.71322 0.14009-1.3882 0-0.99341-0.42029-2.2543-0.40755-1.2609-2.2288-2.267l-0.22925-0.10189q-0.96794-0.4967-1.35-0.4967-0.0509 0-0.0509 0.02547 0 3.0566 0.11462 7.4633 0.0637 3.5533 0.19104 4.9288 0.0382 0.30566 0.17831 0.30566z" style="font-variant-caps:normal;font-variant-east-asian:normal;font-variant-ligatures:normal;font-variant-numeric:normal"/>
   <path d="m198.82 104.16q-5.4765 0-8.9789-3.0439-1.9741-1.6939-2.9548-4.534l-0.0892-0.21651q-0.61132-2.0378-0.61132-4.1392 0-0.68774 0.0637-1.3755 0.58585-5.5147 4.6359-10.1 1.9741-2.2543 4.6104-3.9864 2.6491-1.7321 5.8458-2.7382 3.4769-1.108 7.4251-1.108 1.2099 0 2.458 0.10189 0.54764 0.06368 0.54764 0.6368 0 0.70048-1.1462 2.2797-1.3373 1.8212-3.0566 3.4897t-2.5217 1.8722q-3.4005 0.47123-5.3873 1.6939-3.6552 2.2543-3.6552 6.177 0 1.9104 0.78963 3.6552 0.66228 1.5156 1.6812 2.4708 1.1462 1.108 2.3689 1.108 1.0444 0 1.7321-0.61133 0.68774-0.61133 1.0444-1.7194 0.35661-1.108 0.44576-2.4198 0.10189-1.3245 0.10189-2.4963 0-0.75142-0.0382-1.4392v-0.11462q0-0.58586 0.6368-0.92973 1.0826-0.57312 3.6934-0.57312 2.0123 0 3.6552 0.26746 1.8722 0.29293 1.8722 0.7769l-0.0127 0.20378q-0.0127 0.19104-0.0127 0.44576 0 0.35661-0.12736 1.8977-0.21651 2.4326-0.70048 2.4326h-2.267q-0.12736 0-0.12736 0.36934 0 0.35661 0.0255 0.96794 0.0637 0.40755 0.0637 1.4901 0 0.48397-0.0382 1.401-0.0382 0.90426-0.50944 2.267-1.108 3.1331-5.1071 4.5085l-0.3184 0.11462q-2.942 0.91699-6.0368 0.91699z" style="font-variant-caps:normal;font-variant-east-asian:normal;font-variant-ligatures:normal;font-variant-numeric:normal"/>
   <path d="m216.56 103.13q-1.7576 0-3.2222-0.24199-1.7321-0.29293-1.7321-0.92973 0-0.19103 3.6934-12.621 4.343-14.685 5.5529-17.741 0.21652-0.39482 1.4264-0.66227 2.025-0.40755 4.6359-0.40755 1.8595 0 2.9675 0.39482 0.56038 0.22925 0.67501 0.64954 5.642 26.363 5.642 26.402 0 0.39482-0.75143 1.0698-0.73868 0.67501-1.9359 1.4392-1.1972 0.76416-2.4326 1.3755-1.9104 0.96793-2.751 0.96793-0.48397 0-0.52218-0.39481l-0.28019-2.7637q-0.75142-0.35661-2.5854-1.9996l-0.21652-0.19104q-1.2609-1.159-2.1396-1.6557l-1.9359 6.6991q-0.20378 0.36934-1.9231 0.52217-1.0444 0.0892-2.1651 0.0892zm10.354-9.6666-1.2354-12.341-0.0382 0.15283q-0.96793 4.7887-2.1524 9.5775 0.56039 0.1783 1.7194 1.2609l0.39482 0.34387q0.75142 0.72595 1.3118 1.0061z" style="font-variant-caps:normal;font-variant-east-asian:normal;font-variant-ligatures:normal;font-variant-numeric:normal"/>
   <path d="m261.25 103.24q-0.84058 0-1.9231-0.29293-1.5665-0.42029-2.8401-1.0316-1.2609-0.61133-1.35-0.94247-0.0255-0.45849-0.0255-1.5793-0.0127-1.3373-0.0509-2.993-0.0892-4.05-0.52218-4.4958l-0.0382 0.08915q-0.16557 0.19104-0.71322 1.0061-2.9548 4.4703-3.9227 4.6359-0.28019 0-0.66227-0.61133t-0.82784-1.5028q-1.4264-2.7637-1.8212-2.7892-0.47123 0.1783-0.73869 1.5665-0.25472 1.3882-0.45849 3.2477l-0.0127 0.12736q-0.22925 2.3052-0.6368 4.1392-0.15283 0.47123-0.89152 0.72595-1.2226 0.43302-3.426 0.43302-1.541 0-2.4708-0.11462-0.89152-0.0764-1.1208-0.15283-0.17831-0.051-0.17831-0.20378l2.8146-29.917q0.1401-0.86605 3.4642-0.86605 2.1906 0 3.617 0.4585 0.84058 0.28019 0.99341 0.71322 0.39482 1.3755 0.71321 3.617 0.3184 2.2288 0.61133 4.7633 0.28019 2.3562 0.57312 4.4576 0.29293 2.1014 0.64954 3.5024 0.50944-1.4646 2.2288-8.5841l0.10189-0.42029q0.84058-3.4897 1.0316-4.0246 0.20377-0.3184 1.6175-0.92973 1.4264-0.62406 3.0821-1.108 1.4646-0.42029 2.2925-0.42029 1.0189 0 1.0189 0.59859l1.2991 27.815q0 1.0826-1.4774 1.0826z" style="font-variant-caps:normal;font-variant-east-asian:normal;font-variant-ligatures:normal;font-variant-numeric:normal"/>
   <path d="m278.34 103.22q-0.4585-0.0255-1.5411-0.0255-8.5586 0-11.768-0.30567-1.3628-0.12736-1.3628-0.54765 0.86605-7.9855 1.1335-14.825 0.15284-4.1901 0.15284-8.826 0-2.9293-0.0637-6.0369 0.0509-0.70048 1.6302-1.159 1.5793-0.47123 3.9227-0.68774 2.3562-0.21651 4.5977-0.21651 2.3434 0.01274 4.0882 0.25472 2.4962 0.40755 2.4962 1.3373l-0.58585 9.4501q-0.0382 0.48397-0.5986 0.48397-0.9934-0.12736-4.725-2.6109-1.35-0.90426-2.4708-1.592-1.2226-0.73869-1.6684-0.73869l-0.40755 5.3746q0 0.50944 1.9996 0.6368 0.0255 0 0.0382 0.01274 0.64954 0.02547 1.2354 0.06368l0.62407 0.01274q0.53491 0.10189 0.73869 1.4137 0.24198 1.3755 0.24198 3.0948 0 3.4132-0.61133 3.5788l-4.5085 0.78963v0.01274q0 0.01274 0.0255 0.03821t0.0637 0.07642q0.0382 0.05094 0.051 0.11462 0 0.50944 0.21651 0.91699 0.10189 0.20378 0.24198 0.20378l8.0109-2.509 0.11462 0.1783v0.02547q0.0382 0.19104 0.11463 1.9231 0.0509 1.2354 0.0509 2.7382 0 7.2722-1.4774 7.3487z" style="font-variant-caps:normal;font-variant-east-asian:normal;font-variant-ligatures:normal;font-variant-numeric:normal"/>
   <path d="m284.12 103.15q-0.92973 0-1.7958-0.051-0.62407 0-0.90426-0.56038-0.19104-0.35661-0.19104-2.3816 0-2.267 0.25472-6.4571 0.25472-4.2029 0.81511-4.5085l0.89151-0.30566q0.38208-0.11462 0.85332-0.11462 0.96793 0 2.6236 0.61133 2.267 0.84058 7.9345 2.1906 0.90425-0.10189 0.90425-0.78963 0-0.1401-0.0382-0.29293 0-0.11462-0.4585-0.26746-5.8968-2.0123-6.3425-2.0632-1.1972-0.33114-2.3562-0.70048-3.3623-1.0826-4.4703-2.751-0.75142-1.1335-0.75142-2.458 0-1.1208 0.4967-2.3816 1.0571-2.5854 3.91-5.018 1.8849-1.6302 4.4831-2.9547 2.6109-1.3373 7.7944-1.4137 3.617 0 8.6605 1.7066 0.22925 0.02547 0.22925 0.47123-0.0127 0.39482-0.16557 1.159-1.4137 9.6539-2.7 9.8067l-0.47123 0.03821q-9.5265-3.4005-10.978-3.4005-0.33114 0-0.71322 0.6368 0 0.1401 1.1972 0.57312 8.2784 2.7255 11.068 4.9416 2.9293 2.267 3.2732 4.9034 0.0764 0.44576 0.0764 0.94246-1.1972 6.7119-9.9978 8.9534-7.5524 1.9359-13.131 1.9359z" style="font-variant-caps:normal;font-variant-east-asian:normal;font-variant-ligatures:normal;font-variant-numeric:normal"/>
  </g>
 </g>
</svg>
