<?xml version="1.0" encoding="UTF-8"?>
<svg width="220.28mm" height="52.217mm" version="1.1" viewBox="0 0 220.28 52.217" xmlns="http://www.w3.org/2000/svg">
 <g transform="translate(-10.788 -52.298)">
  <g transform="scale(.92913 1.0763)" stroke-width=".46366" style="font-variant-caps:normal;font-variant-east-asian:normal;font-variant-ligatures:normal;font-variant-numeric:normal" aria-label="Tom's">
   <path d="m73.742 59.67h-4.211v10.876h-3.4774v-10.876h-4.211v-2.6081h11.899z" style="font-variant-caps:normal;font-variant-east-asian:normal;font-variant-ligatures:normal;font-variant-numeric:normal"/>
   <path d="m86.048 65.466q0 2.5085-1.467 3.9574-1.458 1.4399-4.1023 1.4399t-4.1114-1.4399q-1.458-1.4489-1.458-3.9574 0-2.5266 1.467-3.9665 1.4761-1.4399 4.1023-1.4399 2.6624 0 4.1114 1.4489 1.458 1.4489 1.458 3.9574zm-4.0117 2.4722q0.31696-0.3894 0.4709-0.93275 0.163-0.55241 0.163-1.5214 0-0.89653-0.163-1.5033-0.16301-0.60674-0.45279-0.96898-0.28979-0.37129-0.6973-0.52524-0.40751-0.15395-0.87842-0.15395-0.4709 0-0.8422 0.12678-0.36223 0.12678-0.6973 0.50713-0.29884 0.35318-0.47996 0.96898-0.17206 0.6158-0.17206 1.5486 0 0.83314 0.15395 1.4489 0.15395 0.60674 0.45279 0.97803 0.28979 0.35318 0.68824 0.51618 0.40751 0.16301 0.9237 0.16301 0.44374 0 0.8422-0.14489 0.40751-0.15395 0.68824-0.50713z" style="font-variant-caps:normal;font-variant-east-asian:normal;font-variant-ligatures:normal;font-variant-numeric:normal"/>
   <path d="m98.346 63.338v7.2085h-3.2782v-5.0803q0-0.74258-0.03622-1.2588-0.03622-0.52524-0.19923-0.85125-0.16301-0.32601-0.49807-0.4709-0.32601-0.15395-0.9237-0.15395-0.47996 0-0.93275 0.19923-0.45279 0.19017-0.81503 0.40751v7.2085h-3.2601v-10.17h3.2601v1.1229q0.8422-0.66108 1.6119-1.0324t1.7025-0.37129q1.0052 0 1.7749 0.45279 0.76975 0.44374 1.2044 1.3131 0.97803-0.82408 1.9017-1.295 0.9237-0.4709 1.8112-0.4709 1.6482 0 2.4994 0.98709 0.86031 0.98709 0.86031 2.8435v6.6198h-3.2782v-5.0803q0-0.75164-0.0362-1.2678-0.0272-0.51618-0.19017-0.8422-0.15395-0.32601-0.48901-0.4709-0.33507-0.15395-0.94181-0.15395-0.40752 0-0.79692 0.14489-0.3894 0.13584-0.95086 0.46185z" style="font-variant-caps:normal;font-variant-east-asian:normal;font-variant-ligatures:normal;font-variant-numeric:normal"/>
   <path d="m111.14 56.455-0.54335 5.3339h-2.0466l-0.54335-5.3339z" style="font-variant-caps:normal;font-variant-east-asian:normal;font-variant-ligatures:normal;font-variant-numeric:normal"/>
   <path d="m123.03 67.322q0 1.5757-1.4127 2.5447-1.4127 0.95992-3.8668 0.95992-1.3584 0-2.4632-0.25356-1.1048-0.25356-1.7749-0.56146v-2.6805h0.29884q0.24451 0.17206 0.56146 0.38035 0.32601 0.19923 0.91464 0.43468 0.50713 0.20828 1.1501 0.36223 0.64296 0.14489 1.3765 0.14489 0.95992 0 1.4218-0.20828 0.46185-0.21734 0.46185-0.63391 0-0.37129-0.27168-0.5343-0.27167-0.17206-1.0324-0.32601-0.36223-0.0815-0.98708-0.17206-0.6158-0.09962-1.1229-0.23545-1.3856-0.36223-2.0557-1.1229-0.67013-0.76975-0.67013-1.9108 0-1.467 1.3855-2.436 1.3946-0.97803 3.8035-0.97803 1.141 0 2.1825 0.23545 1.0505 0.2264 1.6391 0.48902v2.5719h-0.28074q-0.72446-0.49807-1.6572-0.80597-0.9237-0.31696-1.8746-0.31696-0.78786 0-1.3312 0.21734-0.5343 0.21734-0.5343 0.6158 0 0.36223 0.24451 0.55241t1.1501 0.38035q0.49808 0.09962 1.0686 0.19923 0.57957 0.09056 1.1592 0.23545 1.2859 0.33507 1.9017 1.0595 0.61579 0.71541 0.61579 1.7931z" style="font-variant-caps:normal;font-variant-east-asian:normal;font-variant-ligatures:normal;font-variant-numeric:normal"/>
  </g>
  <g transform="scale(1.0089 .99119)" fill="#fff" stroke="#000" stroke-width=".65208" style="font-variant-caps:normal;font-variant-east-asian:normal;font-variant-ligatures:normal;font-variant-numeric:normal" aria-label="Board Games">
   <path d="m72.416 95.136q0 1.4137-0.53491 2.4835-0.53491 1.0698-1.4392 1.7703-1.0698 0.84058-2.3562 1.1972-1.2736 0.3566-3.2477 0.3566h-7.5906v-18.964h6.6991q2.0887 0 3.1585 0.16557 1.0826 0.15283 2.025 0.66227 1.0189 0.54765 1.5156 1.4646 0.50944 0.91699 0.50944 2.1142 0 1.3882-0.70048 2.4708-0.68774 1.0826-1.9104 1.592v0.10189q1.7576 0.36934 2.8147 1.5156 1.0571 1.1335 1.0571 3.0694zm-6.1005-7.7944q0-0.4585-0.24198-0.94246-0.22925-0.48397-0.72595-0.70048-0.47123-0.20378-1.1208-0.21651-0.6368-0.02547-1.9104-0.02547h-0.33114v4.0118h0.59859q1.2227 0 1.7066-0.02547 0.4967-0.02547 1.0189-0.26746 0.57312-0.26746 0.78963-0.73869 0.21651-0.47123 0.21651-1.0953zm1.1972 7.7053q0-0.87878-0.35661-1.3755-0.35661-0.4967-1.0698-0.75142-0.43302-0.16557-1.1972-0.1783-0.75142-0.02547-2.025-0.02547h-0.87878v4.7505h0.25472q1.8595 0 2.5727-0.02547t1.4519-0.34387q0.64954-0.28019 0.94246-0.8151 0.30566-0.54765 0.30566-1.2354z" style="font-variant-caps:normal;font-variant-east-asian:normal;font-variant-ligatures:normal;font-variant-numeric:normal"/>
   <path d="m88.603 93.799q0 3.5279-1.9359 5.5656-1.9231 2.025-5.451 2.025-3.5024 0-5.451-2.025-1.9359-2.0378-1.9359-5.5656 0-3.5661 1.9359-5.5784 1.9486-2.025 5.451-2.025 3.5151 0 5.451 2.0378 1.9359 2.025 1.9359 5.5656zm-4.5722 0.02547q0-1.2736-0.21651-2.1142-0.20378-0.85331-0.57312-1.3628-0.39482-0.53491-0.89152-0.73869-0.4967-0.21651-1.1335-0.21651-0.59859 0-1.0826 0.19104-0.48397 0.1783-0.89152 0.70048-0.38208 0.4967-0.61133 1.3628t-0.22925 2.1779q0 1.3118 0.21651 2.1269 0.21651 0.80237 0.56038 1.2863 0.35661 0.4967 0.89152 0.72595 0.53491 0.22925 1.1844 0.22925 0.53491 0 1.0826-0.22925 0.56038-0.22925 0.89152-0.68774 0.39482-0.54765 0.59859-1.3118 0.20378-0.7769 0.20378-2.1396z" style="font-variant-caps:normal;font-variant-east-asian:normal;font-variant-ligatures:normal;font-variant-numeric:normal"/>
   <path d="m98.856 97.212v-2.9802q-1.1335 0.11462-1.834 0.20378-0.70048 0.07642-1.3755 0.3184-0.58586 0.20378-0.91699 0.62406-0.3184 0.40755-0.3184 1.0953 0 1.0061 0.53491 1.3882 0.54765 0.36934 1.6047 0.36934 0.58586 0 1.1972-0.26746 0.61133-0.26746 1.108-0.75142zm0 2.2161q-0.4585 0.38208-0.82784 0.68774-0.35661 0.30567-0.96794 0.61133-0.59859 0.29293-1.1717 0.44576-0.56038 0.15283-1.5793 0.15283-1.8977 0-3.1585-1.2736-1.2481-1.2736-1.2481-3.2095 0-1.592 0.6368-2.5727 0.6368-0.98067 1.834-1.5538 1.2099-0.58586 2.8911-0.8151 1.6812-0.22925 3.617-0.35661v-0.07642q0-1.1844-0.87878-1.6302-0.86605-0.4585-2.6109-0.4585-0.78963 0-1.8467 0.29293-1.0571 0.28019-2.0632 0.72595h-0.38208v-3.4515q0.66227-0.19104 2.1396-0.44576 1.4774-0.26746 2.9802-0.26746 3.6934 0 5.3746 1.2354 1.6939 1.2227 1.6939 3.7444v9.7303h-4.4321z" style="font-variant-caps:normal;font-variant-east-asian:normal;font-variant-ligatures:normal;font-variant-numeric:normal"/>
   <path d="m116.22 90.857h-0.36935q-0.25472-0.08915-0.73868-0.12736-0.48397-0.05094-1.0698-0.05094-0.70047 0-1.4774 0.20378-0.76416 0.20378-1.4901 0.48397v9.5775h-4.4576v-14.303h4.4576v2.0505q0.30566-0.28019 0.84057-0.70048 0.54765-0.43302 0.99341-0.68774 0.48397-0.29293 1.1208-0.4967 0.64953-0.21651 1.2226-0.21651 0.21651 0 0.48397 0.01274t0.48397 0.03821z" style="font-variant-caps:normal;font-variant-east-asian:normal;font-variant-ligatures:normal;font-variant-numeric:normal"/>
   <path d="m130.93 100.94h-4.4576v-1.4901q-0.43303 0.35661-0.99341 0.76416-0.54765 0.40755-0.96794 0.61133-0.53491 0.25472-1.0571 0.38208-0.52218 0.12736-1.2481 0.12736-2.4453 0-3.8717-2.025-1.4264-2.025-1.4264-5.4128 0-1.8722 0.48397-3.2477 0.48397-1.3755 1.3373-2.3944 0.77689-0.92973 1.8849-1.4646 1.108-0.54765 2.3434-0.54765 1.1208 0 1.834 0.24198 0.72595 0.22925 1.6812 0.72595v-6.0878h4.4576zm-4.4576-3.9482v-7.0175q-0.33114-0.16557-0.86605-0.26746-0.53491-0.11462-0.91699-0.11462-1.6047 0-2.4198 1.1208-0.80237 1.1208-0.80237 3.1331 0 2.1142 0.6368 3.0566 0.64954 0.94246 2.0887 0.94246 0.58586 0 1.1844-0.22925 0.59859-0.22925 1.0953-0.62406z" style="font-variant-caps:normal;font-variant-east-asian:normal;font-variant-ligatures:normal;font-variant-numeric:normal"/>
   <path d="m158.07 99.861q-1.2481 0.50944-3.2477 0.99341-1.9868 0.48397-3.9227 0.48397-4.4703 0-7.1322-2.5727-2.6491-2.5854-2.6491-7.3232 0-4.4576 2.6491-7.1449 2.6618-2.6873 7.2722-2.6873 2.3816 0 3.8717 0.4585 1.4901 0.44576 3.0821 1.2227v4.4449h-0.43302q-0.34388-0.26746-0.99341-0.75142-0.6368-0.4967-1.2481-0.84058-0.71321-0.40755-1.6557-0.70048-0.92972-0.29293-1.9741-0.29293-1.2227 0-2.2288 0.38208-1.0061 0.38208-1.7958 1.1717-0.75143 0.76416-1.1972 1.9359-0.43302 1.1717-0.43302 2.7255 0 3.3241 1.6684 4.9034 1.6684 1.5793 4.5595 1.5793 0.25472 0 0.59859-0.01274t0.59859-0.03821v-3.7189h-3.6807v-3.5533h8.2911z" style="font-variant-caps:normal;font-variant-east-asian:normal;font-variant-ligatures:normal;font-variant-numeric:normal"/>
   <path d="m169.31 97.212v-2.9802q-1.1335 0.11462-1.834 0.20378-0.70048 0.07642-1.3755 0.3184-0.58585 0.20378-0.91699 0.62406-0.3184 0.40755-0.3184 1.0953 0 1.0061 0.53491 1.3882 0.54765 0.36934 1.6047 0.36934 0.58585 0 1.1972-0.26746t1.108-0.75142zm0 2.2161q-0.45849 0.38208-0.82784 0.68774-0.35661 0.30567-0.96793 0.61133-0.59859 0.29293-1.1717 0.44576-0.56039 0.15283-1.5793 0.15283-1.8977 0-3.1585-1.2736-1.2481-1.2736-1.2481-3.2095 0-1.592 0.6368-2.5727t1.834-1.5538q1.2099-0.58586 2.8911-0.8151 1.6812-0.22925 3.617-0.35661v-0.07642q0-1.1844-0.87878-1.6302-0.86605-0.4585-2.6109-0.4585-0.78963 0-1.8467 0.29293-1.0571 0.28019-2.0632 0.72595h-0.38208v-3.4515q0.66227-0.19104 2.1396-0.44576 1.4774-0.26746 2.9802-0.26746 3.6934 0 5.3746 1.2354 1.6939 1.2227 1.6939 3.7444v9.7303h-4.4321z" style="font-variant-caps:normal;font-variant-east-asian:normal;font-variant-ligatures:normal;font-variant-numeric:normal"/>
   <path d="m194.16 100.94v-7.1449q0-1.0571-0.0382-1.783-0.0382-0.72595-0.22924-1.1844-0.19104-0.4585-0.59859-0.66227-0.39482-0.21651-1.1208-0.21651-0.50944 0-1.0061 0.22925-0.49671 0.21651-1.0826 0.62406v10.138h-4.4831v-7.1449q0-1.0444-0.0509-1.7703-0.0382-0.73869-0.22925-1.1972-0.19104-0.4585-0.59859-0.66227-0.39482-0.21651-1.108-0.21651-0.54765 0-1.0698 0.25472-0.52217 0.25472-1.0189 0.59859v10.138h-4.4576v-14.303h4.4576v1.5793q1.0953-0.92973 2.0632-1.4519 0.96794-0.52218 2.1779-0.52218 1.3118 0 2.3052 0.62406t1.5156 1.8595q1.2863-1.1972 2.4198-1.834 1.1462-0.64954 2.318-0.64954 0.99341 0 1.783 0.3184 0.78963 0.3184 1.3373 0.9552 0.59859 0.68774 0.89152 1.6429 0.30566 0.94246 0.30566 2.4708v9.31z" style="font-variant-caps:normal;font-variant-east-asian:normal;font-variant-ligatures:normal;font-variant-numeric:normal"/>
   <path d="m209.25 101.33q-4.05 0-6.2152-1.9359-2.1524-1.9359-2.1524-5.5147 0-3.5024 2.0123-5.5911 2.0123-2.0887 5.6293-2.0887 3.2859 0 4.9416 1.7703 1.6557 1.7703 1.6557 5.0689v1.6047h-9.7685q0.0637 0.99341 0.42029 1.6684 0.35661 0.66227 0.94246 1.0571 0.57312 0.39482 1.3373 0.57312 0.76416 0.16557 1.6684 0.16557 0.7769 0 1.5283-0.16557 0.75143-0.1783 1.3755-0.4585 0.54765-0.24198 1.0061-0.52218 0.47123-0.28019 0.76416-0.4967h0.47123v3.6807q-0.54764 0.21651-1.0061 0.40755-0.44576 0.1783-1.2354 0.36934-0.72595 0.19104-1.5028 0.29293-0.76416 0.11462-1.8722 0.11462zm1.4774-9.3737q-0.0382-1.4137-0.66227-2.1524-0.61133-0.73869-1.8849-0.73869-1.2991 0-2.0378 0.7769-0.72595 0.7769-0.80236 2.1142z" style="font-variant-caps:normal;font-variant-east-asian:normal;font-variant-ligatures:normal;font-variant-numeric:normal"/>
   <path d="m221.77 101.34q-1.5793 0-2.993-0.34387-1.401-0.34387-2.318-0.80237v-3.7699h0.36934q0.3184 0.24198 0.72596 0.53491 0.40755 0.29293 1.1335 0.61133 0.62406 0.29293 1.401 0.50944 0.78963 0.20378 1.7066 0.20378 0.94246 0 1.6557-0.29293 0.72595-0.29293 0.72595-0.92973 0-0.4967-0.33114-0.75142-0.33113-0.25472-1.2863-0.48397-0.50944-0.12736-1.2863-0.26746-0.77689-0.15283-1.3755-0.34387-1.6812-0.52218-2.5345-1.5411-0.84058-1.0316-0.84058-2.7 0-0.9552 0.43302-1.7958 0.44576-0.85331 1.2991-1.5156 0.85332-0.64954 2.1014-1.0316 1.2609-0.38208 2.8401-0.38208 1.5028 0 2.7637 0.30566 1.2609 0.29293 2.1269 0.71322v3.617h-0.35661q-0.22925-0.1783-0.72595-0.47123-0.49671-0.30566-0.96794-0.52218-0.56038-0.25472-1.2609-0.42029-0.68774-0.16557-1.4137-0.16557-0.96794 0-1.643 0.33114-0.66227 0.33114-0.66227 0.87878 0 0.48397 0.33114 0.76416 0.33113 0.28019 1.4392 0.54765 0.57312 0.1401 1.3118 0.28019 0.75142 0.12736 1.4392 0.35661 1.541 0.4967 2.3307 1.4646 0.80237 0.9552 0.80237 2.5472 0 1.0061-0.47123 1.9231-0.47123 0.90426-1.3373 1.5283-0.91699 0.67501-2.1651 1.0443-1.2354 0.36935-2.9675 0.36935z" style="font-variant-caps:normal;font-variant-east-asian:normal;font-variant-ligatures:normal;font-variant-numeric:normal"/>
  </g>
  <g transform="matrix(.87101 0 0 .87101 6.4326 52.241)">
   <path id="Shape" d="m40.94 19.51c0.03863 0.3098-0.06847 0.62002-0.29 0.84l-5.53 5.53h-0.01l-5.22-0.32v-0.01l-2.89-11.55 11.82-9.85c0.1501 0.15523 0.24498 0.35552 0.27 0.57l1.73 13.87z" fill="#009688"/>
   <path d="m38.82 4.15-11.82 9.85-15.82-2.97c0.05699-0.16899 0.16108-0.31817 0.3-0.43l11.16-9.3c0.22725-0.19092 0.52896-0.26819 0.82-0.21l14.82 2.78c0.20384 0.037548 0.39186 0.13504 0.54 0.28z" fill="#00bcd4"/>
   <path d="m29.89 25.55-8.31-0.51c-0.1727-0.01348-0.34576 0.02114-0.5 0.1-0.16499 0.06972-0.30461 0.1884-0.4 0.34l-1.53 2.3-3.52-0.66c-0.3841-0.0735-0.69158-0.36152-0.79-0.74l-0.99-3.97-2.7-10.8c-0.04534-0.19225-0.03493-0.39345 0.03-0.58l15.82 2.97z" fill="#00695c"/>
   <path d="m50 42.13v8.19c0.0075 2.8451-1.714 5.4095-4.35 6.48-3.76 1.5-10.26 2.91-20.65 1.8-19-2.02-19-10.43-19-12.46v-12.14c-0.069715 2.646 1.0538 5.1832 3.06 6.91v0.01c1.72 1.59 4.4 3.12 8.6 4.23v0.01c2.1163 0.54872 4.2681 0.94969 6.44 1.2 0.3 0.03 0.6 0.07 0.9 0.1 4.7854 0.58486 9.6269 0.53779 14.4-0.14 7.81-1.25 10.6-4.19 10.6-4.19z" fill="#f44335"/>
   <path d="m47 44.074v6.246c0.0075 2.8451-1.714 5.4095-4.35 6.48-3.8563 1.4262-7.9334 2.1631-12.045 2.177 7.2 0.181 12.013-0.968 15.045-2.177 2.636-1.0705 4.3575-3.6349 4.35-6.48l2.5e-5 -8.19c-0.88784 0.80659-1.9011 1.4632-3 1.944z" fill="#c81e1e"/>
   <path d="m29 39-4.9 7.36c-2.1719-0.25031-4.3237-0.65128-6.44-1.2v-0.01l-4.35-7.61c-0.19085-0.32713-0.17922-0.7343 0.03-1.05l3.04-4.56 2.77-4.15 1.53-2.3c0.09539-0.1516 0.23501-0.27028 0.4-0.34z" fill="#ff9801"/>
   <path d="m19.15 27.78-2.77 4.15c-2.0123-0.14681-3.9851 0.61224-5.38 2.07-1.7522 1.8393-2.4788 4.4275-1.94 6.91-2.0062-1.7268-3.1297-4.264-3.06-6.91 0-2.74 0.84-9.66 7.85-11.59l0.99 3.97c0.09842 0.37848 0.4059 0.6665 0.79 0.74z" fill="#c81e1e"/>
   <path d="m57 18s-5.77 7.93-18.53 10.93l-1.21-2.42c-0.16523-0.31247-0.47785-0.51962-0.83-0.55l-1.31-0.08 5.53-5.53c0.22153-0.21998 0.32863-0.5302 0.29-0.84l-0.12-0.92c4.5536-1.0224 8.5493-3.7351 11.18-7.59l-1 7z" fill="#f44335"/>
   <path d="m48 18h3l1-7c-1.004 1.4426-2.1988 2.7424-3.552 3.864z" fill="#c81e1e"/>
   <path d="m 54,18 c 0,0 -4.979,6.824 -15.893,10.2 l 0.363,0.726 C 51.23,25.93 57,18 57,18 Z" fill="#c81e1e"/>
   <path d="m43.83 39.99-14.83-0.99-7.92-13.86c0.15424-0.07886 0.3273-0.11348 0.5-0.1l8.31 0.51v0.01l5.22 0.32h0.01l1.31 0.08c0.35215 0.03038 0.66477 0.23753 0.83 0.55l1.21 2.42 4.03 8.08h0.01l1.22 2.45c0.08277 0.16366 0.11744 0.34743 0.1 0.53z" fill="#ffeb3a"/>
   <path d="m43.83 39.99c-0.01329 0.18161-0.07933 0.35539-0.19 0.5l-4.24 5.83c-4.7731 0.67779-9.6146 0.72486-14.4 0.14-0.3-0.03-0.6-0.07-0.9-0.1l4.9-7.36z" fill="#fec108"/>
   <path d="m50 42.1v0.02s-2.79 2.95-10.6 4.2l4.24-5.83c0.11067-0.14461 0.17671-0.31839 0.19-0.5 0.01744-0.18257-0.01723-0.36634-0.1-0.53l-1.22-2.45c5.6 0.16 7.49 3.05 7.49 5.09z" fill="#c81e1e"/>
   <g>
    <path d="m22 0.533-11.157 9.297c-0.58784 0.49239-0.84394 1.2766-0.66 2.021l2.476 9.907c-7.071 2.542-7.659 9.949-7.659 12.242v12.144c0 7.415 6.879 12.067 19.894 13.456 2.3766 0.25962 4.7653 0.39314 7.156 0.4 4.7586 0.13471 9.4996-0.63526 13.971-2.269 3.0271-1.212 5.0028-4.1544 4.979-7.415v-8.223c-5e-3 -2.712-2.476-5.683-7.858-6.045l-3.233-6.467c12.116-3.243 17.663-10.667 17.9-10.993 0.22115-0.30422 0.2529-0.7068 0.08217-1.0419-0.17073-0.33513-0.51506-0.54612-0.89117-0.54607h-4.847l0.837-5.858c0.065044-0.45766-0.19207-0.90026-0.62185-1.0705-0.42978-0.1702-0.92021-0.023647-1.1861 0.35446-2.2756 3.3328-5.6354 5.7746-9.508 6.91l-1.591-12.736c-0.10815-0.86277-0.76136-1.5568-1.616-1.717l-14.819-2.783c-0.5865-0.11107-1.1918 0.047981-1.648 0.433zm1.28 1.537 13.45 2.521-10.008 8.339-13.446-2.524zm13.083 24.892 5.963 11.926-12.726-0.85-6.812-11.924zm-10.514 18.574 3.662-5.5 12.613 0.842-3.27 4.494c-4.3121 0.58535-8.6796 0.64042-13.005 0.164zm-15.843-5.125c-0.39396-2.0634 0.24014-4.1895 1.7-5.7 0.73637-0.76107 1.6626-1.3117 2.683-1.595l-1.879 2.819c-0.42251 0.6289-0.45082 1.4433-0.073 2.1l3.095 5.419c-2.0148-0.66284-3.8887-1.6947-5.526-3.043zm8.31 3.881-4.141-7.251 6.76-10.14 6.891 12.059-4.214 6.328c-1.7832-0.22891-3.5515-0.56147-5.296-0.996zm3.323-20.254c-0.71147-0.03883-1.3912 0.29819-1.791 0.888l-1.166 1.748-2.868-0.539-3.466-13.868 13.838 2.6 2.4 9.607zm-8.493-0.338 0.729 2.917c0.18953 0.75752 0.80262 1.3355 1.57 1.48l2.031 0.382-1.628 2.443c-2.0946 0.0102-4.0968 0.86336-5.555 2.367-1.2703 1.2635-2.0748 2.9203-2.282 4.7-0.6773-1.2195-1.0257-2.5941-1.011-3.989 0-1.928 0.471-8.11 6.146-10.3zm35.854 26.616c0.01958 2.4406-1.4572 4.6443-3.722 5.554-3.5 1.4-9.846 2.839-20.173 1.739-8.259-0.88-18.105-3.583-18.105-11.465v-6.007c2.909 3.872 8.953 6.365 17.9 7.317 13.964 1.49 21.123-1.493 24.1-3.354zm-0.044-8.633c-2.1559 1.5487-4.619 2.6167-7.223 3.132l2.718-3.735c0.44176-0.60331 0.50782-1.4034 0.171-2.071l-0.42-0.841c3.341 0.541 4.535 2.3 4.754 3.515zm-7.6-20.629c0.43575-0.43871 0.64556-1.0534 0.569-1.667l-6e-3 -0.046c3.2535-0.88431 6.2164-2.6106 8.59-5.005l-0.5 3.522c-0.04121 0.28725 0.0444 0.57824 0.23459 0.79741 0.19019 0.21918 0.46622 0.34492 0.75641 0.34459h3.777c-4.3787 4.2816-9.8278 7.3075-15.777 8.761l-0.848-1.7c-0.20077-0.38762-0.5233-0.69855-0.918-0.885zm-1.41-1.414-5.216 5.216-4.049-0.256-2.559-10.233 10.113-8.427z"/>
    <circle id="Oval" cx="36" cy="12" r="1"/>
    <circle cx="33" cy="22" r="1"/>
    <circle cx="35" cy="29" r="1"/>
    <circle cx="38" cy="36" r="1"/>
    <circle cx="32" cy="36" r="1"/>
    <circle cx="37" cy="43" r="1"/>
    <circle cx="21" cy="32" r="1"/>
    <circle cx="21" cy="37" r="1"/>
    <circle cx="21" cy="42" r="1"/>
    <circle cx="28" cy="29" r="1"/>
    <circle cx="31" cy="6" r="1"/>
    <circle cx="24" cy="5" r="1"/>
    <circle cx="26" cy="10" r="1"/>
    <circle cx="19" cy="9" r="1"/>
    <circle cx="16" cy="16" r="1"/>
    <circle cx="20" cy="20" r="1"/>
   </g>
  </g>
 </g>
</svg>
