<?xml version="1.0" encoding="UTF-8"?>
<svg width="264.2mm" height="80.95mm" version="1.1" viewBox="0 0 264.2 80.95" xmlns="http://www.w3.org/2000/svg" xmlns:xlink="http://www.w3.org/1999/xlink">
 <defs>
  <linearGradient id="linearGradient14578">
   <stop stop-color="#ebebeb" offset="0"/>
   <stop stop-color="#979797" offset="1"/>
  </linearGradient>
  <radialGradient id="radialGradient14842-3" cx="246.83" cy="272" r="34.608" gradientUnits="userSpaceOnUse">
   <stop offset="0"/>
   <stop stop-opacity="0" offset="1"/>
  </radialGradient>
  <linearGradient id="linearGradient14844-3" x1="836.68" x2="871.01" y1="261.15" y2="100.19" gradientUnits="userSpaceOnUse" xlink:href="#linearGradient14578"/>
  <linearGradient id="linearGradient14846-6" x1="1072.6" x2="687.27" y1="167.75" y2="503.48" gradientUnits="userSpaceOnUse" xlink:href="#linearGradient14578"/>
  <linearGradient id="linearGradient14848-6" x1="822.93" x2="1047.4" y1="340.43" y2="473.05" gradientUnits="userSpaceOnUse" xlink:href="#linearGradient14578"/>
  <filter id="filter8987-9" color-interpolation-filters="sRGB">
   <feFlood flood-color="rgb(0,0,0)" result="flood"/>
   <feComposite in="flood" in2="SourceGraphic" operator="in" result="composite1"/>
   <feGaussianBlur in="composite1" result="blur" stdDeviation="1"/>
   <feOffset dx="1" dy="1" result="offset"/>
   <feComposite in="SourceGraphic" in2="offset" result="composite2"/>
  </filter>
  <filter id="filter8999-1" color-interpolation-filters="sRGB">
   <feFlood flood-color="rgb(0,0,0)" result="flood"/>
   <feComposite in="flood" in2="SourceGraphic" operator="in" result="composite1"/>
   <feGaussianBlur in="composite1" result="blur" stdDeviation="1"/>
   <feOffset dx="1" dy="1" result="offset"/>
   <feComposite in="SourceGraphic" in2="offset" result="composite2"/>
  </filter>
  <linearGradient id="linearGradient4957" x1="23.45" x2="23.574" y1="19.523" y2="25.477" gradientTransform="matrix(.86898 -.3655 .3655 .86898 -7.9493 8.537)" gradientUnits="userSpaceOnUse">
   <stop stop-color="#565248" offset="0"/>
   <stop stop-color="#565248" stop-opacity="0" offset="1"/>
  </linearGradient>
  <linearGradient id="linearGradient4959" x1="29.849" x2="29.574" y1="31.564" y2="22.322" gradientTransform="matrix(.82042 -.21882 .21882 .82042 -4.1756 5.8937)" gradientUnits="userSpaceOnUse">
   <stop stop-color="#eee" offset="0"/>
   <stop stop-color="#eee" stop-opacity="0" offset="1"/>
  </linearGradient>
  <radialGradient id="radialGradient5097" cx="23.226" cy="41.173" r="19.562" gradientTransform="matrix(.81723 -3.4923e-8 0 .26925 4.2585 29.583)" gradientUnits="userSpaceOnUse">
   <stop offset="0"/>
   <stop stop-opacity="0" offset="1"/>
  </radialGradient>
  <linearGradient id="linearGradient3281" x1="24.543" x2="18.005" y1="26.968" y2="9.5672" gradientUnits="userSpaceOnUse">
   <stop stop-color="#540" offset="0"/>
   <stop stop-color="#2b2200" stop-opacity="0" offset="1"/>
  </linearGradient>
  <linearGradient id="linearGradient3289" x1="27.262" x2="6.417" y1="12.649" y2="11.386" gradientUnits="userSpaceOnUse">
   <stop stop-color="#565248" offset="0"/>
   <stop stop-color="#565248" stop-opacity="0" offset="1"/>
  </linearGradient>
  <linearGradient id="linearGradient1089" x1="15.731" x2="17.917" y1="-7.2605" y2="2.6973" gradientTransform="matrix(.77435 -.20654 .20505 .76879 7.9761 21.116)" gradientUnits="userSpaceOnUse">
   <stop stop-color="#fb8b00" offset="0"/>
   <stop stop-color="#986601" stop-opacity="0" offset="1"/>
  </linearGradient>
 </defs>
 <g transform="translate(-13.855 -175.38)">
  <g transform="matrix(.26458 0 0 .26458 -172.81 123.17)">
   <path transform="matrix(3.5997,0,0,1.9513,-28.741,-95.015)" d="m281.44 272a34.608 34.608 0 1 1-69.216 0 34.608 34.608 0 1 1 69.216 0z" fill="url(#radialGradient14842-3)"/>
   <g fill="#ccc">
    <path d="m859.56 279.09c-1.1277 5e-3 -3.375 0.25-3.375 0.25l-12.5 4.3438-12.844 4.4375-13.125 4.5312-13.5 4.6875-13.875 4.7812-14.219 4.9375-14.625 5.0625-4.125 2.9062-1.4688 1.8125-0.6875 1.6875-0.90625 5.25 1.4375 16.375 1.4062 16.031 1.4062 15.75 1.3438 15.438 1.3438 15.156 1.3125 14.875 1.2812 14.562 1.5938 3.8438 1.875 2.625-1.5-3.9062 1.5312 3.9062 10.219 6.6875 10.562 6.875 10.812 7.0625 11.156 7.25 11.469 7.4688 11.812 7.7188 12.188 7.9375v-0.0312l3.3125 1.7188 3.8125 1.0625 4.3438-0.96875 13.75-7.7188 13.375-7.4688 13.031-7.2812 12.656-7.0938 12.344-6.9062 12.031-6.7188 11.688-6.5625 2.9688-1.7812 2.4062-2.625 1.3125-3.8438 0.46875-14.688 0.5-14.938 0.53125-15.281 0.5-15.531 0.53125-15.875 0.53125-16.156 0.5625-16.5-0.3125-2.4062-1-4.5625-1.875-1.8438-3.8125-2.9688-13.312-5.125-12.969-5-12.562-4.8438-12.25-4.75-11.875-4.5625-11.594-4.4688-11.25-4.375s-2.5602-0.25537-3.8438-0.25zm-3.2812 83 1.2812 6.125h-0.0312zm-13.66 80.79 1 26.344-0.625-15.625zm18.062 42.562-0.90625 4.0625-0.0312 0.0312 0.9375-4.0938z"/>
    <path d="m856.18 279.34-12.5 4.3438-12.844 4.4375-13.125 4.5312-13.5 4.6875-13.875 4.7812-14.219 4.9375-14.625 5.0625 3.2188 0.21875 14.625-5.0938 14.281-4.9375 13.875-4.8438 13.531-4.6875 13.156-4.5625 12.844-4.4688 12.531-4.3438 3.8438-0.0625-3.4062 0.0312-3.8125-0.0312z"/>
    <path d="m863.4 279.34-3.8438 0.0625 11.281 4.375 11.562 4.4688 11.906 4.625 12.25 4.75 12.562 4.875 12.969 5.0312 13.344 5.1562 3.7812-0.21875-13.312-5.125-12.969-5-12.562-4.8438-12.25-4.75-11.875-4.5625-11.594-4.4688-11.25-4.375z"/>
   </g>
   <path d="m765.8 434.52-1.9652-2.5365 1.611 3.8327 1.8836 2.6345z" fill="#333"/>
   <path d="m859.56 279.4-12.531 4.3438-12.844 4.4688-13.156 4.5625-13.531 4.6875-13.875 4.8438-14.281 4.9375-14.625 5.0938 10.938 5.2812 11.281 5.4375 11.625 5.625 12 5.7812 12.375 5.9688 12.75 6.1562 13.188 6.375 15.031-6.2812 14.594-6.0938 14.188-5.9062 13.75-5.7188 13.375-5.5938 12.969-5.4062 12.656-5.2812-13.344-5.1562-12.969-5.0312-12.562-4.875-12.25-4.75-11.906-4.625-11.562-4.4688-11.281-4.375z" fill="url(#linearGradient14844-3)"/>
   <path d="m754.31 323.78 1.4375 16.375 1.4062 16.031 1.4062 15.75 1.3438 15.438 1.3438 15.156 1.3125 14.875 1.2812 14.562 1.9688 2.5625-1.2812-14.656-1.3125-14.906-1.3125-15.219-1.3438-15.5-1.375-15.812-1.4062-16.125-1.4375-16.438-2.0312-2.0938z" fill="#666"/>
   <path d="m765.81 434.53 1.5312 3.9062 10.219 6.6875 10.562 6.875 10.812 7.0625 11.156 7.25 11.469 7.4688 11.812 7.7188 12.188 7.9375-1.3438-4.125-12.219-7.9062-11.844-7.6875-11.5-7.4375-11.188-7.25-10.844-7.0312-10.562-6.8438-10.25-6.625z" fill="#4d4d4d"/>
   <path d="m950.06 435.75-1.1898 3.94 2.4002-2.6241 1.3078-3.8408z" fill="#666"/>
   <path d="m950.06 435.75-11.75 6.53-12.09 6.72-12.41 6.91-12.75 7.09-13.094 7.25-13.438 7.5-13.844 7.6875-0.90625 4.125 13.781-7.7188-2.7812 1.6562 13.375-7.4688 13.031-7.2812 12.656-7.0938 12.344-6.9062 12.031-6.7188 11.688-6.5625 2.9688-1.7812 1.1875-3.9375z" fill="#808080"/>
   <path d="m756.34 325.87 1.4375 16.438 1.4062 16.125 1.375 15.812 1.3438 15.5 1.3125 15.219 1.3125 14.906 1.2812 14.656 10.25 6.625 10.562 6.8438 10.844 7.0312 11.188 7.25 11.5 7.4375 11.844 7.6875 12.219 7.9062-0.59375-15.688-0.625-16.031-0.59375-16.375-0.65625-16.688-0.625-17.094-0.65625-17.438-0.6875-17.844-13.062-6.625-12.656-6.4062-12.25-6.2188-11.906-6.0312-11.5-5.8438-11.188-5.6562-10.875-5.5z" fill="url(#linearGradient14846-6)"/>
   <path d="m956.21 324.25-2.6875 2.125-0.53125 16.562-0.5 16.219-0.5 15.906-0.5 15.625-0.5 15.312-0.46875 15.031-0.46875 14.719 2.5312-2.5312 0.46875-14.688 0.5-14.938 0.53125-15.281 0.5-15.531 0.53125-15.875 0.53125-16.156 0.5625-16.5z" fill="#808080"/>
   <path d="m953.53 326.37-12.562 5.4688-12.906 5.625-13.281 5.8125-13.688 5.9375-14.094 6.1562-14.5 6.3125-14.938 6.5312 0.46875 17.844 0.46875 17.469 0.4375 17.094 0.46875 16.719 0.4375 16.375 0.40625 16.031 0.4375 15.688 13.844-7.6875 13.438-7.5 13.094-7.25 12.75-7.0938 12.406-6.9062 12.094-6.7188 11.75-6.5312 0.46875-14.719 0.46875-15.031 0.5-15.312 0.5-15.625 0.5-15.906 0.5-16.219 0.53125-16.562z" fill="url(#linearGradient14848-6)"/>
   <path d="m755.9 316.85-0.6865 1.6724 2.1548-3.4862z" fill="#808080"/>
   <path d="m764.71 312.34-3.1989-0.2264-4.139 2.9235 2.8553 0.2818z" fill="#ccc"/>
   <path d="m756.35 325.87 0.7937-5.5746-1.9347-1.7752-0.9078 5.2489z" fill="#999"/>
   <path d="m757.15 320.3 3.0754-4.9796-2.8553-0.2818-2.1548 3.4862z" fill="#b3b3b3"/>
   <path d="m956.21 324.26-0.31-2.4213-0.9975-4.5602 0.2141 1.6873z" fill="#666"/>
   <path d="m764.71 312.34-4.5 2.9688 84 41.125 4.6562-3.4688z" fill="#f2f2f2"/>
   <path d="m757.15 320.31-0.8125 5.5625 83.438 42.281 1.0625-6.125z" fill="#ccc"/>
   <path d="m954.9 317.27-1.8792-1.8347 2.0933 3.522z" fill="#999"/>
   <path d="m760.21 315.31-3.0625 5 83.688 41.719 3.375-5.5938z" fill="#fff"/>
   <path d="m945.43 312.69 4.1529 3.0177 3.4428-0.2707-3.8081-2.9613z" fill="#b3b3b3"/>
   <path d="m953.53 326.36 2.6758-2.1054-1.0934-5.2942-2.5505 1.7786z" fill="#999"/>
   <path d="m949.58 315.71 2.9856 5.0299 2.5505-1.7786-2.0933-3.522z" fill="#e6e6e6"/>
   <path d="m873.55 481.83-13.794 7.7175-2.7406 1.6596 13.753-7.6967z" fill="#808080"/>
   <path d="m945.43 312.68-96.562 40.281 4.2188 3.5 96.5-40.75z" fill="#f2f2f2"/>
   <path d="m952.56 320.75-96.281 41.344 1.2812 6.125 95.969-41.844z" fill="#ccc"/>
   <path d="m949.59 315.72-96.5 40.75 3.1875 5.625 96.281-41.344z" fill="#fff"/>
   <path d="m845.55 489.42 3.3255 1.7124 3.8053 1.0493-2.3346-1.2056z" fill="#333"/>
   <path d="m857.02 491.21 2.7406-1.6596-5.1615 1.4689-1.9178 1.168z" fill="#333"/>
   <path d="m854.6 491.02-4.2524-0.0376 2.3346 1.2056z" fill="#393939"/>
   <path d="m844.2 485.29 1.3513 4.1269 4.7962 1.5561-1.1311-3.8446z" fill="#595959"/>
   <path d="m860.67 485.44-5.39 1.7492-0.6833 3.8294 5.1615-1.4689z" fill="#646464"/>
   <path d="m855.28 487.19-6.0668-0.0528 1.1311 3.8446 4.2524 0.0376z" fill="#777"/>
   <path d="m839.78 368.15 4.4375 117.16 5 1.8125-4.0312-117.44z" fill="#ccc"/>
   <path d="m857.56 368.22-5.8438 1.5 3.5625 117.47 5.4062-1.75z" fill="#d2d2d2"/>
   <path d="m845.18 369.68 4.0312 117.44 6.0625 0.0625-3.5625-117.47z" fill="#ececec"/>
   <path d="m848.88 352.96-4.6777 3.4752 4.2179 3.3207 4.6578-3.2882z" fill="#f9f9f9"/>
   <path d="m839.79 368.15 5.3922 1.5364 0.8785-5.9775-5.2038-1.682z" fill="#ccc"/>
   <path d="m844.2 356.43-3.3498 5.5907 5.2038 1.682 2.3639-3.952z" fill="#f9f9f9"/>
   <path d="m857.54 368.22-1.2724-6.1364-5.5993 1.6405 1.049 5.9866z" fill="#ccc"/>
   <path d="m856.27 362.08-3.1908-5.6179-4.6578 3.2882 2.2493 3.9702z" fill="#fff"/>
   <path d="m845.18 369.68 6.5407 0.0273-1.049-5.9866-4.6132-0.0182z" fill="#f2f2f2"/>
   <path d="m846.06 363.7 4.6132 0.0182-2.2493-3.9702z" fill="#fff"/>
   <g>
    <path d="m812.91 442.85c0.45914 8.642 6.1201 18.939 12.696 23.074 6.6301 4.1695 11.725 0.5338 11.327-8.1969-0.39998-8.7807-6.1925-19.269-12.885-23.349-6.6364-4.0459-11.6-0.2198-11.138 8.471"/>
    <path d="m768.93 415.61c0.66958 8.3012 5.9211 17.961 11.774 21.642 5.8988 3.7096 10.213-0.0256 9.5915-8.41-0.62516-8.4296-5.9902-18.257-11.937-21.883-5.9003-3.5972-10.101 0.3054-9.4281 8.6508"/>
    <path d="m788.07 397.63c0.59414 8.8135 6.1484 18.917 12.455 22.638 6.3589 3.7517 11.118-0.36886 10.58-9.277-0.5412-8.9586-6.2223-19.245-12.638-22.901-6.3625-3.626-10.995 0.67742-10.398 9.5401"/>
    <path d="m809.2 377.79c0.49888 9.3903 6.3921 19.979 13.218 23.729 6.8856 3.7825 12.163-0.78606 11.73-10.285-0.43532-9.5557-6.4712-20.345-13.424-24.018-6.8921-3.6409-12.026 1.1287-11.524 10.574"/>
    <path d="m785.77 365.15c-0.67692-9.1283-6.2498-19.219-12.398-22.466-6.0977-3.2213-10.411 1.541-9.6831 10.568 0.72408 8.977 6.1745 18.891 12.222 22.213 6.0966 3.3491 10.533-1.2372 9.8594-10.315"/>
    <path d="m893.42 317.8c7.172 2.9474 18.907 2.9724 26.106 0.054 7.1445-2.8961 7.0337-7.5672-0.1454-10.432-7.1213-2.8418-18.599-2.8626-25.737-0.0482-7.1915 2.8358-7.3373 7.5028-0.22386 10.426"/>
    <path d="m841 317.69c6.7297 2.9405 18.417 2.9653 26.002 0.0538 7.5268-2.8894 8.0757-7.5499 1.3275-10.408-6.6941-2.8354-18.127-2.8561-25.635-0.048-7.5651 2.8294-8.3686 7.4858-1.6937 10.402"/>
    <path d="m788.79 317.58c6.2908 2.9338 17.931 2.9585 25.898 0.0536 7.9059-2.8829 9.1094-7.5329 2.7886-10.385-6.2701-2.8291-17.658-2.8497-25.534-0.0478-7.9356 2.8231-9.3916 7.4691-3.152 10.379"/>
    <path d="m894.48 411.48c-2e-3 8.9379 5.9379 13.137 13.215 9.4499 7.2218-3.6586 13.096-13.743 13.172-22.594 0.0756-8.9004-5.7352-13.278-13.03-9.7065-7.3519 3.5989-13.355 13.861-13.357 22.85"/>
   </g>
   <path d="m856.18 279.34c2.4409 0.47086 4.8348 0.30487 7.2188 0 0 0-2.5602-0.23782-3.8438-0.23245-1.1277 5e-3 -3.375 0.23245-3.375 0.23245z" fill="#ccc"/>
   <path d="m805.31 303.09c-4.6153-9e-3 -9.4369 0.69278-13.375 2.0938-5.2994 1.8853-7.6845 4.5812-6.8438 7.0312 0.64127-1.8346 2.9643-3.6511 6.8438-5.0312 3.9381-1.401 8.7597-2.1028 13.375-2.0938s9.0212 0.74171 12.156 2.1562c2.1539 0.97183 3.4036 2.1594 3.8438 3.4062 0.66746-1.9527-0.55501-3.9224-3.8438-5.4062-3.1351-1.4145-7.541-2.1477-12.156-2.1562zm50.5 0.0937c-4.6335-9e-3 -9.3708 0.68968-13.125 2.0938-4.8124 1.7999-6.8775 4.326-6.0312 6.6875 0.56207-1.7174 2.5725-3.3939 6.0312-4.6875 3.7542-1.4041 8.4915-2.1028 13.125-2.0938s9.153 0.73856 12.5 2.1562c2.5656 1.0867 4.0549 2.4328 4.5312 3.8438 0.71268-2.0934-0.77036-4.2508-4.5312-5.8438-3.347-1.4177-7.8665-2.1477-12.5-2.1562zm50.688 0.0937c-4.6518-9e-3 -9.3062 0.68653-12.875 2.0938-4.27 1.6837-6.0252 4.0201-5.2812 6.25 0.52976-1.5644 2.279-3.0661 5.2812-4.25 3.5688-1.4072 8.2232-2.1028 12.875-2.0938s9.3144 0.73536 12.875 2.1562c2.9835 1.1906 4.7192 2.6978 5.25 4.25 0.75714-2.2175-0.98742-4.549-5.25-6.25-3.5606-1.4209-8.2232-2.1476-12.875-2.1562zm-137.12 36.42c-3.6716 0.26995-5.9819 4.2781-5.7188 10.594 0.28004-5.559 2.8003-8.8431 6.5-8.5938 0.9964 0.0672 2.0754 0.39601 3.2188 1 6.148 3.2478 11.729 13.34 12.406 22.469 0.0246 0.33177 0.0202 0.64916 0.0312 0.96875 0.0545-0.92719 0.0469-1.9151-0.0312-2.9688-0.67692-9.1283-6.2582-19.221-12.406-22.469-1.1433-0.60399-2.2224-0.93284-3.2188-1-0.26986-0.0182-0.52413-0.0189-0.78125 0zm46.56 24.31c-4.2186 0.24194-6.9317 4.4758-6.7188 11.25 0.33666-5.6008 2.9317-9.0328 6.7188-9.25 1.4427-0.0827 3.0582 0.30853 4.7812 1.2188 6.9228 3.6571 12.956 14.35 13.438 23.875 0.0229-0.60414 0.0297-1.2233 0-1.875-0.43532-9.5557-6.4849-20.327-13.438-24-1.723-0.91022-3.3386-1.3015-4.7812-1.2188zm-21.875 20.812c-3.8638 0.0937-6.3315 3.9784-6.0312 10.344 0.2544-5.1759 2.5881-8.2603 6.0312-8.3438 1.3197-0.032 2.8156 0.37474 4.4062 1.2812 6.4155 3.6562 12.084 13.948 12.625 22.906 0.0207-0.63628 0.0421-1.3038 0-2-0.5412-8.9586-6.2095-19.25-12.625-22.906-1.5906-0.90651-3.0866-1.3133-4.4062-1.2812zm118.91 0.5625c-1.5694-0.0472-3.3012 0.35724-5.125 1.25-7.3519 3.5989-13.373 13.855-13.375 22.844-7e-5 0.33294 0.0151 0.64907 0.0312 0.96875 0.4372-8.7275 6.2726-18.351 13.344-21.812 1.8238-0.89276 3.5556-1.2972 5.125-1.25 4.3904 0.13219 7.5187 3.7559 7.875 9.6562 9e-3 -0.22671 0.0293-0.46226 0.0312-0.6875 0.0567-6.6753-3.1979-10.827-7.9062-10.969zm-138.69 18.25c-3.5101-0.0278-5.6778 3.4785-5.375 9.3438 0.24459-4.645 2.2873-7.3682 5.375-7.3438 1.213 0.01 2.5874 0.44446 4.0625 1.3438 5.9471 3.6257 11.312 13.445 11.938 21.875 0.0119 0.16058 0.0229 0.3116 0.0312 0.46875 0.0398-0.77511 0.0341-1.5876-0.0312-2.4688-0.62516-8.4296-5.9904-18.249-11.938-21.875-1.4751-0.89929-2.8494-1.3342-4.0625-1.3438zm44.406 27.156c-3.6695 0.24929-6.0083 3.83-5.7812 9.75 0.34255-5.0847 2.879-7.9455 6.5312-7.75 1.3913 0.0745 2.9659 0.58227 4.625 1.5938 6.6451 4.0512 12.403 14.414 12.875 23.156 0.0282-0.58289 0.0291-1.1743 0-1.8125-0.39998-8.7807-6.1828-19.264-12.875-23.344-1.6591-1.0115-3.2337-1.5193-4.625-1.5938-0.26087-0.014-0.501-0.0169-0.75 0z" fill="#999"/>
   <g transform="translate(-2,2)" fill="#fff">
    <path d="m824.8 456.95c0.15749 1.4821 2.0992 3.2481 4.3546 3.9573 2.2741 0.71507 4.0216 0.0915 3.8852-1.4058-0.13719-1.5059-2.124-3.3046-4.4195-4.0043-2.2763-0.69388-3.9787-0.0377-3.8203 1.4528"/>
    <path d="m779.94 429.03c0.22966 1.4237 2.0309 3.0804 4.0384 3.7116 2.0233 0.63621 3.5032-5e-3 3.2899-1.4423-0.21443-1.4457-2.0546-3.1311-4.0945-3.7529-2.0238-0.61692-3.4647 0.0524-3.2338 1.4836"/>
    <path d="m799.63 411.1c0.20379 1.5115 2.1089 3.2442 4.2722 3.8824 2.1811 0.64342 3.8136-0.0633 3.629-1.591-0.18563-1.5364-2.1342-3.3005-4.3347-3.9275-2.1823-0.62187-3.7713 0.11617-3.5664 1.6361"/>
    <path d="m821.4 391.28c0.17111 1.6104 2.1925 3.4264 4.5339 4.0695 2.3618 0.64871 4.1718-0.13481 4.0234-1.7639-0.14931-1.6388-2.2196-3.4892-4.6044-4.1191-2.364-0.62441-4.125 0.19358-3.9529 1.8135"/>
    <path d="m782.51 368.16c-0.23218-1.5655-2.1437-3.296-4.2525-3.853-2.0915-0.55245-3.571 0.26428-3.3213 1.8124 0.24836 1.5396 2.1178 3.2399 4.192 3.8096 2.0911 0.57437 3.6127-0.21218 3.3818-1.7689"/>
   </g>
   <g fill="#f2f2f2">
    <path d="m803.66 315.85c-1.583-3e-3 -3.243 0.24134-4.5938 0.72188-1.5618 0.5556-2.3892 1.318-2.4062 2.0562 3.8102 0.72356 8.5765 0.5757 12.556-0.45938 0.037-0.57247-0.42763-1.1363-1.4-1.575-1.0753-0.48519-2.5732-0.74081-4.1562-0.74375z"/>
    <path d="m854.84 315.95c-1.5893-3e-3 -3.2186 0.24028-4.5062 0.72187-1.4304 0.53497-2.1614 1.2585-2.1438 1.9688 3.8238 0.82196 8.5905 0.76382 12.534-0.175 0.0815-0.64497-0.43955-1.2817-1.5969-1.7719-1.148-0.48627-2.6982-0.7408-4.2875-0.74375z"/>
    <path d="m906.21 316.05c-1.5956-3e-3 -3.1947 0.2392-4.4188 0.72187-1.275 0.50278-1.9106 1.1712-1.8812 1.8375 3.8559 0.91427 8.6321 0.95465 12.556 0.10938 0.0958-0.6951-0.50789-1.3944-1.8375-1.925-1.2213-0.48736-2.8232-0.74079-4.4188-0.74375z"/>
   </g>
   <path d="m901.15 415.97c-4.9e-4 1.5328 2.0367 2.253 4.5329 1.6207 2.4771-0.62746 4.4921-2.3569 4.5179-3.8748 0.0259-1.5264-1.9672-2.2771-4.4694-1.6647-2.5217 0.61721-4.5809 2.3772-4.5814 3.9188" fill="#fff"/>
  </g>
  <text x="93.871117" y="205.58333" fill="#fffafa" filter="url(#filter8987-9)" font-family="'Liberation Sans'" font-size="26.775px" font-weight="bold" stroke="#000000" stroke-width=".66937" style="font-variant-caps:normal;font-variant-east-asian:normal;font-variant-ligatures:normal;font-variant-numeric:normal;line-height:1.25" xml:space="preserve"><tspan x="93.871117" y="205.58333" style="font-variant-caps:normal;font-variant-east-asian:normal;font-variant-ligatures:normal;font-variant-numeric:normal">Board Game</tspan><tspan x="93.871117" y="239.05196" style="font-variant-caps:normal;font-variant-east-asian:normal;font-variant-ligatures:normal;font-variant-numeric:normal"/></text>
  <g transform="matrix(1.0088 0 0 1.0088 -24.439 -8.8822)" fill="#ffcb00" filter="url(#filter8999-1)" stroke="#f00" stroke-width=".78748" style="font-variant-caps:normal;font-variant-east-asian:normal;font-variant-ligatures:normal;font-variant-numeric:normal" aria-label="FIESTA">
   <path d="m125.25 255.94q-0.13842 0-0.19994-0.0308-0.0461-0.0308-0.90745-0.13842-2.1533-0.24609-3.8759-0.33838-1.4304-0.0923-2.2456-0.24608-1.3996-0.26147-2.2302-1.0151-1.0305-0.92283-1.4919-1.5227-0.29223-0.35375-0.50756-0.79979-0.0923-0.21532-0.15381-0.32299-0.13842-0.18456-0.39989-0.33837 0-0.0154-0.0154-0.0154-0.32299-0.21533-0.66136-0.58446-1.1228-1.1535-1.5227-3.8144-0.23071-1.7841-0.23071-4.0297 0-7.1366 1.5842-13.612 0.64598-2.6454 1.9687-4.2296 0.75364-0.90745 1.7072-1.6611 3.9374-2.83 10.028-2.83 3.1992 0 6.5367 0.7075 2.3225 0.49218 2.9684 0.76903 0.78441 0.36913 0.98436 1.2612 0.0308 0.19994 0.0923 0.33837 0.0308 0 0.18456 0.0615 0.15381 0.0461 0.36914 0.0923 0.5537 0.15381 0.86131 0.35376 0.32299 0.19994 0.84592 0.73826 0.53832 0.52294 0.73827 0.81517 0.32299 0.47679 0.32299 1.1535 0 0.59984-0.1538 1.1074-0.72289 2.184-2.7993 4.4296-2.2302 2.3532-4.3527 2.3532-0.43065 0-0.90745-0.0769-1.3227-0.19995-2.7224-0.19995 0.32299 0.50756 0.38452 1.2766 0.0308 0.32299 0.0615 0.32299l0.0308-0.0154q0.26147-0.0923 0.67674-0.0923 0.41528 0 0.79979 0.24609 0.26147 0.16919 0.72288 0.61522 0.59984 0.59984 0.72289 0.78441 0.27685 0.36913 0.33837 1.1535 0.0769 0.7844 0.23071 1.3996 0.2307 0.92284 0.2307 1.9072 0 2.1686-2.9223 2.9377-0.63061 0.18456-1.1382 0.24609-0.50756 0.0461-1.3074 0.0461-1.5688 0-2.9838-0.32299l-0.59984-0.12305 0.0308 1.0151q0.0308 1.4458 0.26147 2.5532 0.4768 2.3378 1.9995 4.7218 0.4768 0.75365 0.4768 1.2458 0 0.13843-0.0308 0.27685-0.21532 1.0305-1.1997 1.3535-0.26146 0.0769-0.59984 0.0769zm-0.61522-1.9072q0.0462-0.0154 0.0769-0.0308 0.0308-0.0308 0.0615-0.0462 0.19994-0.0923 0.29223-0.26146 0.10766-0.16919 0.10766-0.53832-0.0308-0.15381-0.23071-0.41528l-0.52293-0.86131q-0.27685-0.50755-0.30761-0.53831-0.0308-0.0308-0.0769-0.13843-0.16918-0.29223-0.27685-0.53832l-0.0923-0.19994q-0.0615-0.24609-0.23071-0.58446-0.99973-2.4609-0.99973-5.4755 0-1.1074 0.0769-1.9072 0.43066 0.19995 1.5073 0.41527 1.5227 0.33837 2.9223 0.33837 1.1228 0 1.738-0.12304 2.2148-0.49218 2.6454-1.5534 0.0615-0.21533 0.0615-0.56908 0-0.84593-0.21533-1.7072-0.18456-0.66136-0.26147-1.5688-0.0308-0.67674-0.43065-0.86131-0.23071-0.0923-0.30761-0.0923t-0.18457 0.0461q-0.10766 0.0308-0.18456 0.0769t-0.0769 0.0769q0 0.0769 0.0923 0.53832 0.0923 0.58446 0.0923 1.1535 0 0.58446-0.0923 0.93821-0.15381 0.4768-0.5537 0.86131-0.96897 0.90745-3.0453 1.2458-0.49218 0.0769-1.861 0.0769-0.76902 0-2.0148-0.21532-0.98436-0.16919-1.3074-0.26147h-0.0154l-0.0308 0.10766q-0.0154 0.0923-0.0154 0.72289 0 4.2758 2.384 7.9671 0.21533 0.30762 0.29223 0.52294 0.0769 0.19995 0.0769 0.50756-0.0461 0.89207-0.86131 1.3227-0.19994 0.0923-0.61522 0.0923-0.41527 0-1.2458-0.10767-1.9687-0.26147-3.8759-0.38451l-0.95359-0.0615-1.1997-0.13843q0 0.0154 0.0461 0.0923 0.0461 0.0615 0.12304 0.18456 0.50756 0.67675 1.415 0.98436t2.6454 0.39989q0.92283 0.0308 2.6916 0.21533l1.7995 0.21532q0.59984 0.0769 0.87669 0.0769zm-0.41527-19.318q0.0769 0 0.10766-0.24609 0.29223-1.5227 0.41528-1.7072 0.0615-0.0308 0.39989-0.10766 0.64598-0.12305 1.415-0.15381 0.76902-0.0461 2.0148-0.0461 1.5073 0 2.4763 0.18457 0.39989 0.0615 0.72288 0.0615 1.615 0 3.476-1.8764 1.4765-1.4919 2.3686-3.276 0.49218-1.0305 0.49218-1.7072 0-0.89207-0.78441-1.1228l-0.32299-0.10766q-0.35375-0.0923-0.44604-0.0923h-0.0154q-0.29223 1.0459-1.1689 2.3994-0.8613 1.3381-1.9533 2.3994-1.9226 1.9379-3.8759 1.9379-0.44604 0-0.89207-0.0923-0.96897-0.18457-2.5378-0.18457-2.7685 0-2.9992 0.23071 0 0.0154-0.0615 0.23071-0.0461 0.21532-0.0923 0.52293l-0.33837 1.5381-0.15381 0.79978q0.10766 0.0615 0.86131 0.24609 0.75364 0.16919 0.89207 0.16919z" style="font-variant-caps:normal;font-variant-east-asian:normal;font-variant-ligatures:normal;font-variant-numeric:normal"/>
   <path d="m159.06 254.51-0.89207-0.0154q-0.92283 0-3.9528-0.26147-5.6754-0.46141-6.5675-0.61522-0.61522-0.0923-1.1689-0.59984-0.67674-0.61522-1.1382-1.1843t-0.59984-1.3227q-0.0154-0.0923-0.0308-0.13843-0.0154-0.0615-0.27685-0.12304-1.2766-0.41527-1.6457-1.9072-0.0615-0.323-0.0615-0.70751 0-0.52294 0.12305-0.98435 0.35375-0.89207 1.1535-1.2458 0.44603-0.10767 0.72288-0.15381 0.44603-0.0308 0.49218-0.0769l-0.0154-0.0923q-0.30761-0.89207-0.5537-2.1225-0.49218-2.384-0.49218-6.3522 0-3.4452 0.52294-6.3829l0.10766-0.66137q-1.5842-1.615-2.0456-2.384-0.0923-0.19994-0.43065-0.49217-0.59984-0.52294-1.1074-1.1843-0.50756-0.67675-0.72288-1.1997-0.13843-0.30761-0.13843-0.76903 0-0.59984 0.26147-0.98435 0.27685-0.3999 1.0613-0.90745 3.3068-2.2763 7.9056-2.2763 2.3686 0 4.9218 0.75365 2.5685 0.73826 4.2758 2.184 0.52294 0.52294 0.64598 0.66136 0.29223 0.35375 0.73827 0.6306 0.89207 0.58446 1.9226 1.6457 1.5073 1.4765 1.5073 2.8608 0 1.3227-1.2458 2.6608-1.3227 1.4304-2.83 1.4304-0.81517 0-1.7534-0.36913-0.30761-0.10766-1.0459-0.50756-0.7075-0.35375-0.7844-0.35375-0.0769 0.0308-0.35376 0.59984-1.7534 3.276-1.7534 7.6595 0 1.1535 0.0923 1.9841 0.0769 0.61522 0.21533 1.415 0.32299 1.8764 0.44603 2.2148 0.0461 0.0461 0.30761 0.0769 1.7841 0.43065 2.707 1.8303 0.23071 0.35375 0.44604 0.43066 0.92283 0.35375 2.1533 1.6611 1.5842 1.6919 1.5842 3.4914 0 1.6303-1.4612 2.0918-0.16918 0.0615-1.2458 0.0923zm-0.49217-1.8918q0.43065-0.0154 0.6306-0.0769 0.69212-0.24609 0.69212-1.1997 0-0.70751-0.39989-1.4612-0.38452-0.75365-0.83055-1.1228l-0.24609-0.21533 0.0154 0.6306q0 1.6765-1.5227 1.938-0.26147 0.0615-0.92283 0.0615-2.2302 0-9.013-0.64598-0.90746-0.0923-1.1074-0.0923-0.10767 0-0.10767 0.0615 0 0.0769 0.12305 0.36913 0.13842 0.29223 0.33837 0.4768l0.19995 0.19994q0.12304 0.12305 0.47679 0.19995t1.9226 0.19995l2.2763 0.21532q5.2755 0.46142 6.7982 0.46142zm-6.0292-7.7825q0.32299 0 0.32299-0.0769 0-0.0923-0.16918-0.66136-0.24609-0.95359-0.44604-2.1379-0.32299-1.9226-0.32299-3.6298 0-4.4296 1.8149-8.0132 0.73827-1.4765 0.84593-1.4765 0.24609 0 1.6919 0.72288 0.66136 0.33837 1.1074 0.50756 0.6306 0.24609 1.1843 0.24609 0.89207 0 1.7072-0.7075 1.415-1.3535 1.415-2.384 0-1.1382-1.4612-2.3532v0.2307q0 0.75365-0.6306 1.6919-0.61522 0.92283-1.5073 1.5227-0.78441 0.52294-1.738 0.52294-1.1689 0-2.6762-0.84593-0.89207-0.44603-0.95359-0.44603-0.10766 0-0.79979 1.4765-1.4612 3.1376-1.4612 7.0289 0 4.1066 1.7226 8.6746 0.0154 0.0461 0.0461 0.0769 0.0461 0.0308 0.30761 0.0308z" style="font-variant-caps:normal;font-variant-east-asian:normal;font-variant-ligatures:normal;font-variant-numeric:normal"/>
   <path d="m183.94 254.85h-0.44603q-0.38452 0-0.56908-0.0154-3.1992-0.32299-5.2294-1.3842-1.2458-0.61522-2.5224-1.9687-0.76903-0.79979-1.1228-1.5073-0.19995-0.35375-0.46142-0.53832-2.061-1.615-2.061-4.0758 0-2.5839 2.5839-5.3678l0.26147-0.30761q-1.0766-0.6306-1.292-0.76902-1.6457-1.0459-3.0607-2.507-1.0459-1.0612-1.6765-1.9687-0.44604-0.52294-0.69213-0.78441-2.7224-2.7531-2.8915-6.1061v-0.26147q0-3.9374 3.6606-6.4137 2.3071-1.5227 6.0907-1.9379 1.1843-0.0923 2.7531-0.0923 0.93821 0 1.5996 0.0308 5.7677 0.36914 11.274 2.5224 0.56908 0.21533 0.87669 0.35375 0.49218 0.23071 0.73826 0.4768 0.38452 0.36913 0.5537 1.092 0.83055 0.35376 1.2612 0.5537 0.33838 0.15381 0.67675 0.4768 0.86131 0.79978 1.1535 1.2612 0.32299 0.53832 0.32299 1.2612 0 1.4612-1.5073 4.3834-0.86131 1.6765-1.861 3.03-0.98435 1.3535-1.7841 1.8918-0.75364 0.49217-1.4919 0.49217-0.6306 0-1.0766-0.27685-0.35375-0.19994-0.92283-0.76902t-1.0305-1.2151l-0.35375-0.49218q-0.69212-0.92283-2.1379-1.6611-2.0148-1.0305-3.9989-1.0305h-0.53832q-0.6306 0-1.1228 0.27685 2.2302 0.92283 3.9374 1.4919 1.3535 0.43065 2.0456 0.78441 0.69212 0.35375 1.1228 0.84592 0.32299 0.35376 0.43065 0.58446 0.0769 0.12305 0.13843 0.18457 0.0923 0.13842 0.39989 0.26147 0.84593 0.41527 1.6611 1.1843 0.86131 0.81517 1.1843 1.4612 0.29223 0.53832 0.29223 1.1689l-0.0154 0.26147q0 1.1535-1.2151 2.6147l-0.36913 0.44604q0.0154 0.21533 0.0308 0.41527 0.0308 0.19995 0.0461 0.33837 0.0154 0.12305 0.0308 0.13843l0.12305-0.0154q0.23071-0.0769 0.50756-0.0769l0.30761 0.0154q0.44603 0.0615 0.89207 0.44603 0.79978 0.72289 1.1382 1.1535 0.18457 0.24609 0.24609 0.58446 0.0769 0.32299 0.13843 0.96897 0.12304 1.1228 0.44603 2.2302 0.36913 1.292 0.36913 2.0764 0 2.9223-5.3524 3.6913-0.87669 0.0923-2.4916 0.0923zm-8.567-16.242q0.0615 0 0.30761-0.24609 0.21533-0.18457 0.21533-0.24609 0-0.0154-0.0154-0.0154t-0.16919-0.0461q-0.13842-0.0461-0.33837-0.0923l-0.10766-0.0308q-1.1843-0.33838-2.4455-0.86131l-0.56908-0.23071q0 0.0461 0.53832 0.39989 0.53831 0.33837 0.7844 0.49218 0.15381 0.0769 0.43066 0.23071 0.27685 0.13842 0.58446 0.27685 0.75364 0.36913 0.7844 0.36913zm8.567 14.365q2.7531-0.0769 4.5065-0.96897 0.69213-0.33837 0.99974-0.6306 0.47679-0.44604 0.47679-1.1997 0-0.50756-0.36913-1.8303-0.53832-2.0456-0.53832-2.9838 0-0.43066-0.32299-0.66137-0.16919-0.12304-0.36913-0.12304-0.15381 0-0.32299 0.0769h-0.0308q-0.15381 0.0615-0.15381 0.19995 0 0.0923 0.16919 0.72288 0.0154 0.0154 0.0154 0.0461 0.24609 0.86131 0.33837 1.292 0.10766 0.59984 0.10766 1.1228 0 0.26146-0.0461 0.49217-0.23071 1.2151-1.861 1.9687-2.0148 1.0151-5.1679 1.0151-3.0146 0-5.2294-0.75364l-0.3999-0.12305q0.12305 0.0923 0.24609 0.19995 0.12305 0.0923 0.21533 0.18457l0.35375 0.26146q2.0302 1.3535 5.66 1.6765 0.35375 0.0154 1.2151 0.0154zm-2.4609-9.2744q0.75364 0 2.1994-0.81517 0.81517-0.46141 1.415-0.92283 0.89207-0.7075 1.6765-1.9379 0.46141-0.73827 0.46141-1.3842 0-0.75365-0.64598-1.3996h-0.0154q-0.32299-0.32299-0.36913-0.32299-0.0461 0-0.30761-0.16918l-0.0923-0.0615-0.0615 0.19995q-0.24609 1.2458-1.6303 2.7224-1.6765 1.8457-2.507 3.4452-0.26147 0.5537-0.26147 0.59984 0 0.0461 0.13843 0.0461zm-5.8292-13.412q1.0613-0.96897 3.0146-0.96897 1.2766 0 2.8146 0.47679 0.49217 0.18457 0.6306 0.18457 0-0.0461-0.4768-0.38452-0.53832-0.38451-1.4765-0.83054-1.8764-0.89207-3.7375-0.89207-1.0766 0-1.9226 0.36913-0.44603 0.18457-0.44603 0.43065 0 0.38452 0.79978 1.0459 0.3999 0.33837 0.79979 0.56908zm12.55 4.4757q0.89207 0 2.1071-1.5073 1.3381-1.7226 2.384-3.8605 1.0459-2.1533 1.1228-3.3376 0-0.3999-0.0769-0.63061-0.0769-0.24608-0.30761-0.46141t-0.64598-0.38451l-0.4768-0.15381-0.12304 0.49218q-0.29223 1.1074-1.092 2.7224-0.79979 1.615-1.6919 2.9223-1.5534 2.2148-2.6608 2.6147l-0.24608 0.0769 0.13842 0.23071 0.33837 0.52293q0.33837 0.53832 0.69213 0.67675 0.18456 0.0769 0.53831 0.0769z" style="font-variant-caps:normal;font-variant-east-asian:normal;font-variant-ligatures:normal;font-variant-numeric:normal"/>
   <path d="m205.37 255.74q-0.38451 0-0.69213-0.0154-1.3381 0-3.1684-0.53831-0.66136-0.18457-1.1228-0.49218-0.46142-0.29223-1.1074-0.92283-0.99973-0.99974-1.3689-1.7688-0.24609-0.43066-0.33837-0.49218-0.0769-0.0769-0.23071-0.18456-1.5073-0.98436-1.9226-3.1684-0.13842-0.72289-0.13842-1.5534 0-0.21533 0.0154-0.36914 0.18457-1.1843 1.1535-1.4304 0.12304-0.0154 0.61522-0.0154 0.13842 0.0154 0.5537 0.2307 0.6306 0.30761 1.3996 0.44604 0.78441 0.0923 3.0454 0.0923 0.47679 0 0.84593-0.0615l-0.49218-0.21533q-1.6303-0.66136-3.276-2.3532-1.1689-1.1535-1.6303-1.9226-0.19994-0.30761-0.53831-0.61522-1.9533-1.7072-2.4148-4.2912-0.0769-0.46141-0.0769-1.092 0-0.9536 0.0923-1.5381 0.75365-3.7067 3.799-6.5829 3.0607-2.8915 7.4749-4.0451 2.3532-0.59984 4.8295-0.59984 2.3071 0 4.7372 0.52293 0.64598 0.13843 0.96897 0.27685 0.33837 0.13843 0.58446 0.38452 0.46141 0.53832 0.5537 1.0459 0 0.0923 0.0154 0.16919 0.0308 0.0615 0.21532 0.10766 0.90746 0.23071 1.2458 0.44604 0.35375 0.21532 0.90745 0.79978 0.50755 0.52294 0.72288 0.90745 0.32299 0.58446 0.32299 1.4612 0 0.79979-0.32299 2.061-0.32299 1.2458-1.0612 2.5532-0.52294 0.93821-1.1997 1.6303-1.3074 1.4458-2.9838 1.4458-0.35376 0-0.70751-0.0615-1.0766-0.13842-1.9841-0.13842-0.33837 0-0.66136 0.0154-2.184 0.21532-3.4145 0.83054l-0.0769 0.0615 0.89207 0.12304q4.445 0.56908 6.3368 2.4455 0.32299 0.26147 0.56908 0.61522 0.1538 0.23071 0.53832 0.44604l0.7844 0.52294q0.46142 0.36913 1.3842 1.292 1.4612 1.5227 1.4612 3.353 0 2.5224-2.1225 4.8756-2.1071 2.3532-5.7369 3.8144-3.6144 1.4765-7.275 1.4919zm1.738-11.043q0.36913-0.12304 0.61522-0.18456 0.56908-0.16919 0.83055-0.30761l0.0461-0.0154q0.21532-0.0769 0.21532-0.12305 0-0.0461-0.59984-0.18456h-0.0461q-1.5227-0.3999-4.1066-0.72289-2.184-0.27685-3.5837-0.76902l-0.52293-0.15381q0 0.0308 0.26146 0.23071 1.9226 1.538 5.4447 2.061 1.1228 0.16918 1.4458 0.16918zm-2.707 9.1514q1.2151 0 1.9995-0.10766 3.5837-0.49218 6.4906-1.9841 2.9069-1.5073 4.4911-3.6759 1.2304-1.7072 1.2304-3.4145 0-0.99973-0.46141-1.7995-0.0461-0.0923-0.19995-0.26147-0.13842-0.16918-0.30761-0.35375-0.16918-0.18457-0.30761-0.30761-0.12304-0.13842-0.1538-0.13842-0.0308 0-0.0308 0.61522 0 2.2609-1.738 4.3988-1.5227 1.8457-4.122 3.2453-2.5993 1.3842-5.6754 1.9995-0.93822 0.18457-1.615 0.24609-0.66136 0.0615-1.6918 0.0615-0.99974 0-1.5688-0.0461-0.67674-0.0461-1.5073-0.26147l-0.0923-0.0154q-0.0308 0-0.0461 0.0154 0 0.0154 0.10766 0.15381 0.21533 0.30761 0.50756 0.53831 0.64598 0.56908 2.4301 0.89207 1.1228 0.19995 1.7995 0.19995zm1.0612-17.534 0.39989-0.38451q1.3535-1.4304 4.3834-1.861 0.64598-0.0923 1.6457-0.0923 0.98435 0.0154 1.8149 0.10767 0.52294 0.0769 1.0305 0.0769 1.3842-0.12305 2.6454-1.9226 0.98436-1.4304 1.4919-3.3837 0.21533-0.86131 0.21533-1.415 0-0.19994-0.0308-0.35375-0.16919-1.092-1.092-1.2612l-0.35375-0.0769q-0.0461 0-0.0461 0.10766 0 0.18456-0.10767 0.69212-0.73826 3.1376-2.4763 4.8756-1.1843 1.2612-2.5839 1.2612-0.53831 0-1.2766-0.0923-0.66136-0.0769-1.5073-0.0769-0.86131 0-1.415 0.0769-1.8303 0.29223-2.83 0.79978-0.69213 0.36913-1.2151 0.89207-0.50756 0.50756-0.50756 0.81517 0 0.16919 0.21533 0.39989 0.32299 0.36914 0.87669 0.5537 0.50755 0.21533 0.72288 0.26147z" style="font-variant-caps:normal;font-variant-east-asian:normal;font-variant-ligatures:normal;font-variant-numeric:normal"/>
   <path d="m240.35 255.48q-0.30761 0-0.58446-0.0615-0.75365-0.19994-2.0918-1.5073-1.092-1.0612-1.6457-1.9379-0.21532-0.32299-0.41527-0.52294-0.18457-0.13842-0.4768-0.44604-2.6762-2.6608-3.5837-8.8899-0.24609-1.7841-0.24609-3.9836 0-1.5842-0.0308-1.5842l-0.10766 0.0308q-2.7377 0.69212-3.7375 0.69212-0.58446 0-1.0459-0.30761-0.44604-0.32299-1.3842-1.3535-0.61522-0.64598-0.83055-1.5996-0.0308-0.12304-0.21532-0.1538-0.56908-0.10767-1.0459-0.66136-0.59984-0.69213-0.75364-1.6765-0.0461-0.23071-0.0461-0.96897 0-0.81517 0.0308-0.9536 0.19994-1.292 1.2612-2.1225 4.0758-3.2453 12.674-4.5219 2.6147-0.39989 5.2448-0.39989 2.1379 0 4.2758 0.26147 1.3842 0.1538 2.4763 0.50755 1.2151 0.41528 2.2456 1.092 1.0305 0.66136 1.4304 1.3073 0.12305 0.19995 0.5537 0.46142 0.98435 0.58446 1.9533 1.5842 0.52293 0.52294 0.73826 0.81517 0.41528 0.61522 0.41528 1.2766 0 0.87669-0.76903 1.9995-0.75365 1.1997-1.0305 2.2302-0.18456 0.75364-0.26146 1.9995-0.0615 0.69213-0.13843 0.93821-0.23071 0.58446-0.86131 0.90746-0.27685 0.12304-0.73826 0.12304-0.43066 0-0.70751-0.12304-0.26147-0.12305-0.75364-0.56908-2.5532-2.2456-5.9215-2.6916-0.38451-0.0769-0.53832-0.0769-0.16918 0-0.32299 0.35375l-0.0461 0.12305q-1.2304 2.8915-1.2304 6.2906 0 3.3376 1.1074 7.6749l0.38452 1.6765q0.33837 1.5534 0.33837 2.061 0 0.323-0.12305 0.61523-0.36913 1.2304-1.861 1.7841-0.87669 0.30761-1.5842 0.30761zm-13.796-20.102q0.18457 0 0.44604-0.0461l0.41527-0.0615q1.1997-0.16919 3.0146-0.67675l0.27685-0.0769q0.64599-0.15381 0.72289-0.29223 0.0461-0.0769 0.0615-0.24609 0-0.32299 0.24609-1.4765l0.0308-0.23071-0.0154-0.0308h-0.0154q-0.19995 0-2.4301 0.61522-2.1379 0.61522-3.4914 0.86131-0.64598 0.10767-0.64598 0.15381 0 0.13842 0.18456 0.52294 0.46142 0.98435 1.1997 0.98435zm12.766 18.226q0.4768 0 0.98436-0.13842 1.415-0.3999 1.6611-1.3381 0.0615-0.1538 0.0615-0.27685 0-0.5537-0.66136-3.3068-0.81516-3.353-1.0612-5.9215-0.0615-0.59984-0.0615-1.9687 0-1.3842 0.0615-2.0456 0.26147-2.9377 1.7072-5.9369 1.0151 0 2.1225 0.23071 0.7075 0.13842 1.7995 0.47679 0.61522 0.19995 0.66136 0.19995l-0.6306-0.43066q-2.1687-1.4612-4.891-1.8457l-0.69212-0.0615q-0.0308 0-0.0769 0.0154t-0.16919 0.26147v0.0308q-0.99973 2.2148-1.2612 4.4911-0.12305 1.1382-0.12305 2.3225 0 1.092 0.16919 2.8454 0.18457 1.738 0.99973 5.0602 0.64599 2.7377 0.64599 3.3376 0 0.16918-0.0462 0.39989-0.0769 0.5537-0.59984 1.0766-0.50755 0.52294-1.3227 0.79978-0.41527 0.13843-1.1997 0.27685 0.56908 0.67675 1.0305 1.0151 0.5537 0.43065 0.89207 0.43065zm11.382-17.411q0.43065 0 0.66136-0.3999 0.0615-0.26147 0.0923-0.83054 0.12305-1.7841 0.52294-2.7531 0.39989-0.96897 0.98435-1.8918 0.5537-0.86131 0.5537-1.3689 0-0.39989-0.27685-0.76902-0.13842-0.18457-0.41527-0.43066-0.33837-0.30761-0.3999-0.30761-0.0461 0-0.39989-0.26147l-0.0923 0.27685q-0.15381 0.46142-0.59984 1.1535-0.78441 1.2304-1.0613 2.2917-0.19994 0.79979-0.27685 2.0148-0.0461 0.66136-0.12304 0.87669-0.10766 0.30761-0.41528 0.58446-0.30761 0.26146-0.76902 0.35375l0.59984 0.46141q0.83055 0.72289 0.98435 0.83055 0.19995 0.16919 0.43066 0.16919z" style="font-variant-caps:normal;font-variant-east-asian:normal;font-variant-ligatures:normal;font-variant-numeric:normal"/>
   <path d="m265.25 236.64q0.10766 0 0.13842-0.0923 0.0308-0.0923 0.0308-0.33837 0.0308-0.75365 0.18456-1.7688l0.0154-0.13843-0.0154-0.0154q-0.0154 0-0.0461 0.0461-0.0308 0.0308-0.21533 0.35376-0.18456 0.30761-0.43065 0.7075-0.23071 0.39989-0.41528 0.72288-0.16918 0.30761-0.18456 0.35376 0 0.0615 0.41527 0.12304 0.10767 0 0.18457 0.0154 0.23071 0.0308 0.33837 0.0308zm15.811 19.287h-0.43065q-0.0769-0.0461-3.7836-0.64598-3.0607-0.46142-4.5988-1.0151-1.1228-0.39989-2.0764-1.292-1.3381-1.2458-1.938-2.2609-0.26147-0.43066-0.53832-0.61523-1.2151-0.90745-2.0764-2.953-0.38451-0.89207-0.38451-1.0305 0-0.0461-0.0154-0.0461-0.0461 0-0.46142 0.64598-2.3532 3.6913-4.5065 5.8292-3.0453 2.9684-6.2906 2.9684-1.415 0-2.1225-0.49218-0.21533-0.15381-0.5537-0.49218-0.83055-0.7844-1.0766-1.1997-0.33837-0.67674-0.33837-1.092 0-0.10767-0.0461-0.13843-0.0461-0.0461-0.27685-0.0769-1.1997-0.33837-1.5688-1.6303-0.0923-0.33837-0.0923-0.72288 0-0.50756 0.1538-1.1074 0.39989-1.4458 1.2304-2.6608 1.1382-1.6765 2.3532-1.8918 0.6306-0.16919 1.092-0.44604 1.4765-0.93821 3.2607-3.2607 0.33837-0.43065 0.52294-0.7075 0.19994-0.29223 0.19994-0.32299l-0.43065-0.0923q-1.415-0.27685-1.415-1.4765 0-0.36914 0.12304-0.6306 0.13843-0.27685 0.4768-0.59984 0.98435-0.98436 3.1222-1.1382 0.16919-0.0154 0.30762-0.0308 0.1538-0.0154 0.24608-0.0154 0.0923 0 0.67675-0.98436 0.59984-0.98435 1.2458-2.0456 3.0453-5.1063 4.4604-7.2596 1.415-2.1686 2.6762-3.5837 0.98435-1.1535 1.6919-1.6919 1.0612-0.83055 2.5532-0.99973 1.5688-0.16919 3.3222-0.16919 0.53832 0 0.79979 0.0769 0.26147 0.0615 0.49218 0.2307 0.64598 0.49218 0.64598 1.415v0.19995l0.41527 0.0308q0.64598 0.0308 1.0305 0.23071 0.39989 0.18456 0.98435 0.76902t0.76903 0.98436q0.1538 0.33837 0.1538 0.92283 0 1.1689-0.46141 2.4763-0.44604 1.3073-1.738 3.9836-2.2148 4.6603-2.8608 7.4903-0.0154 0.0154-0.0154 0.0461-0.10766 0.49217-0.10766 0.58446 0 0.21532 0.24608 0.53832 0.323 0.44603 0.53832 0.53831 0.52294 0.23071 1.2766 0.86131 2.2302 1.8918 2.8608 4.4142 0.0769 0.38451 0.0769 0.72289 0 1.6457-1.5688 1.9379-0.13842 0.0308-0.27685 0.0308-0.67674 0-1.3689-0.6306-0.23071-0.19995-0.53832-0.39989-0.58446-0.35376-0.76903-0.35376-0.0308 0-0.0308 0.0154 0 0.10766 0.46142 1.0151 1.4304 2.8915 4.1066 5.1063 1.5073 1.2612 1.738 1.9533 0.0615 0.18456 0.0615 0.50755 0 1.0613-0.9536 1.5534-0.27685 0.12304-0.66136 0.12304zm-27.731-2.3225q1.7226 0 3.6144-1.2612 3.153-2.0456 7.5672-9.4898-0.2307-2.507-0.24608-2.5224-0.0154-0.0154-0.3999-0.0923-0.30761-0.0615-0.39989-0.0615 0 0.0154-0.66136 1.092-2.7377 4.5988-4.9372 7.0596-2.6762 2.9992-5.4139 3.6452-0.69212 0.16918-1.5842 0.21532 0.12304 0.5537 0.21532 0.67675 0.36914 0.56908 1.0613 0.69212 0.26147 0.0461 0.7075 0.0461zm26.67 0.46142q0.2307 0 0.38451-0.0615 0.43065-0.19995 0.43065-0.67675 0-0.1538-0.0615-0.29223-0.12304-0.16918-0.79979-0.72288-0.66136-0.56908-0.7075-0.56908-0.5537 0.81517-1.2304 0.81517-0.5537 0-1.738-0.19995l-1.9841-0.33837q-2.8454-0.41527-4.568-0.89207l0.29223 0.27685q0.76903 0.7844 2.1533 1.1997 1.4458 0.43065 3.7836 0.79979 0.86131 0.12304 1.7534 0.26146 0.89207 0.13843 1.5073 0.24609 0.61522 0.10767 0.64598 0.13843 0.0461 0.0154 0.13843 0.0154zm-1.9533-8.9361q0.92283 0 0.92283-1.0305 0-0.38451-0.19995-0.90745-0.46141-1.3842-1.2766-2.2763l-0.23071-0.26147q0.24609 0.79978 0.24609 1.2766 0 1.092-0.87669 1.5688-0.35375 0.18457-0.72288 0.18457-0.12305 0-0.23071-0.0154t-0.24609-0.0308l0.35375 0.1538q0.92284 0.35375 1.5996 0.95359 0.35375 0.38452 0.66136 0.38452zm-4.1527-8.2747q0.10766 0 0.13843-0.24609 0.33837-1.7688 1.3996-4.3834 0.81517-2.061 1.7841-4.0143 1.092-2.2917 1.5227-3.4914 0.43066-1.1997 0.43066-2.0302 0-0.7075-0.21533-0.93821t-0.87669-0.23071l-0.46141-0.0154q-0.4768 1.7688-1.8303 4.5834-2.6301 5.4447-3.2453 8.5516-0.0461 0.21533-0.29222 1.8918 0.0154 0 0.10766 0.0308 0.0923 0.0154 0.23071 0.0308l1.0459 0.19995q0.16919 0.0615 0.26147 0.0615zm0.78441 8.8592q0-0.0615-0.0769-0.30761-0.66136-1.8303-0.66136-2.1379 0-0.0461 0.0461-0.0461l0.61522 0.16919q0.50756 0.16918 0.59984 0.16918 0.0154 0 0.0154-0.0154t-0.0769-0.0461q-0.0615-0.0308-0.81517-0.67674-0.21532-0.13843-0.84592-0.44604-0.4768-0.21532-0.6306-0.21532-0.0154 0-0.0154 0.0154 0 0.1538 0.49218 1.2458 0.26147 0.56908 0.78441 1.4304t0.56908 0.86131z" style="font-variant-caps:normal;font-variant-east-asian:normal;font-variant-ligatures:normal;font-variant-numeric:normal"/>
  </g>
  <g transform="matrix(.30618 0 0 .30607 11.186 109)">
   <path transform="matrix(6.2589,-1.5039,1.087,3.6715,-57.342,251.35)" d="m43.125 40.438c0 3.7624-8.7584 6.8125-19.562 6.8125-10.805 0-19.563-3.05-19.563-6.812 0-3.763 8.758-6.813 19.562-6.813s19.562 3.0501 19.562 6.8125z" color="#000000" fill="url(#radialGradient5097)" fill-rule="evenodd" opacity=".55"/>
   <g transform="matrix(5.5169,0,0,5.5169,9.598,211.22)">
    <path transform="matrix(.83999 -.27512 .2748 .83902 -57.699 34.483)" d="m91.08 15.2c0 0.57758-0.46822 1.0458-1.0458 1.0458s-1.0458-0.46822-1.0458-1.0458 0.46822-1.0458 1.0458-1.0458 1.0458 0.46822 1.0458 1.0458z" fill="#980101"/>
    <g transform="matrix(.97002 .01497 -.015471 1.0025 .97493 -.32021)" fill="#d40000">
     <path transform="translate(38.6,-7.2256)" d="m-21.106 37.447c0 0.89263-0.72362 1.6162-1.6162 1.6162-0.89263 0-1.6162-0.72362-1.6162-1.6162 0-0.89263 0.72362-1.6162 1.6162-1.6162 0.89263 0 1.6162 0.72362 1.6162 1.6162z"/>
     <path transform="translate(42.701,-7.6289)" d="m-21.106 37.447c0 0.89263-0.72362 1.6162-1.6162 1.6162-0.89263 0-1.6162-0.72362-1.6162-1.6162 0-0.89263 0.72362-1.6162 1.6162-1.6162 0.89263 0 1.6162 0.72362 1.6162 1.6162z"/>
     <path transform="translate(46.667,-8.6373)" d="m-21.106 37.447c0 0.89263-0.72362 1.6162-1.6162 1.6162-0.89263 0-1.6162-0.72362-1.6162-1.6162 0-0.89263 0.72362-1.6162 1.6162-1.6162 0.89263 0 1.6162 0.72362 1.6162 1.6162z"/>
     <path transform="translate(50.499,-10.116)" d="m-21.106 37.447c0 0.89263-0.72362 1.6162-1.6162 1.6162-0.89263 0-1.6162-0.72362-1.6162-1.6162 0-0.89263 0.72362-1.6162 1.6162-1.6162 0.89263 0 1.6162 0.72362 1.6162 1.6162z"/>
     <path transform="translate(54.052,-11.989)" d="m-21.106 37.447c0 0.89263-0.72362 1.6162-1.6162 1.6162-0.89263 0-1.6162-0.72362-1.6162-1.6162 0-0.89263 0.72362-1.6162 1.6162-1.6162 0.89263 0 1.6162 0.72362 1.6162 1.6162z"/>
     <path transform="translate(57.289,-14.352)" d="m-21.106 37.447c0 0.89263-0.72362 1.6162-1.6162 1.6162-0.89263 0-1.6162-0.72362-1.6162-1.6162 0-0.89263 0.72362-1.6162 1.6162-1.6162 0.89263 0 1.6162 0.72362 1.6162 1.6162z"/>
     <path transform="matrix(.91681 0 0 .91681 58.02 -14.06)" d="m-21.106 37.447c0 0.89263-0.72362 1.6162-1.6162 1.6162-0.89263 0-1.6162-0.72362-1.6162-1.6162 0-0.89263 0.72362-1.6162 1.6162-1.6162 0.89263 0 1.6162 0.72362 1.6162 1.6162z"/>
     <path transform="matrix(.83362 0 0 .83362 57.82 -13.984)" d="m-21.106 37.447c0 0.89263-0.72362 1.6162-1.6162 1.6162-0.89263 0-1.6162-0.72362-1.6162-1.6162 0-0.89263 0.72362-1.6162 1.6162-1.6162 0.89263 0 1.6162 0.72362 1.6162 1.6162z"/>
     <path transform="matrix(.77123 0 0 .77123 57.315 -14.582)" d="m-21.106 37.447c0 0.89263-0.72362 1.6162-1.6162 1.6162-0.89263 0-1.6162-0.72362-1.6162-1.6162 0-0.89263 0.72362-1.6162 1.6162-1.6162 0.89263 0 1.6162 0.72362 1.6162 1.6162z"/>
     <path transform="matrix(.66724 0 0 .66724 54.914 -13.41)" d="m-21.106 37.447c0 0.89263-0.72362 1.6162-1.6162 1.6162-0.89263 0-1.6162-0.72362-1.6162-1.6162 0-0.89263 0.72362-1.6162 1.6162-1.6162 0.89263 0 1.6162 0.72362 1.6162 1.6162z"/>
     <path transform="matrix(.56326 0 0 .56326 51.898 -12.028)" d="m-21.106 37.447c0 0.89263-0.72362 1.6162-1.6162 1.6162-0.89263 0-1.6162-0.72362-1.6162-1.6162 0-0.89263 0.72362-1.6162 1.6162-1.6162 0.89263 0 1.6162 0.72362 1.6162 1.6162z"/>
     <path transform="translate(34.297,-7.36)" d="m-21.106 37.447c0 0.89263-0.72362 1.6162-1.6162 1.6162-0.89263 0-1.6162-0.72362-1.6162-1.6162 0-0.89263 0.72362-1.6162 1.6162-1.6162 0.89263 0 1.6162 0.72362 1.6162 1.6162z"/>
     <path transform="translate(30.465,-8.1667)" d="m-21.106 37.447c0 0.89263-0.72362 1.6162-1.6162 1.6162-0.89263 0-1.6162-0.72362-1.6162-1.6162 0-0.89263 0.72362-1.6162 1.6162-1.6162 0.89263 0 1.6162 0.72362 1.6162 1.6162z"/>
     <path transform="matrix(.95841 0 0 .95841 25.823 -8.3571)" d="m-21.106 37.447c0 0.89263-0.72362 1.6162-1.6162 1.6162-0.89263 0-1.6162-0.72362-1.6162-1.6162 0-0.89263 0.72362-1.6162 1.6162-1.6162 0.89263 0 1.6162 0.72362 1.6162 1.6162z"/>
     <path transform="matrix(.87522 0 0 .87522 21.378 -7.6137)" d="m-21.106 37.447c0 0.89263-0.72362 1.6162-1.6162 1.6162-0.89263 0-1.6162-0.72362-1.6162-1.6162 0-0.89263 0.72362-1.6162 1.6162-1.6162 0.89263 0 1.6162 0.72362 1.6162 1.6162z"/>
     <path transform="matrix(.77123 0 0 .77123 17.959 -6.433)" d="m-21.106 37.447c0 0.89263-0.72362 1.6162-1.6162 1.6162-0.89263 0-1.6162-0.72362-1.6162-1.6162 0-0.89263 0.72362-1.6162 1.6162-1.6162 0.89263 0 1.6162 0.72362 1.6162 1.6162z"/>
    </g>
    <path d="m19.696 15.108c5.075-1.662 17.64-14.769 18.646-2.946 0.401 4.716-4.946 11.332-14.711 14.587-9.319 3.106-18.367 0.854-20.712-2.985-6.1832-10.127 11.702-6.993 16.777-8.656z" fill="#fdca01" stroke="url(#linearGradient3281)" stroke-width=".95652"/>
    <path d="m21.905 15.596c4.074-2.601 15.357-11.513 14.34-2.159-0.239 2.195-3.774 9.752-11.545 12.432-7.771 2.681-14.162 0.177-15.744-1.298-10.259-9.57 9.649-6.869 12.949-8.975z" fill="#f0a513" stroke="url(#linearGradient1089)" stroke-width="1.062"/>
    <path d="m26.749 14.702c1.6622 5.075-11.422 9.3605-13.084 4.2855 0 0-3.1175-15.837 1.5555-17.368 4.6729-1.5305 11.529 13.082 11.529 13.082z" fill="#ff9" stroke="url(#linearGradient3289)" stroke-width=".95652"/>
    <path d="m21.074 19.315s13.782-8.2302 12.511-1.9346c-0.29829 1.4775-3.5719 6.6881-10.128 8.8356-6.557 2.148-12.501-0.044-13.615-1.059-4.7493-4.324 11.232-5.842 11.232-5.842z" fill="#ff9" stroke="url(#linearGradient4957)" stroke-width="1.062"/>
    <path d="m26.079 15.639c1.5148 4.6251-9.7003 8.2984-11.215 3.6733 0 0-2.9424-14.4 1.063-15.712 4.005-1.3114 10.152 12.039 10.152 12.039z" fill="#fdca01"/>
    <path d="m13.076 19.085c5.9987 0.21628 9.7488-1.4654 13.988-4.5614 0.39801-0.14554 1.4421-0.12595 1.4399 0.71616-0.17488 1.3418 0.16104 1.8477 0.87061 2.6321 0.13036 0.44435-0.12931 1.1402-0.52732 1.2858-4.0841 3.4058-8.2191 5.116-13.851 4.8329-0.39801 0.14554-1.5305-0.2276-1.6608-0.67196 0.37548-1.3916-0.31338-1.7672-1.0032-2.8089-0.13036-0.44436 0.3457-1.2791 0.74372-1.4247z" fill="#565248"/>
    <path d="m12.917 19.362c-0.91043 0.69862 0.05784 1.8328 0.64038 2.1213 5.3711 0.79841 10.539-1.6751 14.637-4.9497 0.10685-0.82873-0.05064-1.4659-0.91482-1.591-4.4352 3.2234-8.4739 5.1754-14.363 4.4194z" fill="#390"/>
    <path d="m14.142 21.97c5.4232 0.32381 9.8956-1.3913 14.01-4.8172" fill="none" stroke="#ff9" stroke-linecap="round" stroke-linejoin="round" stroke-width=".95652px"/>
    <g fill="#0197fd">
     <path transform="matrix(.058721 -.019233 .016223 .049533 -11.107 27.609)" d="m449.76-29.153c0 7.5972-2.4099 13.756-5.3827 13.756s-5.3827-6.1587-5.3827-13.756c0-7.5972 2.4099-13.756 5.3827-13.756s5.3827 6.1587 5.3827 13.756z"/>
     <path transform="matrix(.058721 -.019233 .019091 .058288 -10.375 27.797)" d="m486.84-20.181c0 7.2668-4.0166 13.158-8.9712 13.158-4.9547 0-8.9712-5.8909-8.9712-13.158 0-7.2668 4.0166-13.158 8.9712-13.158 4.9547 0 8.9712 5.8909 8.9712 13.158z"/>
     <path transform="matrix(.075038 -.024577 .016829 .051383 -17.972 30.208)" d="m523.92-18.985c0 8.5881-3.2132 15.55-7.177 15.55-3.9637 0-7.177-6.962-7.177-15.55 0-8.5881 3.2132-15.55 7.177-15.55 3.9637 0 7.177 6.962 7.177 15.55z"/>
     <path transform="matrix(.058721 -.019233 .019091 .058288 -9.1569 27.559)" d="m568.18-26.162c0 7.2668-3.7488 13.158-8.3731 13.158-4.6244 0-8.3731-5.8909-8.3731-13.158 0-7.2668 3.7488-13.158 8.3731-13.158 4.6244 0 8.3731 5.8909 8.3731 13.158z"/>
     <path transform="matrix(.088351 -.028937 .022036 .067279 -26.763 34.304)" d="m602.87-45.301c0 5.285-1.8744 9.5693-4.1866 9.5693s-4.1866-4.2843-4.1866-9.5693 1.8744-9.5693 4.1866-9.5693 4.1866 4.2843 4.1866 9.5693z"/>
    </g>
    <path d="m15.871 17.888 0.852-2.767 2.3089 2.1776 0.56106-2.8023 2.3856 1.5873 0.0925-2.7152 2.1234 1.254-0.0022-2.2867 1.0594 0.42995-0.20976-0.60992-1.2878-0.50942-0.08206 2.0112-2.2115-1.3052-0.21517 2.5089-2.0837-1.7514-0.60105 2.7555-2.3148-2.0187-0.72553 2.8967-2.0837-2.3106 0.08648 0.89702 2.3478 2.5583z" fill="#fd3301"/>
    <path d="m1.6417 20.173c2.9065 8.9652 14.848 7.3388 21.386 5.7589 9.512-2.286 19.3-14.785 11.287-18.371" fill="none" stroke="url(#linearGradient4959)" stroke-linecap="round" stroke-linejoin="round" stroke-width=".95652px"/>
    <path d="m14.275 22.942c5.4232 0.32381 10.205-1.5239 14.319-4.9497" fill="none" stroke="#f44800" stroke-linecap="round" stroke-linejoin="round" stroke-width=".95652px"/>
    <path d="m14.522 19.637c-0.22186 1.268 0.56235 1.2821 0.6866 2.0382 0.15067 0.91692-1.134 0.63964-0.08471 1.902 6.1991 0.06788 9.3906-1.8497 13.356-4.6397 0.15578-1.2158-0.90921-0.92907-1.5053-1.5301-0.46567-0.46958 0.35266-1.2434-0.61125-1.7448 0 0-3.6583 2.158-5.6484 2.8262-1.9943 0.66968-6.1934 1.1482-6.1934 1.1482z" fill-opacity=".17742"/>
   </g>
  </g>
 </g>
</svg>
