<?xml version="1.0" encoding="UTF-8" standalone="no"?>
<svg
   xmlns:dc="http://purl.org/dc/elements/1.1/"
   xmlns:cc="http://creativecommons.org/ns#"
   xmlns:rdf="http://www.w3.org/1999/02/22-rdf-syntax-ns#"
   xmlns:svg="http://www.w3.org/2000/svg"
   xmlns="http://www.w3.org/2000/svg"
   id="svg8"
   version="1.1"
   viewBox="0 0 210 297"
   height="297mm"
   width="210mm">
  <defs
     id="defs2" />
  <metadata
     id="metadata5">
    <rdf:RDF>
      <cc:Work
         rdf:about="">
        <dc:format>image/svg+xml</dc:format>
        <dc:type
           rdf:resource="http://purl.org/dc/dcmitype/StillImage" />
        <dc:title></dc:title>
      </cc:Work>
    </rdf:RDF>
  </metadata>
  <g
     id="layer1">
    <path
       id="path75"
       d="m 11.219139,1.8480133 8.619443,0.668173 1.336347,3.207234 3.808592,0.868625 1.00226,1.202713 -1.5368,3.7417747 -4.142677,0.400905 -0.467722,1.870884 c 0,0 6.681737,2.472243 5.946748,5.078122 -0.734991,2.605878 -1.804069,5.278572 -1.804069,5.278572 0,0 -0.868627,0.801809 -2.605879,1.737254 -1.737251,0.935442 -0.334086,0.133633 -0.334086,0.133633 l 1.670433,4.677217 c 0,0 2.939965,1.269532 3.140416,3.741774 -0.133633,-0.267268 0,0 0,0 l -1.135896,3.274052 -6.815372,-0.267271 c 0,0 -1.202712,-0.267269 -1.536798,-1.870885 -0.334087,-1.603618 -0.935445,-2.939965 -0.935445,-2.939965 0,0 -2.405425,-2.739514 -2.873148,0.133633 -0.233858,0.384201 0,0 0,0 l -1.670433,3.407688 c 0,0 -0.400905,1.135896 -1.4699834,1.069078 -1.069078,-0.06682 -6.681737,-0.467722 -6.681737,-0.467722 l 2.739512,-5.479024 1.336346,-0.133636 1.269532,-4.677216 c 0,0 -6.080381,-2.605879 -5.34539,-5.278573 0.734991,-2.672696 5.879928,-4.543583 5.879928,-4.543583 l -1.135893,-5.011304 -4.34313,-0.801807 c 0,0 -0.400905,-1.2695307 0.334086,-2.4722447 0.734992,-1.202711 1.870887,-2.672694 1.870887,-2.672694 l 3.407686,-0.334086 z"
       style="fill:#0000ff;fill-opacity:0.74876847;stroke:#000000;stroke-width:0.26458332px;stroke-linecap:butt;stroke-linejoin:miter;stroke-opacity:1" />
  </g>
</svg>
