<?xml version="1.0" encoding="UTF-8" standalone="no"?>
<svg
   xmlns:dc="http://purl.org/dc/elements/1.1/"
   xmlns:cc="http://creativecommons.org/ns#"
   xmlns:rdf="http://www.w3.org/1999/02/22-rdf-syntax-ns#"
   xmlns:svg="http://www.w3.org/2000/svg"
   xmlns="http://www.w3.org/2000/svg"
   xmlns:xlink="http://www.w3.org/1999/xlink"
   xmlns:sodipodi="http://sodipodi.sourceforge.net/DTD/sodipodi-0.dtd"
   xmlns:inkscape="http://www.inkscape.org/namespaces/inkscape"
   sodipodi:docname="favicon.svg"
   inkscape:version="1.0 (6e3e5246a0, 2020-05-07)"
   id="svg2613"
   version="1.1"
   viewBox="0 0 210 297"
   height="297mm"
   width="210mm">
  <defs
     id="defs2607">
    <radialGradient
       id="radialGradient5097"
       gradientUnits="userSpaceOnUse"
       cy="41.173"
       cx="23.226"
       gradientTransform="matrix(1.5660904,-0.37617138,0.08961068,0.3025671,44.16311,143.16618)"
       r="19.562">
      <stop
         id="stop2867"
         offset="0" />
      <stop
         id="stop2869"
         stop-opacity="0"
         offset="1" />
    </radialGradient>
    <linearGradient
       id="linearGradient3281"
       y2="9.5671997"
       gradientUnits="userSpaceOnUse"
       y1="26.968"
       x2="18.004999"
       x1="24.542999">
      <stop
         id="stop4801"
         stop-color="#540"
         offset="0" />
      <stop
         id="stop4803"
         stop-color="#2b2200"
         stop-opacity="0"
         offset="1" />
    </linearGradient>
    <linearGradient
       inkscape:collect="always"
       xlink:href="#linearGradient4955"
       id="linearGradient1089"
       gradientUnits="userSpaceOnUse"
       gradientTransform="matrix(0.77435,-0.20654,0.20505,0.76879,7.9761,21.116)"
       x1="15.731"
       y1="-7.2605"
       x2="17.917"
       y2="2.6973" />
    <linearGradient
       id="linearGradient4955"
       x1="15.731"
       gradientUnits="userSpaceOnUse"
       y1="-7.2605"
       gradientTransform="matrix(0.77435,-0.20654,0.20505,0.76879,7.9761,21.116)"
       x2="17.917"
       y2="2.6973">
      <stop
         id="stop4690"
         stop-color="#fb8b00"
         offset="0" />
      <stop
         id="stop4692"
         stop-color="#986601"
         stop-opacity="0"
         offset="1" />
    </linearGradient>
    <linearGradient
       id="linearGradient3289"
       y2="11.386"
       gradientUnits="userSpaceOnUse"
       y1="12.649"
       x2="6.4169998"
       x1="27.261999">
      <stop
         id="stop3285"
         stop-color="#565248"
         offset="0" />
      <stop
         id="stop3287"
         stop-color="#565248"
         stop-opacity="0"
         offset="1" />
    </linearGradient>
    <linearGradient
       id="linearGradient4957"
       x1="23.450001"
       gradientUnits="userSpaceOnUse"
       y1="19.523001"
       gradientTransform="matrix(0.86898,-0.3655,0.3655,0.86898,-7.9493,8.537)"
       x2="23.573999"
       y2="25.476999">
      <stop
         id="stop4658"
         stop-color="#565248"
         offset="0" />
      <stop
         id="stop4660"
         stop-color="#565248"
         stop-opacity="0"
         offset="1" />
    </linearGradient>
    <linearGradient
       id="linearGradient4959"
       x1="29.849001"
       gradientUnits="userSpaceOnUse"
       y1="31.563999"
       gradientTransform="matrix(0.82042,-0.21882,0.21882,0.82042,-4.1756,5.8937)"
       x2="29.573999"
       y2="22.322001">
      <stop
         id="stop4648"
         stop-color="#eee"
         offset="0" />
      <stop
         id="stop4650"
         stop-color="#eee"
         stop-opacity="0"
         offset="1" />
    </linearGradient>
  </defs>
  <sodipodi:namedview
     inkscape:window-maximized="1"
     inkscape:window-y="27"
     inkscape:window-x="72"
     inkscape:window-height="1016"
     inkscape:window-width="1848"
     showgrid="false"
     inkscape:document-rotation="0"
     inkscape:current-layer="layer1"
     inkscape:document-units="mm"
     inkscape:cy="665.70882"
     inkscape:cx="362.13801"
     inkscape:zoom="1.4"
     inkscape:pageshadow="2"
     inkscape:pageopacity="0.0"
     borderopacity="1.0"
     bordercolor="#666666"
     pagecolor="#ffffff"
     id="base" />
  <metadata
     id="metadata2610">
    <rdf:RDF>
      <cc:Work
         rdf:about="">
        <dc:format>image/svg+xml</dc:format>
        <dc:type
           rdf:resource="http://purl.org/dc/dcmitype/StillImage" />
        <dc:title></dc:title>
      </cc:Work>
    </rdf:RDF>
  </metadata>
  <g
     id="layer1"
     inkscape:groupmode="layer"
     inkscape:label="Laag 1">
    <g
       inkscape:export-ydpi="95"
       inkscape:export-xdpi="95"
       transform="matrix(1.6891554,0,0,1.6885641,46.652264,99.600124)"
       id="g4917">
      <path
         d="m 91.08,15.2 c 0,0.57758 -0.46822,1.0458 -1.0458,1.0458 -0.57758,0 -1.0458,-0.46822 -1.0458,-1.0458 0,-0.57758 0.46822,-1.0458 1.0458,-1.0458 0.57758,0 1.0458,0.46822 1.0458,1.0458 z"
         fill="#980101"
         transform="matrix(0.83999,-0.27512,0.2748,0.83902,-57.699,34.483)"
         id="path4066" />
      <g
         fill="#d40000"
         transform="matrix(0.97002,0.01497,-0.015471,1.0025,0.97493,-0.32021)"
         id="g4891">
        <path
           d="m -21.106,37.447 c 0,0.89263 -0.72362,1.6162 -1.6162,1.6162 -0.89263,0 -1.6162,-0.72362 -1.6162,-1.6162 0,-0.89263 0.72362,-1.6162 1.6162,-1.6162 0.89263,0 1.6162,0.72362 1.6162,1.6162 z"
           transform="translate(38.6,-7.2256)"
           id="path4827-7" />
        <path
           d="m -21.106,37.447 c 0,0.89263 -0.72362,1.6162 -1.6162,1.6162 -0.89263,0 -1.6162,-0.72362 -1.6162,-1.6162 0,-0.89263 0.72362,-1.6162 1.6162,-1.6162 0.89263,0 1.6162,0.72362 1.6162,1.6162 z"
           transform="translate(42.701,-7.6289)"
           id="path4829-2" />
        <path
           d="m -21.106,37.447 c 0,0.89263 -0.72362,1.6162 -1.6162,1.6162 -0.89263,0 -1.6162,-0.72362 -1.6162,-1.6162 0,-0.89263 0.72362,-1.6162 1.6162,-1.6162 0.89263,0 1.6162,0.72362 1.6162,1.6162 z"
           transform="translate(46.667,-8.6373)"
           id="path4831-5" />
        <path
           d="m -21.106,37.447 c 0,0.89263 -0.72362,1.6162 -1.6162,1.6162 -0.89263,0 -1.6162,-0.72362 -1.6162,-1.6162 0,-0.89263 0.72362,-1.6162 1.6162,-1.6162 0.89263,0 1.6162,0.72362 1.6162,1.6162 z"
           transform="translate(50.499,-10.116)"
           id="path4833-3" />
        <path
           d="m -21.106,37.447 c 0,0.89263 -0.72362,1.6162 -1.6162,1.6162 -0.89263,0 -1.6162,-0.72362 -1.6162,-1.6162 0,-0.89263 0.72362,-1.6162 1.6162,-1.6162 0.89263,0 1.6162,0.72362 1.6162,1.6162 z"
           transform="translate(54.052,-11.989)"
           id="path4835-8" />
        <path
           d="m -21.106,37.447 c 0,0.89263 -0.72362,1.6162 -1.6162,1.6162 -0.89263,0 -1.6162,-0.72362 -1.6162,-1.6162 0,-0.89263 0.72362,-1.6162 1.6162,-1.6162 0.89263,0 1.6162,0.72362 1.6162,1.6162 z"
           transform="translate(57.289,-14.352)"
           id="path4837-1" />
        <path
           d="m -21.106,37.447 c 0,0.89263 -0.72362,1.6162 -1.6162,1.6162 -0.89263,0 -1.6162,-0.72362 -1.6162,-1.6162 0,-0.89263 0.72362,-1.6162 1.6162,-1.6162 0.89263,0 1.6162,0.72362 1.6162,1.6162 z"
           transform="matrix(0.91681,0,0,0.91681,58.02,-14.06)"
           id="path4839-8" />
        <path
           d="m -21.106,37.447 c 0,0.89263 -0.72362,1.6162 -1.6162,1.6162 -0.89263,0 -1.6162,-0.72362 -1.6162,-1.6162 0,-0.89263 0.72362,-1.6162 1.6162,-1.6162 0.89263,0 1.6162,0.72362 1.6162,1.6162 z"
           transform="matrix(0.83362,0,0,0.83362,57.82,-13.984)"
           id="path4841" />
        <path
           d="m -21.106,37.447 c 0,0.89263 -0.72362,1.6162 -1.6162,1.6162 -0.89263,0 -1.6162,-0.72362 -1.6162,-1.6162 0,-0.89263 0.72362,-1.6162 1.6162,-1.6162 0.89263,0 1.6162,0.72362 1.6162,1.6162 z"
           transform="matrix(0.77123,0,0,0.77123,57.315,-14.582)"
           id="path4843-7" />
        <path
           d="m -21.106,37.447 c 0,0.89263 -0.72362,1.6162 -1.6162,1.6162 -0.89263,0 -1.6162,-0.72362 -1.6162,-1.6162 0,-0.89263 0.72362,-1.6162 1.6162,-1.6162 0.89263,0 1.6162,0.72362 1.6162,1.6162 z"
           transform="matrix(0.66724,0,0,0.66724,54.914,-13.41)"
           id="path4845-4" />
        <path
           d="m -21.106,37.447 c 0,0.89263 -0.72362,1.6162 -1.6162,1.6162 -0.89263,0 -1.6162,-0.72362 -1.6162,-1.6162 0,-0.89263 0.72362,-1.6162 1.6162,-1.6162 0.89263,0 1.6162,0.72362 1.6162,1.6162 z"
           transform="matrix(0.56326,0,0,0.56326,51.898,-12.028)"
           id="path4847" />
        <path
           d="m -21.106,37.447 c 0,0.89263 -0.72362,1.6162 -1.6162,1.6162 -0.89263,0 -1.6162,-0.72362 -1.6162,-1.6162 0,-0.89263 0.72362,-1.6162 1.6162,-1.6162 0.89263,0 1.6162,0.72362 1.6162,1.6162 z"
           transform="translate(34.297,-7.36)"
           id="path4849" />
        <path
           d="m -21.106,37.447 c 0,0.89263 -0.72362,1.6162 -1.6162,1.6162 -0.89263,0 -1.6162,-0.72362 -1.6162,-1.6162 0,-0.89263 0.72362,-1.6162 1.6162,-1.6162 0.89263,0 1.6162,0.72362 1.6162,1.6162 z"
           transform="translate(30.465,-8.1667)"
           id="path4851" />
        <path
           d="m -21.106,37.447 c 0,0.89263 -0.72362,1.6162 -1.6162,1.6162 -0.89263,0 -1.6162,-0.72362 -1.6162,-1.6162 0,-0.89263 0.72362,-1.6162 1.6162,-1.6162 0.89263,0 1.6162,0.72362 1.6162,1.6162 z"
           transform="matrix(0.95841,0,0,0.95841,25.823,-8.3571)"
           id="path4853" />
        <path
           d="m -21.106,37.447 c 0,0.89263 -0.72362,1.6162 -1.6162,1.6162 -0.89263,0 -1.6162,-0.72362 -1.6162,-1.6162 0,-0.89263 0.72362,-1.6162 1.6162,-1.6162 0.89263,0 1.6162,0.72362 1.6162,1.6162 z"
           transform="matrix(0.87522,0,0,0.87522,21.378,-7.6137)"
           id="path4855" />
        <path
           d="m -21.106,37.447 c 0,0.89263 -0.72362,1.6162 -1.6162,1.6162 -0.89263,0 -1.6162,-0.72362 -1.6162,-1.6162 0,-0.89263 0.72362,-1.6162 1.6162,-1.6162 0.89263,0 1.6162,0.72362 1.6162,1.6162 z"
           transform="matrix(0.77123,0,0,0.77123,17.959,-6.433)"
           id="path4857" />
      </g>
      <path
         d="M 19.696,15.108 C 24.771,13.446 37.336,0.339 38.342,12.162 38.743,16.878 33.396,23.494 23.631,26.749 14.312,29.855 5.264,27.603 2.919,23.764 -3.2642,13.637 14.621,16.771 19.696,15.108 Z"
         fill="#fdca01"
         stroke-width="0.95652"
         stroke="url(#linearGradient3281)"
         id="path4088"
         style="stroke:url(#linearGradient3281)" />
      <path
         d="M 21.905,15.596 C 25.979,12.995 37.262,4.083 36.245,13.437 36.006,15.632 32.471,23.189 24.7,25.869 16.929,28.55 10.538,26.046 8.956,24.571 -1.303,15.001 18.605,17.702 21.905,15.596 Z"
         fill="#f0a513"
         stroke-width="1.062"
         stroke="url(#linearGradient4955)"
         id="path4684"
         style="stroke:url(#linearGradient1089)" />
      <path
         d="m 26.749,14.702 c 1.6622,5.075 -11.422,9.3605 -13.084,4.2855 0,0 -3.1175,-15.837 1.5555,-17.368 4.6729,-1.5305 11.529,13.082 11.529,13.082 z"
         fill="#ffff99"
         stroke-width="0.95652"
         stroke="url(#linearGradient3289)"
         id="path4094-7"
         style="stroke:url(#linearGradient3289)" />
      <path
         d="m 21.074,19.315 c 0,0 13.782,-8.2302 12.511,-1.9346 -0.29829,1.4775 -3.5719,6.6881 -10.128,8.8356 C 16.9,28.364 10.956,26.172 9.842,25.157 5.0927,20.833 21.074,19.315 21.074,19.315 Z"
         fill="#ffff99"
         stroke-width="1.062"
         stroke="url(#linearGradient4957)"
         id="path4096"
         style="stroke:url(#linearGradient4957)" />
      <path
         d="m 26.079,15.639 c 1.5148,4.6251 -9.7003,8.2984 -11.215,3.6733 0,0 -2.9424,-14.4 1.063,-15.712 4.005,-1.3114 10.152,12.039 10.152,12.039 z"
         fill="#fdca01"
         id="path4086" />
      <path
         d="m 13.076,19.085 c 5.9987,0.21628 9.7488,-1.4654 13.988,-4.5614 0.39801,-0.14554 1.4421,-0.12595 1.4399,0.71616 -0.17488,1.3418 0.16104,1.8477 0.87061,2.6321 0.13036,0.44435 -0.12931,1.1402 -0.52732,1.2858 -4.0841,3.4058 -8.2191,5.116 -13.851,4.8329 -0.39801,0.14554 -1.5305,-0.2276 -1.6608,-0.67196 0.37548,-1.3916 -0.31338,-1.7672 -1.0032,-2.8089 -0.13036,-0.44436 0.3457,-1.2791 0.74372,-1.4247 z"
         fill="#565248"
         id="rect4098" />
      <g
         id="g4865">
        <path
           fill="#339900"
           d="m 12.917,19.362 c -0.91043,0.69862 0.05784,1.8328 0.64038,2.1213 5.3711,0.79841 10.539,-1.6751 14.637,-4.9497 0.10685,-0.82873 -0.05064,-1.4659 -0.91482,-1.591 -4.4352,3.2234 -8.4739,5.1754 -14.363,4.4194 z"
           id="path4859" />
        <path
           fill="none"
           stroke-width="0.95652px"
           stroke-linecap="round"
           stroke="#ffff99"
           d="m 14.142,21.97 c 5.4232,0.32381 9.8956,-1.3913 14.01,-4.8172"
           stroke-linejoin="round"
           id="path4861" />
      </g>
      <path
         d="m 449.76,-29.153 c 0,7.5972 -2.4099,13.756 -5.3827,13.756 -2.9728,0 -5.3827,-6.1587 -5.3827,-13.756 0,-7.5972 2.4099,-13.756 5.3827,-13.756 2.9728,0 5.3827,6.1587 5.3827,13.756 z"
         fill="#0197fd"
         transform="matrix(0.058721,-0.019233,0.016223,0.049533,-11.107,27.609)"
         id="path4103" />
      <path
         d="m 486.84,-20.181 c 0,7.2668 -4.0166,13.158 -8.9712,13.158 -4.9547,0 -8.9712,-5.8909 -8.9712,-13.158 0,-7.2668 4.0166,-13.158 8.9712,-13.158 4.9547,0 8.9712,5.8909 8.9712,13.158 z"
         fill="#0197fd"
         transform="matrix(0.058721,-0.019233,0.019091,0.058288,-10.375,27.797)"
         id="path4105" />
      <path
         d="m 523.92,-18.985 c 0,8.5881 -3.2132,15.55 -7.177,15.55 -3.9637,0 -7.177,-6.962 -7.177,-15.55 0,-8.5881 3.2132,-15.55 7.177,-15.55 3.9637,0 7.177,6.962 7.177,15.55 z"
         fill="#0197fd"
         transform="matrix(0.075038,-0.024577,0.016829,0.051383,-17.972,30.208)"
         id="path4107" />
      <path
         d="m 568.18,-26.162 c 0,7.2668 -3.7488,13.158 -8.3731,13.158 -4.6244,0 -8.3731,-5.8909 -8.3731,-13.158 0,-7.2668 3.7488,-13.158 8.3731,-13.158 4.6244,0 8.3731,5.8909 8.3731,13.158 z"
         fill="#0197fd"
         transform="matrix(0.058721,-0.019233,0.019091,0.058288,-9.1569,27.559)"
         id="path4109" />
      <path
         d="m 602.87,-45.301 c 0,5.285 -1.8744,9.5693 -4.1866,9.5693 -2.3122,0 -4.1866,-4.2843 -4.1866,-9.5693 0,-5.285 1.8744,-9.5693 4.1866,-9.5693 2.3122,0 4.1866,4.2843 4.1866,9.5693 z"
         fill="#0197fd"
         transform="matrix(0.088351,-0.028937,0.022036,0.067279,-26.763,34.304)"
         id="path4111" />
      <path
         fill="#fd3301"
         d="m 15.871,17.888 0.852,-2.767 2.3089,2.1776 0.56106,-2.8023 2.3856,1.5873 0.0925,-2.7152 2.1234,1.254 -0.0022,-2.2867 1.0594,0.42995 -0.20976,-0.60992 -1.2878,-0.50942 -0.08206,2.0112 -2.2115,-1.3052 -0.21517,2.5089 -2.0837,-1.7514 -0.60105,2.7555 -2.3148,-2.0187 -0.72553,2.8967 -2.0837,-2.3106 0.08648,0.89702 2.3478,2.5583 z"
         id="path4113" />
      <path
         fill="none"
         stroke-width="0.95652px"
         stroke-linecap="round"
         stroke="url(#linearGradient4959)"
         d="m 1.6417,20.173 c 2.9065,8.9652 14.848,7.3388 21.386,5.7589 9.512,-2.286 19.3,-14.785 11.287,-18.371"
         stroke-linejoin="round"
         id="path4644"
         style="stroke:url(#linearGradient4959)" />
      <path
         fill="none"
         stroke-width="0.95652px"
         stroke-linecap="round"
         stroke="#f44800"
         d="m 14.275,22.942 c 5.4232,0.32381 10.205,-1.5239 14.319,-4.9497"
         stroke-linejoin="round"
         id="path4863" />
      <path
         d="m 14.522,19.637 c -0.22186,1.268 0.56235,1.2821 0.6866,2.0382 0.15067,0.91692 -1.134,0.63964 -0.08471,1.902 6.1991,0.06788 9.3906,-1.8497 13.356,-4.6397 0.15578,-1.2158 -0.90921,-0.92907 -1.5053,-1.5301 -0.46567,-0.46958 0.35266,-1.2434 -0.61125,-1.7448 0,0 -3.6583,2.158 -5.6484,2.8262 -1.9943,0.66968 -6.1934,1.1482 -6.1934,1.1482 z"
         fill-opacity="0.17742"
         id="path4129-3" />
    </g>
  </g>
</svg>
